.SFNSText-Bold.ufo
<glyph name="ampersand" format="2">
  <advance width="807"/>
  <unicode hex="0026"/>
  <outline>
    <contour>
      <point x="319" y="716" type="curve" smooth="yes"/>
      <point x="157" y="716"/>
      <point x="85" y="628"/>
      <point x="85" y="542" type="curve" smooth="yes"/>
      <point x="85" y="482.667"/>
      <point x="104.769" y="445.68"/>
      <point x="180.161" y="372.076" type="curve"/>
      <point x="87" y="311"/>
      <point x="47" y="259"/>
      <point x="47" y="179" type="curve" smooth="yes"/>
      <point x="47" y="59"/>
      <point x="151" y="-20"/>
      <point x="309" y="-20" type="curve" smooth="yes"/>
      <point x="385.609" y="-20"/>
      <point x="458.726" y="-1.67"/>
      <point x="525.906" y="43.959" type="curve"/>
      <point x="593" y="-20" type="line"/>
      <point x="769" y="49" type="line"/>
      <point x="642.618" y="156.628" type="line"/>
      <point x="678.623" y="205.303"/>
      <point x="710.267" y="264.317"/>
      <point x="736" y="336" type="curve"/>
      <point x="576" y="383" type="line"/>
      <point x="565.241" y="332.789"/>
      <point x="552.069" y="289.814"/>
      <point x="535.765" y="254.795" type="curve"/>
      <point x="425.281" y="358.41" type="line"/>
      <point x="503.502" y="412.934"/>
      <point x="553" y="468.267"/>
      <point x="553" y="551" type="curve" smooth="yes"/>
      <point x="553" y="644"/>
      <point x="470" y="716"/>
    </contour>
    <contour>
      <point x="292.279" y="265.502" type="curve"/>
      <point x="430.736" y="133.766" type="line"/>
      <point x="405.975" y="121.721"/>
      <point x="378.133" y="116"/>
      <point x="346" y="116" type="curve" smooth="yes"/>
      <point x="289" y="116"/>
      <point x="256" y="147"/>
      <point x="256" y="191" type="curve" smooth="yes"/>
      <point x="256" y="220"/>
      <point x="266" y="244"/>
    </contour>
    <contour>
      <point x="322" y="593" type="curve" smooth="yes"/>
      <point x="350" y="593"/>
      <point x="365" y="574"/>
      <point x="365" y="547" type="curve" smooth="yes"/>
      <point x="365" y="511.558"/>
      <point x="353.044" y="487.325"/>
      <point x="318.15" y="460.735" type="curve"/>
      <point x="279.177" y="500.996"/>
      <point x="274" y="517.061"/>
      <point x="274" y="542" type="curve" smooth="yes"/>
      <point x="274" y="574"/>
      <point x="293" y="593"/>
    </contour>
  </outline>
</glyph>
<glyph name="quotesingle" format="2">
  <advance width="250"/>
  <unicode hex="0027"/>
  <outline>
    <contour>
      <point x="62" y="406" type="line"/>
      <point x="188" y="406" type="line"/>
      <point x="210" y="696" type="line"/>
      <point x="40" y="696" type="line"/>
    </contour>
  </outline>
</glyph>
<glyph name="parenright" format="2">
  <advance width="325"/>
  <unicode hex="0029"/>
  <outline>
    <contour>
      <point x="122" y="867" type="curve"/>
      <point x="-5" y="782" type="line"/>
      <point x="89" y="650"/>
      <point x="122" y="517"/>
      <point x="122" y="350" type="curve" smooth="yes"/>
      <point x="122" y="183"/>
      <point x="89" y="50"/>
      <point x="-5" y="-82" type="curve"/>
      <point x="122" y="-167" type="line"/>
      <point x="224" y="-29"/>
      <point x="320" y="110"/>
      <point x="320" y="350" type="curve" smooth="yes"/>
      <point x="320" y="590"/>
      <point x="224" y="729"/>
    </contour>
  </outline>
</glyph>
<glyph name="slash" format="2">
  <advance width="520"/>
  <unicode hex="002F"/>
  <outline>
    <contour>
      <point x="292" y="822" type="line"/>
      <point x="54" y="-77" type="line"/>
      <point x="229" y="-117" type="line"/>
      <point x="466" y="782" type="line"/>
    </contour>
  </outline>
</glyph>
<glyph name="seven" format="2">
  <advance width="482"/>
  <unicode hex="0037"/>
  <outline>
    <contour>
      <point x="472" y="680" type="line"/>
      <point x="5" y="680" type="line"/>
      <point x="5" y="534" type="line"/>
      <point x="264" y="534" type="line"/>
      <point x="46" y="40" type="line"/>
      <point x="225" y="-20" type="line"/>
      <point x="472" y="550" type="line"/>
    </contour>
  </outline>
</glyph>
<glyph name="A" format="2">
  <advance width="601"/>
  <unicode hex="0041"/>
  <anchor x="301" y="0" name="bottom"/>
  <anchor x="526" y="0" name="ogonek"/>
  <anchor x="301" y="696" name="top"/>
  <anchor x="150" y="696" name="topleft"/>
  <outline>
    <contour>
      <point x="424" y="696" type="line"/>
      <point x="178" y="696" type="line"/>
      <point x="-25" y="0" type="line"/>
      <point x="190" y="0" type="line"/>
      <point x="298" y="552" type="line"/>
      <point x="408" y="0" type="line"/>
      <point x="626" y="0" type="line"/>
    </contour>
    <contour>
      <point x="368" y="279" type="line"/>
      <point x="229" y="279" type="line"/>
      <point x="200" y="135" type="line"/>
      <point x="397" y="135" type="line"/>
    </contour>
  </outline>
</glyph>
<glyph name="E" format="2">
  <advance width="520"/>
  <unicode hex="0045"/>
  <anchor x="269" y="0" name="bottom"/>
  <anchor x="465" y="0" name="ogonek"/>
  <anchor x="272" y="696" name="top"/>
  <anchor x="43" y="696" name="topleft"/>
  <outline>
    <contour>
      <point x="500" y="696" type="line"/>
      <point x="43" y="696" type="line"/>
      <point x="43" y="0" type="line"/>
      <point x="495" y="0" type="line"/>
      <point x="495" y="144" type="line"/>
      <point x="249" y="144" type="line"/>
      <point x="249" y="284" type="line"/>
      <point x="451" y="284" type="line"/>
      <point x="451" y="423" type="line"/>
      <point x="249" y="423" type="line"/>
      <point x="249" y="553" type="line"/>
      <point x="479" y="553" type="line"/>
    </contour>
  </outline>
</glyph>
<glyph name="F" format="2">
  <advance width="485"/>
  <unicode hex="0046"/>
  <anchor x="242.5" y="0" name="bottom"/>
  <anchor x="274" y="696" name="top"/>
  <outline>
    <contour>
      <point x="485" y="696" type="line" smooth="yes"/>
      <point x="43" y="696" type="line" smooth="yes"/>
      <point x="43" y="0" type="line" smooth="yes"/>
      <point x="249" y="0" type="line" smooth="yes"/>
      <point x="249" y="258" type="line" smooth="yes"/>
      <point x="438" y="258" type="line" smooth="yes"/>
      <point x="438" y="401" type="line" smooth="yes"/>
      <point x="249" y="401" type="line" smooth="yes"/>
      <point x="249" y="553" type="line" smooth="yes"/>
      <point x="464" y="553" type="line" smooth="yes"/>
    </contour>
  </outline>
</glyph>
<glyph name="H" format="2">
  <advance width="657"/>
  <unicode hex="0048"/>
  <anchor x="329" y="0" name="bottom"/>
  <anchor x="624" y="0" name="bottomright"/>
  <anchor x="329" y="348" name="center"/>
  <anchor x="329" y="696" name="top"/>
  <anchor x="43" y="696" name="topleft"/>
  <outline>
    <contour>
      <point x="408" y="0" type="line"/>
      <point x="614" y="0" type="line"/>
      <point x="614" y="696" type="line"/>
      <point x="408" y="696" type="line"/>
      <point x="408" y="439" type="line"/>
      <point x="249" y="439" type="line"/>
      <point x="249" y="696" type="line"/>
      <point x="43" y="696" type="line"/>
      <point x="43" y="0" type="line"/>
      <point x="249" y="0" type="line"/>
      <point x="249" y="281" type="line"/>
      <point x="408" y="281" type="line"/>
    </contour>
  </outline>
</glyph>
<glyph name="I" format="2">
  <advance width="292"/>
  <unicode hex="0049"/>
  <anchor x="146" y="0" name="bottom"/>
  <anchor x="213" y="0" name="ogonek"/>
  <anchor x="146" y="696" name="top"/>
  <anchor x="43" y="696" name="topleft"/>
  <outline>
    <contour>
      <point x="249" y="696" type="line"/>
      <point x="43" y="696" type="line"/>
      <point x="43" y="0" type="line"/>
      <point x="249" y="0" type="line"/>
    </contour>
  </outline>
</glyph>
<glyph name="J" format="2">
  <advance width="324.85"/>
  <unicode hex="004A"/>
  <anchor x="162.425" y="-215" name="bottom"/>
  <anchor x="181" y="696" name="top"/>
  <outline>
    <contour>
      <point x="284" y="696" type="line"/>
      <point x="78" y="696" type="line"/>
      <point x="78" y="118" type="line" smooth="yes"/>
      <point x="78" y="41"/>
      <point x="69" y="-10"/>
      <point x="-20" y="-44" type="curve"/>
      <point x="35" y="-189" type="line"/>
      <point x="156" y="-149"/>
      <point x="284" y="-83"/>
      <point x="284" y="111" type="curve" smooth="yes"/>
    </contour>
  </outline>
</glyph>
<glyph name="K" format="2">
  <advance width="659"/>
  <unicode hex="004B"/>
  <anchor x="330" y="0" name="bottom"/>
  <anchor x="330" y="696" name="top"/>
  <outline>
    <contour>
      <point x="661" y="696" type="line"/>
      <point x="449" y="696" type="line"/>
      <point x="255" y="371" type="line"/>
      <point x="445" y="0" type="line"/>
      <point x="679" y="0" type="line"/>
      <point x="464" y="387" type="line"/>
    </contour>
    <contour>
      <point x="249" y="696" type="line"/>
      <point x="43" y="696" type="line"/>
      <point x="43" y="0" type="line"/>
      <point x="249" y="0" type="line"/>
    </contour>
  </outline>
</glyph>
<glyph name="L" format="2">
  <advance width="522"/>
  <unicode hex="004C"/>
  <anchor x="267" y="0" name="bottom"/>
  <anchor x="403" y="404" name="center"/>
  <anchor x="146" y="696" name="top"/>
  <anchor x="259" y="696" name="topright"/>
  <outline>
    <contour>
      <point x="249" y="696" type="line"/>
      <point x="43" y="696" type="line"/>
      <point x="43" y="0" type="line"/>
      <point x="491" y="0" type="line"/>
      <point x="512" y="158" type="line"/>
      <point x="249" y="158" type="line"/>
    </contour>
  </outline>
</glyph>
<glyph name="P" format="2">
  <advance width="611"/>
  <unicode hex="0050"/>
  <anchor x="306" y="0" name="bottom"/>
  <anchor x="306" y="696" name="top"/>
  <anchor x="33" y="696" name="topleft"/>
  <outline>
    <contour>
      <point x="249" y="0" type="line"/>
      <point x="249" y="553" type="line"/>
      <point x="291" y="553" type="line" smooth="yes"/>
      <point x="359" y="553"/>
      <point x="386" y="519"/>
      <point x="386" y="462" type="curve" smooth="yes"/>
      <point x="386" y="394"/>
      <point x="355" y="362"/>
      <point x="297" y="362" type="curve" smooth="yes"/>
      <point x="233" y="362" type="line"/>
      <point x="233" y="217" type="line"/>
      <point x="317" y="217" type="line" smooth="yes"/>
      <point x="482" y="217"/>
      <point x="596" y="299"/>
      <point x="596" y="462" type="curve" smooth="yes"/>
      <point x="596" y="618"/>
      <point x="481" y="696"/>
      <point x="294" y="696" type="curve" smooth="yes"/>
      <point x="43" y="696" type="line"/>
      <point x="43" y="0" type="line"/>
    </contour>
  </outline>
</glyph>
<glyph name="T" format="2">
  <advance width="554"/>
  <unicode hex="0054"/>
  <anchor x="277" y="0" name="bottom"/>
  <anchor x="390" y="0" name="bottomright"/>
  <anchor x="277" y="348" name="center"/>
  <anchor x="277" y="696" name="top"/>
  <outline>
    <contour>
      <point x="559" y="696" type="line"/>
      <point x="5" y="696" type="line"/>
      <point x="5" y="542" type="line"/>
      <point x="174" y="542" type="line"/>
      <point x="174" y="0" type="line"/>
      <point x="380" y="0" type="line"/>
      <point x="380" y="542" type="line"/>
      <point x="538" y="542" type="line"/>
    </contour>
  </outline>
</glyph>
<glyph name="V" format="2">
  <advance width="579"/>
  <unicode hex="0056"/>
  <anchor x="289.5" y="0" name="bottom"/>
  <anchor x="289.5" y="696" name="top"/>
  <outline>
    <contour>
      <point x="604" y="696" type="line"/>
      <point x="393" y="696" type="line"/>
      <point x="298" y="143" type="line"/>
      <point x="192" y="696" type="line"/>
      <point x="-25" y="696" type="line"/>
      <point x="162" y="0" type="line"/>
      <point x="428" y="0" type="line"/>
    </contour>
  </outline>
</glyph>
<glyph name="W" format="2">
  <advance width="859"/>
  <unicode hex="0057"/>
  <anchor x="429.5" y="0" name="bottom"/>
  <anchor x="432" y="696" name="top"/>
  <outline>
    <contour>
      <point x="859" y="696" type="line"/>
      <point x="661" y="696" type="line"/>
      <point x="601" y="149" type="line"/>
      <point x="539" y="696" type="line"/>
      <point x="324" y="696" type="line"/>
      <point x="250" y="149" type="line"/>
      <point x="206" y="696" type="line"/>
      <point x="0" y="696" type="line"/>
      <point x="97" y="0" type="line"/>
      <point x="359" y="0" type="line"/>
      <point x="428" y="500" type="line"/>
      <point x="490" y="0" type="line"/>
      <point x="758" y="0" type="line"/>
    </contour>
  </outline>
</glyph>
<glyph name="Y" format="2">
  <advance width="620"/>
  <unicode hex="0059"/>
  <anchor x="310" y="0" name="bottom"/>
  <anchor x="310" y="696" name="top"/>
  <anchor x="-10" y="696" name="topleft"/>
  <outline>
    <contour>
      <point x="635" y="696" type="line"/>
      <point x="417" y="696" type="line"/>
      <point x="313" y="412" type="line"/>
      <point x="210" y="696" type="line"/>
      <point x="-15" y="696" type="line"/>
      <point x="207" y="256" type="line"/>
      <point x="207" y="0" type="line"/>
      <point x="413" y="0" type="line"/>
      <point x="413" y="257" type="line"/>
    </contour>
  </outline>
</glyph>
<glyph name="Z" format="2">
  <advance width="557"/>
  <unicode hex="005A"/>
  <anchor x="268" y="0" name="bottom"/>
  <anchor x="279" y="696" name="top"/>
  <outline>
    <contour>
      <point x="533" y="696" type="line"/>
      <point x="38" y="696" type="line"/>
      <point x="38" y="540" type="line"/>
      <point x="296" y="540" type="line"/>
      <point x="10" y="151" type="line"/>
      <point x="10" y="0" type="line"/>
      <point x="522" y="0" type="line"/>
      <point x="542" y="161" type="line"/>
      <point x="256" y="161" type="line"/>
      <point x="533" y="543" type="line"/>
    </contour>
  </outline>
</glyph>
<glyph name="bracketleft" format="2">
  <advance width="325"/>
  <unicode hex="005B"/>
  <outline>
    <contour>
      <point x="315" y="827" type="line"/>
      <point x="15" y="827" type="line"/>
      <point x="15" y="-127" type="line"/>
      <point x="315" y="-127" type="line"/>
      <point x="315" y="15" type="line"/>
      <point x="203" y="15" type="line"/>
      <point x="203" y="684" type="line"/>
      <point x="315" y="684" type="line"/>
    </contour>
  </outline>
</glyph>
<glyph name="asciicircum" format="2">
  <advance width="570"/>
  <unicode hex="005E"/>
  <outline>
    <contour>
      <point x="376" y="847" type="line"/>
      <point x="194" y="847" type="line"/>
      <point x="5" y="527" type="line"/>
      <point x="198" y="527" type="line"/>
      <point x="284" y="705" type="line"/>
      <point x="376" y="527" type="line"/>
      <point x="565" y="527" type="line"/>
    </contour>
  </outline>
</glyph>
<glyph name="d" format="2">
  <advance width="601"/>
  <unicode hex="0064"/>
  <anchor x="308" y="0" name="bottom"/>
  <anchor x="301" y="267" name="center"/>
  <anchor x="296" y="744" name="top"/>
  <anchor x="569" y="744" name="topright"/>
  <outline>
    <contour>
      <point x="250" y="554" type="curve" smooth="yes"/>
      <point x="108" y="554"/>
      <point x="22" y="436"/>
      <point x="22" y="270" type="curve" smooth="yes"/>
      <point x="22" y="94"/>
      <point x="86" y="-20"/>
      <point x="225" y="-20" type="curve" smooth="yes"/>
      <point x="309" y="-20"/>
      <point x="356" y="25"/>
      <point x="383" y="66" type="curve"/>
      <point x="371" y="188" type="line"/>
      <point x="350" y="142"/>
      <point x="323" y="122"/>
      <point x="294" y="122" type="curve" smooth="yes"/>
      <point x="256" y="122"/>
      <point x="225" y="140"/>
      <point x="225" y="268" type="curve" smooth="yes"/>
      <point x="225" y="376"/>
      <point x="259" y="413"/>
      <point x="303" y="413" type="curve" smooth="yes"/>
      <point x="333" y="413"/>
      <point x="350" y="396"/>
      <point x="374" y="368" type="curve"/>
      <point x="372" y="501" type="line"/>
      <point x="342" y="535"/>
      <point x="295" y="554"/>
    </contour>
    <contour>
      <point x="361" y="764" type="line"/>
      <point x="361" y="156" type="line"/>
      <point x="374" y="68" type="line"/>
      <point x="383" y="0" type="line"/>
      <point x="559" y="0" type="line"/>
      <point x="559" y="744" type="line"/>
    </contour>
  </outline>
</glyph>
<glyph name="f" format="2">
  <advance width="369"/>
  <unicode hex="0066"/>
  <anchor x="169" y="0" name="bottom"/>
  <anchor x="270" y="744" name="top"/>
  <outline>
    <contour>
      <point x="296" y="764" type="curve" smooth="yes"/>
      <point x="143" y="764"/>
      <point x="70" y="675"/>
      <point x="70" y="565" type="curve" smooth="yes"/>
      <point x="70" y="0" type="line"/>
      <point x="268" y="0" type="line"/>
      <point x="268" y="555" type="line" smooth="yes"/>
      <point x="268" y="605"/>
      <point x="285" y="622"/>
      <point x="323" y="622" type="curve" smooth="yes"/>
      <point x="345" y="622"/>
      <point x="373" y="617"/>
      <point x="401" y="602" type="curve"/>
      <point x="453" y="727" type="line"/>
      <point x="416" y="747"/>
      <point x="354" y="764"/>
    </contour>
    <contour>
      <point x="392" y="534" type="line"/>
      <point x="-2" y="534" type="line"/>
      <point x="-2" y="400" type="line"/>
      <point x="370" y="400" type="line"/>
    </contour>
  </outline>
</glyph>
<glyph name="h" format="2">
  <advance width="572"/>
  <unicode hex="0068"/>
  <anchor x="289" y="0" name="bottom"/>
  <anchor x="286" y="267" name="center"/>
  <anchor x="286" y="744" name="top"/>
  <outline>
    <contour>
      <point x="391" y="554" type="curve" smooth="yes"/>
      <point x="321" y="554"/>
      <point x="270" y="526"/>
      <point x="216" y="459" type="curve"/>
      <point x="240" y="357" type="line"/>
      <point x="263" y="393"/>
      <point x="286" y="410"/>
      <point x="307" y="410" type="curve" smooth="yes"/>
      <point x="325" y="410"/>
      <point x="337" y="400"/>
      <point x="337" y="358" type="curve"/>
      <point x="337" y="0" type="line"/>
      <point x="535" y="0" type="line"/>
      <point x="535" y="394" type="line" smooth="yes"/>
      <point x="535" y="496"/>
      <point x="480" y="554"/>
    </contour>
    <contour>
      <point x="240" y="764" type="line"/>
      <point x="42" y="744" type="line"/>
      <point x="42" y="0" type="line"/>
      <point x="240" y="0" type="line"/>
    </contour>
  </outline>
</glyph>
<glyph name="k" format="2">
  <advance width="576"/>
  <unicode hex="006B"/>
  <anchor x="288" y="0" name="bottom"/>
  <anchor x="307" y="744" name="top"/>
  <outline>
    <contour>
      <point x="583" y="534" type="line"/>
      <point x="387" y="534" type="line"/>
      <point x="244" y="292" type="line"/>
      <point x="372" y="0" type="line"/>
      <point x="591" y="0" type="line"/>
      <point x="442" y="300" type="line"/>
    </contour>
    <contour>
      <point x="240" y="764" type="line"/>
      <point x="42" y="744" type="line"/>
      <point x="42" y="0" type="line"/>
      <point x="240" y="0" type="line"/>
    </contour>
  </outline>
</glyph>
<glyph name="l" format="2">
  <advance width="300"/>
  <unicode hex="006C"/>
  <anchor x="186" y="0" name="bottom"/>
  <anchor x="389" y="373" name="center"/>
  <anchor x="136" y="744" name="top"/>
  <anchor x="245" y="744" name="topright"/>
  <outline>
    <contour>
      <point x="205" y="-20" type="curve" smooth="yes"/>
      <point x="250" y="-20"/>
      <point x="289" y="-12"/>
      <point x="315" y="-2" type="curve"/>
      <point x="280" y="139" type="line"/>
      <point x="275" y="137"/>
      <point x="268" y="135"/>
      <point x="259" y="135" type="curve" smooth="yes"/>
      <point x="243" y="135"/>
      <point x="235" y="144"/>
      <point x="235" y="162" type="curve" smooth="yes"/>
      <point x="235" y="764" type="line"/>
      <point x="37" y="744" type="line"/>
      <point x="37" y="154" type="line" smooth="yes"/>
      <point x="37" y="43"/>
      <point x="97" y="-20"/>
    </contour>
  </outline>
</glyph>
<glyph name="u" format="2">
  <advance width="566"/>
  <unicode hex="0075"/>
  <anchor x="281" y="0" name="bottom"/>
  <anchor x="534" y="0" name="ogonek"/>
  <anchor x="281" y="534" name="top"/>
  <anchor x="534" y="534" name="topright"/>
  <outline>
    <contour>
      <point x="524" y="534" type="line"/>
      <point x="326" y="534" type="line"/>
      <point x="326" y="168" type="line"/>
      <point x="308" y="137"/>
      <point x="286" y="124"/>
      <point x="268" y="124" type="curve" smooth="yes"/>
      <point x="249" y="124"/>
      <point x="235" y="134"/>
      <point x="235" y="176" type="curve" smooth="yes"/>
      <point x="235" y="534" type="line"/>
      <point x="37" y="534" type="line"/>
      <point x="37" y="150" type="line" smooth="yes"/>
      <point x="37" y="48"/>
      <point x="82" y="-20"/>
      <point x="186" y="-20" type="curve" smooth="yes"/>
      <point x="253" y="-20"/>
      <point x="307" y="6"/>
      <point x="344" y="58" type="curve"/>
      <point x="351" y="0" type="line"/>
      <point x="524" y="0" type="line"/>
    </contour>
  </outline>
</glyph>
<glyph name="v" format="2">
  <advance width="526"/>
  <unicode hex="0076"/>
  <anchor x="265" y="0" name="bottom"/>
  <anchor x="271" y="534" name="top"/>
  <outline>
    <contour>
      <point x="541" y="534" type="line"/>
      <point x="341" y="534" type="line"/>
      <point x="267" y="143" type="line"/>
      <point x="200" y="534" type="line"/>
      <point x="-15" y="534" type="line"/>
      <point x="148" y="0" type="line"/>
      <point x="382" y="0" type="line"/>
    </contour>
  </outline>
</glyph>
<glyph name="w" format="2">
  <advance width="768"/>
  <unicode hex="0077"/>
  <anchor x="385" y="0" name="bottom"/>
  <anchor x="384" y="534" name="top"/>
  <outline>
    <contour>
      <point x="773" y="534" type="line"/>
      <point x="583" y="534" type="line"/>
      <point x="538" y="151" type="line"/>
      <point x="482" y="534" type="line"/>
      <point x="297" y="534" type="line"/>
      <point x="227" y="151" type="line"/>
      <point x="195" y="534" type="line"/>
      <point x="-5" y="534" type="line"/>
      <point x="102" y="0" type="line"/>
      <point x="328" y="0" type="line"/>
      <point x="383" y="358" type="line"/>
      <point x="441" y="0" type="line"/>
      <point x="668" y="0" type="line"/>
    </contour>
  </outline>
</glyph>
<glyph name="x" format="2">
  <advance width="528"/>
  <unicode hex="0078"/>
  <anchor x="260" y="0" name="bottom"/>
  <anchor x="478" y="0" name="bottomright"/>
  <anchor x="263" y="534" name="top"/>
  <outline>
    <contour>
      <point x="213" y="534" type="line"/>
      <point x="-6" y="534" type="line"/>
      <point x="143" y="280" type="line"/>
      <point x="257" y="184" type="line"/>
      <point x="327" y="0" type="line"/>
      <point x="548" y="0" type="line"/>
      <point x="383" y="286" type="line"/>
      <point x="265" y="377" type="line"/>
    </contour>
    <contour>
      <point x="519" y="534" type="line"/>
      <point x="312" y="534" type="line"/>
      <point x="265" y="377" type="line"/>
      <point x="143" y="280" type="line"/>
      <point x="-20" y="0" type="line"/>
      <point x="193" y="0" type="line"/>
      <point x="257" y="184" type="line"/>
      <point x="383" y="286" type="line"/>
    </contour>
  </outline>
</glyph>
<glyph name="z" format="2">
  <advance width="472"/>
  <unicode hex="007A"/>
  <anchor x="227" y="0" name="bottom"/>
  <anchor x="241" y="534" name="top"/>
  <outline>
    <contour>
      <point x="455" y="534" type="line"/>
      <point x="25" y="534" type="line"/>
      <point x="25" y="390" type="line"/>
      <point x="227" y="390" type="line"/>
      <point x="5" y="138" type="line"/>
      <point x="5" y="0" type="line"/>
      <point x="445" y="0" type="line"/>
      <point x="462" y="146" type="line"/>
      <point x="236" y="146" type="line"/>
      <point x="455" y="397" type="line"/>
    </contour>
  </outline>
</glyph>
<glyph name="cent" format="2">
  <advance width="479"/>
  <unicode hex="00A2"/>
  <anchor x="292" y="534" name="top"/>
  <anchor x="277" y="0" name="bottom"/>
  <outline>
    <contour>
      <point x="356" y="696" type="line"/>
      <point x="222" y="696" type="line"/>
      <point x="222" y="535" type="line"/>
      <point x="356" y="538" type="line"/>
    </contour>
    <contour>
      <point x="221" y="-1" type="line"/>
      <point x="221" y="-165" type="line"/>
      <point x="356" y="-165" type="line"/>
      <point x="356" y="-5" type="line"/>
    </contour>
    <component base="c"/>
  </outline>
</glyph>
<glyph name="yen" format="2">
  <advance width="588"/>
  <unicode hex="00A5"/>
  <outline>
    <contour>
      <point x="603" y="680" type="line"/>
      <point x="400" y="680" type="line"/>
      <point x="298" y="407" type="line"/>
      <point x="193" y="680" type="line"/>
      <point x="-15" y="680" type="line"/>
      <point x="197" y="277" type="line"/>
      <point x="197" y="0" type="line"/>
      <point x="393" y="0" type="line"/>
      <point x="393" y="277" type="line"/>
    </contour>
    <contour>
      <point x="523" y="201" type="line"/>
      <point x="69" y="201" type="line"/>
      <point x="69" y="106" type="line"/>
      <point x="523" y="106" type="line"/>
    </contour>
    <contour>
      <point x="523" y="356" type="line"/>
      <point x="69" y="356" type="line"/>
      <point x="69" y="261" type="line"/>
      <point x="523" y="261" type="line"/>
    </contour>
  </outline>
</glyph>
<glyph name="macron" format="2">
  <advance width="385"/>
  <unicode hex="00AF"/>
  <outline>
    <contour>
      <point x="355" y="648" type="line"/>
      <point x="355" y="782" type="line"/>
      <point x="30" y="782" type="line"/>
      <point x="30" y="648" type="line"/>
    </contour>
  </outline>
</glyph>
<glyph name="paragraph" format="2">
  <advance width="820"/>
  <unicode hex="00B6"/>
  <outline>
    <contour>
      <point x="720" y="696" type="line"/>
      <point x="333" y="696" type="line"/>
      <point x="298" y="662" type="line"/>
      <point x="298" y="-228" type="line"/>
      <point x="470" y="-207" type="line"/>
      <point x="470" y="563" type="line"/>
      <point x="548" y="563" type="line"/>
      <point x="548" y="-228" type="line"/>
      <point x="720" y="-207" type="line"/>
    </contour>
    <contour>
      <point x="333" y="696" type="line"/>
      <point x="148" y="703"/>
      <point x="50" y="610"/>
      <point x="50" y="473" type="curve" smooth="yes"/>
      <point x="50" y="338"/>
      <point x="144" y="246"/>
      <point x="319" y="252" type="curve"/>
    </contour>
  </outline>
</glyph>
<glyph name="multiply" format="2">
  <advance width="530"/>
  <unicode hex="00D7"/>
  <outline>
    <contour>
      <point x="378" y="525" type="line"/>
      <point x="265" y="409" type="line"/>
      <point x="152" y="525" type="line"/>
      <point x="46" y="419" type="line"/>
      <point x="162" y="306" type="line"/>
      <point x="46" y="193" type="line"/>
      <point x="152" y="87" type="line"/>
      <point x="265" y="203" type="line"/>
      <point x="378" y="87" type="line"/>
      <point x="484" y="193" type="line"/>
      <point x="368" y="306" type="line"/>
      <point x="484" y="419" type="line"/>
    </contour>
  </outline>
</glyph>
<glyph name="Thorn" format="2">
  <advance width="611"/>
  <unicode hex="00DE"/>
  <anchor x="305.5" y="0" name="bottom"/>
  <anchor x="305.5" y="696" name="top"/>
  <outline>
    <contour>
      <point x="294" y="593" type="curve" smooth="yes"/>
      <point x="243" y="593" type="line"/>
      <point x="249" y="450" type="line"/>
      <point x="291" y="450" type="line" smooth="yes"/>
      <point x="359" y="450"/>
      <point x="386" y="416"/>
      <point x="386" y="358" type="curve" smooth="yes"/>
      <point x="386" y="283"/>
      <point x="355" y="251"/>
      <point x="297" y="251" type="curve" smooth="yes"/>
      <point x="233" y="251" type="line"/>
      <point x="233" y="106" type="line"/>
      <point x="317" y="106" type="line" smooth="yes"/>
      <point x="482" y="106"/>
      <point x="596" y="188"/>
      <point x="596" y="358" type="curve" smooth="yes"/>
      <point x="596" y="515"/>
      <point x="481" y="593"/>
    </contour>
    <contour>
      <point x="249" y="696" type="line"/>
      <point x="43" y="696" type="line"/>
      <point x="43" y="0" type="line"/>
      <point x="249" y="0" type="line"/>
    </contour>
  </outline>
</glyph>
<glyph name="kgreenlandic" format="2">
  <advance width="576"/>
  <unicode hex="0138"/>
  <anchor x="288" y="0" name="bottom"/>
  <anchor x="288" y="534" name="top"/>
  <outline>
    <contour>
      <point x="583" y="534" type="line"/>
      <point x="387" y="534" type="line"/>
      <point x="244" y="282" type="line"/>
      <point x="372" y="0" type="line"/>
      <point x="591" y="0" type="line"/>
      <point x="442" y="290" type="line"/>
    </contour>
    <contour>
      <point x="240" y="534" type="line"/>
      <point x="42" y="534" type="line"/>
      <point x="42" y="0" type="line"/>
      <point x="240" y="0" type="line"/>
    </contour>
  </outline>
</glyph>
<glyph name="Lslash" format="2">
  <advance width="576"/>
  <unicode hex="0141"/>
  <anchor x="200" y="696" name="top"/>
  <anchor x="457" y="404" name="center"/>
  <anchor x="313" y="696" name="topright"/>
  <anchor x="321" y="0" name="bottom"/>
  <outline>
    <contour>
      <point x="411" y="541" type="line"/>
      <point x="97" y="347" type="line"/>
      <point x="0" y="287" type="line"/>
      <point x="63" y="184" type="line"/>
      <point x="475" y="439" type="line"/>
    </contour>
    <component base="L" xOffset="54"/>
  </outline>
</glyph>
<glyph name="Nhookleft" format="2">
  <advance width="651"/>
  <unicode hex="019D"/>
  <anchor x="326" y="696" name="top"/>
  <anchor x="326" y="0" name="bottom"/>
  <outline>
    <contour>
      <point x="16" y="-227" type="curve" smooth="yes"/>
      <point x="140" y="-227"/>
      <point x="225" y="-157"/>
      <point x="225" y="-16" type="curve" smooth="yes"/>
      <point x="225" y="1" type="line"/>
      <point x="43" y="1" type="line"/>
      <point x="43" y="-34" type="line" smooth="yes"/>
      <point x="43" y="-69"/>
      <point x="24" y="-87"/>
      <point x="-9" y="-87" type="curve" smooth="yes"/>
      <point x="-37" y="-87"/>
      <point x="-53" y="-79"/>
      <point x="-77" y="-67" type="curve"/>
      <point x="-141" y="-182" type="line"/>
      <point x="-105" y="-208"/>
      <point x="-56" y="-227"/>
    </contour>
    <component base="N"/>
  </outline>
</glyph>
<glyph name="nlegrightlong" format="2">
  <advance width="572"/>
  <unicode hex="019E"/>
  <anchor x="33" y="534" name="topleft"/>
  <anchor x="291" y="534" name="top"/>
  <anchor x="286" y="0" name="bottom"/>
  <outline>
    <contour>
      <point x="535" y="1" type="line"/>
      <point x="337" y="1" type="line"/>
      <point x="337" y="-207" type="line"/>
      <point x="535" y="-227" type="line"/>
    </contour>
    <component base="n"/>
  </outline>
</glyph>
<glyph name="eshreversedloop" format="2">
  <advance width="488"/>
  <unicode hex="01AA"/>
  <anchor x="244" y="-215" name="bottom"/>
  <anchor x="244" y="744" name="top"/>
  <outline>
    <contour>
      <point x="193" y="764" type="curve" smooth="yes"/>
      <point x="56" y="764"/>
      <point x="-20" y="680"/>
      <point x="-20" y="572" type="curve" smooth="yes"/>
      <point x="-20" y="462"/>
      <point x="51" y="383"/>
      <point x="158" y="383" type="curve" smooth="yes"/>
      <point x="226" y="383"/>
      <point x="263" y="420"/>
      <point x="298" y="440" type="curve"/>
      <point x="256" y="532" type="line"/>
      <point x="233" y="521"/>
      <point x="214" y="515"/>
      <point x="192" y="515" type="curve" smooth="yes"/>
      <point x="161" y="515"/>
      <point x="144" y="532"/>
      <point x="144" y="575" type="curve" smooth="yes"/>
      <point x="144" y="614"/>
      <point x="158" y="632"/>
      <point x="184" y="632" type="curve" smooth="yes"/>
      <point x="209" y="632"/>
      <point x="220" y="616"/>
      <point x="220" y="586" type="curve" smooth="yes"/>
      <point x="220" y="0" type="line"/>
      <point x="418" y="0" type="line"/>
      <point x="418" y="555" type="line" smooth="yes"/>
      <point x="418" y="675"/>
      <point x="339" y="764"/>
    </contour>
    <component base="hookHELPER" xScale="-1" xOffset="622"/>
  </outline>
</glyph>
<glyph name="zstroke" format="2">
  <advance width="472"/>
  <unicode hex="01B6"/>
  <anchor x="236" y="0" name="bottom"/>
  <anchor x="236" y="534" name="top"/>
  <outline>
    <contour>
      <point x="455" y="534" type="line"/>
      <point x="25" y="534" type="line"/>
      <point x="25" y="400" type="line"/>
      <point x="237" y="400" type="line"/>
      <point x="5" y="128" type="line"/>
      <point x="5" y="0" type="line"/>
      <point x="445" y="0" type="line"/>
      <point x="462" y="136" type="line"/>
      <point x="226" y="136" type="line"/>
      <point x="455" y="407" type="line"/>
    </contour>
    <component base="hyphen" xScale="1.2" yScale="0.7" xOffset="-14" yOffset="59"/>
  </outline>
</glyph>
<glyph name="Nlongrightleg" format="2">
  <advance width="643"/>
  <unicode hex="0220"/>
  <anchor x="321.5" y="-215" name="bottom"/>
  <anchor x="321.5" y="696" name="top"/>
  <outline>
    <contour>
      <point x="428" y="716" type="curve" smooth="yes"/>
      <point x="340" y="716"/>
      <point x="289" y="689"/>
      <point x="225" y="626" type="curve"/>
      <point x="249" y="514" type="line"/>
      <point x="282" y="550"/>
      <point x="310" y="567"/>
      <point x="349" y="567" type="curve" smooth="yes"/>
      <point x="385" y="567"/>
      <point x="399" y="547"/>
      <point x="399" y="505" type="curve" smooth="yes"/>
      <point x="399" y="-215" type="line"/>
      <point x="605" y="-215" type="line"/>
      <point x="605" y="536" type="line" smooth="yes"/>
      <point x="605" y="638"/>
      <point x="547" y="716"/>
    </contour>
    <contour>
      <point x="224" y="696" type="line"/>
      <point x="43" y="696" type="line"/>
      <point x="43" y="0" type="line"/>
      <point x="249" y="0" type="line"/>
      <point x="249" y="597" type="line"/>
    </contour>
  </outline>
</glyph>
<glyph name="dotlessj" format="2">
  <advance width="282"/>
  <unicode hex="0237"/>
  <anchor x="141" y="-215" name="bottom"/>
  <anchor x="141" y="534" name="top"/>
  <outline>
    <contour>
      <point x="240" y="534" type="line"/>
      <point x="42" y="534" type="line"/>
      <point x="42" y="65" type="line" smooth="yes"/>
      <point x="42" y="-22"/>
      <point x="-3" y="-52"/>
      <point x="-70" y="-83" type="curve"/>
      <point x="-2" y="-227" type="line"/>
      <point x="130" y="-184"/>
      <point x="240" y="-111"/>
      <point x="240" y="77" type="curve" smooth="yes"/>
    </contour>
  </outline>
</glyph>
<glyph name="Cstroke" format="2">
  <advance width="584"/>
  <unicode hex="023B"/>
  <anchor x="292" y="0" name="bottom"/>
  <anchor x="292" y="696" name="top"/>
  <anchor x="375" y="354" name="center"/>
  <outline>
    <contour>
      <point x="415" y="759" type="line"/>
      <point x="198" y="-62" type="line"/>
      <point x="264" y="-77" type="line"/>
      <point x="480" y="744" type="line"/>
    </contour>
    <component base="C"/>
  </outline>
</glyph>
<glyph name="cstroke" format="2">
  <advance width="479"/>
  <unicode hex="023C"/>
  <anchor x="292" y="534" name="top"/>
  <anchor x="277" y="0" name="bottom"/>
  <outline>
    <contour>
      <point x="358" y="604" type="line"/>
      <point x="182" y="-62" type="line"/>
      <point x="245" y="-77" type="line"/>
      <point x="420" y="589" type="line"/>
    </contour>
    <component base="c"/>
  </outline>
</glyph>
<glyph name="Bstroke" format="2">
  <advance width="638"/>
  <unicode hex="0243"/>
  <anchor x="307" y="696" name="top"/>
  <anchor x="326" y="0" name="bottom"/>
  <outline>
    <contour>
      <point x="355" y="266" type="line"/>
      <point x="59" y="266" type="line"/>
      <point x="10" y="266" type="line"/>
      <point x="10" y="180" type="line"/>
      <point x="355" y="180" type="line"/>
    </contour>
    <component base="B" xOffset="16"/>
  </outline>
</glyph>
<glyph name="Ubar" format="2">
  <advance width="676"/>
  <unicode hex="0244"/>
  <anchor x="338" y="696" name="top"/>
  <anchor x="476" y="0" name="ogonek"/>
  <anchor x="637" y="696" name="topright"/>
  <anchor x="338" y="0" name="bottom"/>
  <outline>
    <contour>
      <point x="676" y="601" type="line"/>
      <point x="627" y="601" type="line"/>
      <point x="0" y="601" type="line"/>
      <point x="0" y="495" type="line"/>
      <point x="49" y="495" type="line"/>
      <point x="676" y="495" type="line"/>
    </contour>
    <component base="U" xOffset="16"/>
  </outline>
</glyph>
<glyph name="Estroke" format="2">
  <advance width="520"/>
  <unicode hex="0246"/>
  <anchor x="260" y="0" name="bottom"/>
  <anchor x="260" y="696" name="top"/>
  <anchor x="43" y="696" name="topleft"/>
  <anchor x="465" y="0" name="ogonek"/>
  <outline>
    <contour>
      <point x="405" y="759" type="line"/>
      <point x="188" y="-62" type="line"/>
      <point x="254" y="-77" type="line"/>
      <point x="470" y="744" type="line"/>
    </contour>
    <component base="E"/>
  </outline>
</glyph>
<glyph name="ystroke" format="2">
  <advance width="564"/>
  <unicode hex="024F"/>
  <anchor x="282" y="534" name="top"/>
  <anchor x="277" y="-215" name="bottom"/>
  <outline>
    <contour>
      <point x="0" y="294" type="line"/>
      <point x="562" y="294" type="line"/>
      <point x="562" y="399" type="line"/>
      <point x="522" y="399" type="line"/>
      <point x="39" y="399" type="line"/>
      <point x="0" y="399" type="line"/>
    </contour>
    <component base="y" xOffset="15"/>
  </outline>
</glyph>
<glyph name="jdotlessstroke" format="2">
  <advance width="342"/>
  <unicode hex="025F"/>
  <anchor x="174" y="534" name="top"/>
  <anchor x="174" y="-215" name="bottom"/>
  <outline>
    <contour>
      <point x="2" y="194" type="line"/>
      <point x="342" y="194" type="line"/>
      <point x="342" y="329" type="line"/>
      <point x="2" y="329" type="line"/>
    </contour>
    <component base="dotlessj" xOffset="33"/>
  </outline>
</glyph>
<glyph name="Ismall" format="2">
  <advance width="340"/>
  <unicode hex="026A"/>
  <anchor x="170" y="0" name="bottom"/>
  <anchor x="170" y="534" name="top"/>
  <outline>
    <contour>
      <point x="71" y="0" type="line"/>
      <point x="269" y="0" type="line"/>
      <point x="269" y="534" type="line"/>
      <point x="71" y="534" type="line"/>
    </contour>
    <contour>
      <point x="10" y="0" type="line"/>
      <point x="330" y="0" type="line"/>
      <point x="330" y="140" type="line"/>
      <point x="10" y="140" type="line"/>
    </contour>
    <contour>
      <point x="10" y="396" type="line"/>
      <point x="330" y="396" type="line"/>
      <point x="330" y="534" type="line"/>
      <point x="10" y="534" type="line"/>
    </contour>
  </outline>
</glyph>
<glyph name="mlonglegturned" format="2">
  <advance width="837"/>
  <unicode hex="0270"/>
  <anchor x="413" y="-215" name="bottom"/>
  <anchor x="419" y="534" name="top"/>
  <outline>
    <contour>
      <point x="597" y="98" type="line"/>
      <point x="597" y="-207" type="line"/>
      <point x="795" y="-227" type="line"/>
      <point x="795" y="98" type="line"/>
    </contour>
    <component base="mturned"/>
  </outline>
</glyph>
<glyph name="rlongleg" format="2">
  <advance width="410"/>
  <unicode hex="027C"/>
  <anchor x="141" y="-215" name="bottom"/>
  <anchor x="231" y="534" name="top"/>
  <outline>
    <contour>
      <point x="42" y="1" type="line"/>
      <point x="42" y="-227" type="line"/>
      <point x="240" y="-207" type="line"/>
      <point x="240" y="1" type="line"/>
    </contour>
    <component base="r"/>
  </outline>
</glyph>
<glyph name="Rsmall" format="2">
  <advance width="547"/>
  <unicode hex="0280"/>
  <anchor x="274" y="0" name="bottom"/>
  <anchor x="274" y="534" name="top"/>
  <outline>
    <contour>
      <point x="262" y="534" type="curve" smooth="yes"/>
      <point x="42" y="534" type="line"/>
      <point x="42" y="0" type="line"/>
      <point x="230" y="0" type="line"/>
      <point x="230" y="402" type="line"/>
      <point x="257" y="402" type="line" smooth="yes"/>
      <point x="292" y="402"/>
      <point x="312" y="391"/>
      <point x="312" y="353" type="curve" smooth="yes"/>
      <point x="312" y="313"/>
      <point x="293" y="298"/>
      <point x="255" y="298" type="curve" smooth="yes"/>
      <point x="226" y="298" type="line"/>
      <point x="226" y="172" type="line"/>
      <point x="339" y="172" type="line"/>
      <point x="445" y="198"/>
      <point x="504" y="250"/>
      <point x="504" y="350" type="curve" smooth="yes"/>
      <point x="504" y="478"/>
      <point x="416" y="534"/>
    </contour>
    <contour>
      <point x="412" y="222" type="line"/>
      <point x="245" y="184" type="line"/>
      <point x="339" y="0" type="line"/>
      <point x="547" y="0" type="line"/>
    </contour>
  </outline>
</glyph>
<glyph name="esh" format="2">
  <advance width="338"/>
  <unicode hex="0283"/>
  <anchor x="72" y="-215" name="bottom"/>
  <anchor x="282" y="744" name="top"/>
  <outline>
    <contour>
      <point x="268" y="534" type="line"/>
      <point x="70" y="534" type="line"/>
      <point x="70" y="0" type="line"/>
      <point x="268" y="0" type="line"/>
    </contour>
    <component base="hookaboveHELPER2" xOffset="40"/>
    <component base="hookHELPER" xOffset="-134"/>
  </outline>
</glyph>
<glyph name="jdotlessstrokehook" format="2">
  <advance width="342"/>
  <unicode hex="0284"/>
  <anchor x="174" y="-215" name="bottom"/>
  <anchor x="282" y="744" name="top"/>
  <outline>
    <contour>
      <point x="31" y="-227" type="line"/>
      <point x="163" y="-184"/>
      <point x="273" y="-111"/>
      <point x="273" y="77" type="curve" smooth="yes"/>
      <point x="273" y="534" type="line"/>
      <point x="75" y="534" type="line"/>
      <point x="75" y="32" type="line" smooth="yes"/>
      <point x="75" y="-36"/>
      <point x="32" y="-70"/>
      <point x="-34" y="-96" type="curve"/>
    </contour>
    <contour>
      <point x="-2" y="0" type="line"/>
      <point x="338" y="0" type="line"/>
      <point x="338" y="135" type="line"/>
      <point x="-2" y="135" type="line"/>
    </contour>
    <component base="hookaboveHELPER2" xOffset="45"/>
  </outline>
</glyph>
<glyph name="eshsquatreversed" format="2">
  <advance width="512"/>
  <unicode hex="0285"/>
  <anchor x="374" y="0" name="bottom"/>
  <anchor x="130" y="534" name="top"/>
  <outline>
    <contour>
      <point x="145" y="325" type="line"/>
      <point x="145" y="208" type="line"/>
      <point x="343" y="208" type="line"/>
      <point x="343" y="325" type="line"/>
    </contour>
    <component base="hookaboveHELPER2" xScale="-1" xOffset="373" yOffset="-210"/>
    <component base="hookHELPER" xScale="-1" xOffset="547" yOffset="207"/>
  </outline>
</glyph>
<glyph name="tretroflexhook" format="2">
  <advance width="401"/>
  <unicode hex="0288"/>
  <anchor x="260" y="-215" name="bottom"/>
  <anchor x="161" y="644" name="top"/>
  <outline>
    <contour>
      <point x="62" y="0" type="line"/>
      <point x="260" y="0" type="line"/>
      <point x="260" y="669" type="line"/>
      <point x="62" y="646" type="line"/>
    </contour>
    <contour>
      <point x="-2" y="400" type="line"/>
      <point x="360" y="400" type="line"/>
      <point x="380" y="534" type="line"/>
      <point x="-2" y="534" type="line"/>
    </contour>
    <component base="hookHELPER" xScale="-1" xOffset="464"/>
  </outline>
</glyph>
<glyph name="ubar" format="2">
  <advance width="622"/>
  <unicode hex="0289"/>
  <anchor x="311" y="0" name="bottom"/>
  <anchor x="311" y="534" name="top"/>
  <anchor x="562" y="0" name="ogonek"/>
  <anchor x="562" y="534" name="topright"/>
  <outline>
    <contour>
      <point x="-5" y="284" type="line"/>
      <point x="65" y="284" type="line"/>
      <point x="622" y="284" type="line"/>
      <point x="622" y="399" type="line"/>
      <point x="551" y="399" type="line"/>
      <point x="-5" y="399" type="line"/>
    </contour>
    <component base="u" xOffset="28"/>
  </outline>
</glyph>
<glyph name="yturned" format="2">
  <advance width="534"/>
  <unicode hex="028E"/>
  <anchor x="264" y="0" name="bottom"/>
  <anchor x="258" y="744" name="top"/>
  <outline>
    <contour>
      <point x="-15" y="0" type="line"/>
      <point x="189" y="0" type="line"/>
      <point x="272" y="413" type="line"/>
      <point x="339" y="0" type="line"/>
      <point x="549" y="0" type="line"/>
      <point x="397" y="534" type="line"/>
      <point x="324" y="534" type="line"/>
      <point x="348" y="594"/>
      <point x="390" y="623"/>
      <point x="498" y="633" type="curve"/>
      <point x="481" y="762" type="line"/>
      <point x="304" y="757"/>
      <point x="195" y="683"/>
      <point x="149" y="533" type="curve" smooth="yes"/>
    </contour>
  </outline>
</glyph>
<glyph name="Ysmall" format="2">
  <advance width="522"/>
  <unicode hex="028F"/>
  <anchor x="261" y="0" name="bottom"/>
  <anchor x="261" y="534" name="top"/>
  <outline>
    <contour>
      <point x="542" y="534" type="line"/>
      <point x="333" y="534" type="line"/>
      <point x="264" y="321" type="line"/>
      <point x="195" y="534" type="line"/>
      <point x="-20" y="534" type="line"/>
      <point x="162" y="188" type="line"/>
      <point x="162" y="0" type="line"/>
      <point x="360" y="0" type="line"/>
      <point x="360" y="189" type="line"/>
    </contour>
  </outline>
</glyph>
<glyph name="kturned" format="2">
  <advance width="576"/>
  <unicode hex="029E"/>
  <anchor x="268" y="-215" name="bottom"/>
  <anchor x="279" y="534" name="top"/>
  <outline>
    <contour>
      <point x="-7" y="0" type="line"/>
      <point x="189" y="0" type="line"/>
      <point x="332" y="242" type="line"/>
      <point x="204" y="534" type="line"/>
      <point x="-15" y="534" type="line"/>
      <point x="134" y="234" type="line"/>
    </contour>
    <contour>
      <point x="336" y="-207" type="line"/>
      <point x="534" y="-227" type="line"/>
      <point x="534" y="534" type="line"/>
      <point x="336" y="534" type="line"/>
    </contour>
  </outline>
</glyph>
<glyph name="Lsmall" format="2">
  <advance width="459"/>
  <unicode hex="029F"/>
  <anchor x="230" y="0" name="bottom"/>
  <anchor x="141" y="534" name="top"/>
  <outline>
    <contour>
      <point x="240" y="534" type="line"/>
      <point x="42" y="534" type="line"/>
      <point x="42" y="0" type="line"/>
      <point x="434" y="0" type="line"/>
      <point x="454" y="148" type="line"/>
      <point x="240" y="148" type="line"/>
    </contour>
  </outline>
</glyph>
<glyph name="glottalstopstroke" format="2">
  <advance width="500"/>
  <unicode hex="02A1"/>
  <anchor x="224" y="744" name="top"/>
  <anchor x="228" y="0" name="bottom"/>
  <outline>
    <contour>
      <point x="63" y="226" type="line"/>
      <point x="63" y="120" type="line"/>
      <point x="130" y="120" type="line"/>
      <point x="417" y="120" type="line"/>
      <point x="417" y="226" type="line"/>
    </contour>
    <component base="glottalstop"/>
  </outline>
</glyph>
<glyph name="glottalstopstrokereversed" format="2">
  <advance width="500"/>
  <unicode hex="02A2"/>
  <anchor x="280" y="744" name="top"/>
  <anchor x="272" y="0" name="bottom"/>
  <outline>
    <contour>
      <point x="437" y="226" type="line"/>
      <point x="83" y="226" type="line"/>
      <point x="83" y="120" type="line"/>
      <point x="370" y="120" type="line"/>
      <point x="437" y="120" type="line"/>
    </contour>
    <component base="glottalstopreversed"/>
  </outline>
</glyph>
<glyph name="dzaltone" format="2">
  <advance width="1022"/>
  <unicode hex="02A3"/>
  <anchor x="511" y="0" name="bottom"/>
  <anchor x="511" y="744" name="top"/>
  <anchor x="569" y="744" name="topright"/>
  <anchor x="301" y="267" name="center"/>
  <outline>
    <contour>
      <point x="1005" y="534" type="line"/>
      <point x="545" y="534" type="line"/>
      <point x="545" y="390" type="line"/>
      <point x="787" y="390" type="line"/>
      <point x="555" y="133" type="line"/>
      <point x="555" y="0" type="line"/>
      <point x="995" y="0" type="line"/>
      <point x="1012" y="146" type="line"/>
      <point x="776" y="146" type="line"/>
      <point x="1005" y="397" type="line"/>
    </contour>
    <component base="d"/>
  </outline>
</glyph>
<glyph name="circumflex" format="2">
  <advance width="468"/>
  <unicode hex="02C6"/>
  <outline>
    <contour>
      <point x="97" y="612" type="line"/>
      <point x="234" y="708" type="line"/>
      <point x="371" y="612" type="line"/>
      <point x="438" y="689" type="line"/>
      <point x="293" y="840" type="line"/>
      <point x="175" y="840" type="line"/>
      <point x="30" y="689" type="line"/>
    </contour>
  </outline>
</glyph>
<glyph name="caron" format="2">
  <advance width="468"/>
  <unicode hex="02C7"/>
  <outline>
    <contour>
      <point x="371" y="830" type="line"/>
      <point x="234" y="734" type="line"/>
      <point x="97" y="830" type="line"/>
      <point x="30" y="753" type="line"/>
      <point x="175" y="602" type="line"/>
      <point x="293" y="602" type="line"/>
      <point x="438" y="753" type="line"/>
    </contour>
  </outline>
</glyph>
<glyph name="colontriangularhalfmod" format="2">
  <advance width="220"/>
  <unicode hex="02D1"/>
  <outline>
    <contour>
      <point x="98" y="317" type="line"/>
      <point x="120" y="317" type="line"/>
      <point x="203" y="504" type="line"/>
      <point x="17" y="504" type="line"/>
    </contour>
  </outline>
</glyph>
<glyph name="breve" format="2">
  <advance width="430"/>
  <unicode hex="02D8"/>
  <outline>
    <contour>
      <point x="215" y="626" type="curve" smooth="yes"/>
      <point x="335" y="626"/>
      <point x="392" y="720"/>
      <point x="400" y="822" type="curve"/>
      <point x="297" y="839" type="line"/>
      <point x="286" y="792"/>
      <point x="260" y="760"/>
      <point x="215" y="760" type="curve" smooth="yes"/>
      <point x="170" y="760"/>
      <point x="144" y="792"/>
      <point x="133" y="839" type="curve"/>
      <point x="30" y="822" type="line"/>
      <point x="38" y="720"/>
      <point x="95" y="626"/>
    </contour>
  </outline>
</glyph>
<glyph name="lsuperior" format="2">
  <advance width="186"/>
  <unicode hex="02E1"/>
  <outline>
    <contour>
      <point x="108" y="391" type="curve" smooth="yes"/>
      <point x="127" y="391"/>
      <point x="145" y="396"/>
      <point x="156" y="400" type="curve"/>
      <point x="140" y="462" type="line"/>
      <point x="136" y="461"/>
      <point x="132" y="459"/>
      <point x="126" y="459" type="curve" smooth="yes"/>
      <point x="120" y="459"/>
      <point x="117" y="462"/>
      <point x="117" y="469" type="curve" smooth="yes"/>
      <point x="117" y="780" type="line"/>
      <point x="30" y="772" type="line"/>
      <point x="30" y="466" type="line" smooth="yes"/>
      <point x="30" y="413"/>
      <point x="63" y="391"/>
    </contour>
  </outline>
</glyph>
<glyph name="tonebarextralowmod" format="2">
  <advance width="384"/>
  <unicode hex="02E9"/>
  <outline>
    <contour>
      <point x="220" y="696" type="line"/>
      <point x="220" y="118" type="line"/>
      <point x="30" y="118" type="line"/>
      <point x="30" y="0" type="line"/>
      <point x="354" y="0" type="line"/>
      <point x="354" y="696" type="line"/>
    </contour>
  </outline>
</glyph>
<glyph name="gravecomb" format="2">
  <unicode hex="0300"/>
  <anchor x="172" y="534" name="_top"/>
  <anchor x="184" y="856" name="top"/>
  <outline>
    <contour>
      <point x="104" y="856" type="line"/>
      <point x="30" y="712" type="line"/>
      <point x="281" y="613" type="line"/>
      <point x="334" y="712" type="line"/>
    </contour>
  </outline>
</glyph>
<glyph name="acutecomb" format="2">
  <unicode hex="0301"/>
  <anchor x="192" y="534" name="_top"/>
  <anchor x="192" y="856" name="top"/>
  <outline>
    <contour>
      <point x="260" y="856" type="line"/>
      <point x="30" y="712" type="line"/>
      <point x="83" y="613" type="line"/>
      <point x="334" y="712" type="line"/>
    </contour>
  </outline>
</glyph>
<glyph name="circumflexcomb" format="2">
  <unicode hex="0302"/>
  <anchor x="234" y="534" name="_top"/>
  <anchor x="236" y="840" name="top"/>
  <outline>
    <contour>
      <point x="97" y="612" type="line"/>
      <point x="234" y="708" type="line"/>
      <point x="371" y="612" type="line"/>
      <point x="438" y="689" type="line"/>
      <point x="293" y="840" type="line"/>
      <point x="175" y="840" type="line"/>
      <point x="30" y="689" type="line"/>
    </contour>
  </outline>
</glyph>
<glyph name="tildecomb" format="2">
  <unicode hex="0303"/>
  <anchor x="231" y="534" name="_top"/>
  <anchor x="231" y="760" name="top"/>
  <outline>
    <contour>
      <point x="289" y="622" type="curve" smooth="yes"/>
      <point x="357" y="622"/>
      <point x="406" y="685"/>
      <point x="432" y="758" type="curve"/>
      <point x="339" y="803" type="line"/>
      <point x="323" y="775"/>
      <point x="311" y="760"/>
      <point x="287" y="760" type="curve" smooth="yes"/>
      <point x="256" y="760"/>
      <point x="235" y="803"/>
      <point x="171" y="803" type="curve" smooth="yes"/>
      <point x="105" y="803"/>
      <point x="56" y="740"/>
      <point x="30" y="667" type="curve"/>
      <point x="123" y="622" type="line"/>
      <point x="139" y="650"/>
      <point x="151" y="665"/>
      <point x="176" y="665" type="curve" smooth="yes"/>
      <point x="207" y="665"/>
      <point x="228" y="622"/>
    </contour>
  </outline>
</glyph>
<glyph name="macroncomb" format="2">
  <unicode hex="0304"/>
  <anchor x="193" y="534" name="_top"/>
  <anchor x="193" y="750" name="top"/>
  <outline>
    <contour>
      <point x="355" y="648" type="line"/>
      <point x="355" y="782" type="line"/>
      <point x="30" y="782" type="line"/>
      <point x="30" y="648" type="line"/>
    </contour>
  </outline>
</glyph>
<glyph name="brevecomb" format="2">
  <unicode hex="0306"/>
  <anchor x="215" y="534" name="_top"/>
  <anchor x="217" y="839" name="top"/>
  <outline>
    <contour>
      <point x="215" y="626" type="curve" smooth="yes"/>
      <point x="335" y="626"/>
      <point x="392" y="720"/>
      <point x="400" y="822" type="curve"/>
      <point x="297" y="839" type="line"/>
      <point x="286" y="792"/>
      <point x="260" y="760"/>
      <point x="215" y="760" type="curve" smooth="yes"/>
      <point x="170" y="760"/>
      <point x="144" y="792"/>
      <point x="133" y="839" type="curve"/>
      <point x="30" y="822" type="line"/>
      <point x="38" y="720"/>
      <point x="95" y="626"/>
    </contour>
  </outline>
</glyph>
<glyph name="dotaccentcomb" format="2">
  <unicode hex="0307"/>
  <anchor x="139" y="720" name="_center"/>
  <anchor x="141" y="534" name="_top"/>
  <anchor x="143" y="829" name="top"/>
  <outline>
    <contour>
      <point x="141" y="829" type="curve" smooth="yes"/>
      <point x="76" y="829"/>
      <point x="30" y="783"/>
      <point x="30" y="723" type="curve" smooth="yes"/>
      <point x="30" y="663"/>
      <point x="76" y="617"/>
      <point x="141" y="617" type="curve" smooth="yes"/>
      <point x="206" y="617"/>
      <point x="252" y="663"/>
      <point x="252" y="723" type="curve" smooth="yes"/>
      <point x="252" y="783"/>
      <point x="206" y="829"/>
    </contour>
  </outline>
</glyph>
<glyph name="dieresiscomb" format="2">
  <unicode hex="0308"/>
  <anchor x="250" y="534" name="_top"/>
  <anchor x="252" y="818" name="top"/>
  <outline>
    <contour>
      <point x="372" y="818" type="curve" smooth="yes"/>
      <point x="320" y="818"/>
      <point x="277" y="777"/>
      <point x="277" y="726" type="curve" smooth="yes"/>
      <point x="277" y="674"/>
      <point x="320" y="633"/>
      <point x="372" y="633" type="curve" smooth="yes"/>
      <point x="426" y="633"/>
      <point x="467" y="674"/>
      <point x="467" y="726" type="curve" smooth="yes"/>
      <point x="467" y="777"/>
      <point x="426" y="818"/>
    </contour>
    <contour>
      <point x="127" y="818" type="curve" smooth="yes"/>
      <point x="75" y="818"/>
      <point x="32" y="777"/>
      <point x="32" y="726" type="curve" smooth="yes"/>
      <point x="32" y="674"/>
      <point x="75" y="633"/>
      <point x="127" y="633" type="curve" smooth="yes"/>
      <point x="181" y="633"/>
      <point x="222" y="674"/>
      <point x="222" y="726" type="curve" smooth="yes"/>
      <point x="222" y="777"/>
      <point x="181" y="818"/>
    </contour>
  </outline>
</glyph>
<glyph name="hookabovecomb" format="2">
  <unicode hex="0309"/>
  <anchor x="141" y="534" name="_top"/>
  <anchor x="91" y="511" name="_topright"/>
  <anchor x="153" y="856" name="top"/>
  <outline>
    <contour>
      <point x="87" y="601" type="line"/>
      <point x="196" y="601" type="line"/>
      <point x="196" y="650" type="line"/>
      <point x="252" y="661"/>
      <point x="282" y="695"/>
      <point x="282" y="748" type="curve" smooth="yes"/>
      <point x="282" y="810"/>
      <point x="236" y="856"/>
      <point x="148" y="856" type="curve" smooth="yes"/>
      <point x="97" y="856"/>
      <point x="60" y="846"/>
      <point x="30" y="828" type="curve"/>
      <point x="59" y="754" type="line"/>
      <point x="80" y="762"/>
      <point x="96" y="767"/>
      <point x="121" y="767" type="curve" smooth="yes"/>
      <point x="143" y="767"/>
      <point x="158" y="757"/>
      <point x="158" y="739" type="curve" smooth="yes"/>
      <point x="158" y="715"/>
      <point x="138" y="705"/>
      <point x="87" y="704" type="curve"/>
    </contour>
  </outline>
</glyph>
<glyph name="ringcomb" format="2">
  <unicode hex="030A"/>
  <anchor x="184" y="534" name="_top"/>
  <anchor x="186" y="886" name="top"/>
  <outline>
    <contour>
      <point x="184" y="886" type="curve"/>
      <point x="87" y="886"/>
      <point x="30" y="818"/>
      <point x="30" y="740" type="curve" smooth="yes"/>
      <point x="30" y="662"/>
      <point x="87" y="593"/>
      <point x="184" y="593" type="curve" smooth="yes"/>
      <point x="281" y="593"/>
      <point x="338" y="662"/>
      <point x="338" y="740" type="curve" smooth="yes"/>
      <point x="338" y="818"/>
      <point x="281" y="886"/>
    </contour>
    <contour>
      <point x="184" y="786" type="curve" smooth="yes"/>
      <point x="207" y="786"/>
      <point x="224" y="772"/>
      <point x="224" y="740" type="curve" smooth="yes"/>
      <point x="224" y="708"/>
      <point x="207" y="694"/>
      <point x="184" y="694" type="curve"/>
      <point x="161" y="694"/>
      <point x="144" y="708"/>
      <point x="144" y="740" type="curve" smooth="yes"/>
      <point x="144" y="772"/>
      <point x="161" y="786"/>
    </contour>
  </outline>
</glyph>
<glyph name="hungarumlautcomb" format="2">
  <unicode hex="030B"/>
  <anchor x="187" y="534" name="_top"/>
  <outline>
    <contour>
      <point x="316" y="877" type="line"/>
      <point x="212" y="666" type="line"/>
      <point x="308" y="620" type="line"/>
      <point x="439" y="816" type="line"/>
    </contour>
    <contour>
      <point x="126" y="877" type="line"/>
      <point x="30" y="663" type="line"/>
      <point x="128" y="624" type="line"/>
      <point x="251" y="821" type="line"/>
    </contour>
  </outline>
</glyph>
<glyph name="caroncomb" format="2">
  <unicode hex="030C"/>
  <anchor x="234" y="534" name="_top"/>
  <anchor x="236" y="830" name="top"/>
  <outline>
    <contour>
      <point x="371" y="830" type="line"/>
      <point x="234" y="734" type="line"/>
      <point x="97" y="830" type="line"/>
      <point x="30" y="753" type="line"/>
      <point x="175" y="602" type="line"/>
      <point x="293" y="602" type="line"/>
      <point x="438" y="753" type="line"/>
    </contour>
  </outline>
</glyph>
<glyph name="verticallineabovecomb" format="2">
  <unicode hex="030D"/>
  <anchor x="115" y="534" name="_top"/>
  <anchor x="117" y="896" name="top"/>
  <outline>
    <contour>
      <point x="30" y="616" type="line"/>
      <point x="200" y="616" type="line"/>
      <point x="200" y="896" type="line"/>
      <point x="30" y="896" type="line"/>
    </contour>
  </outline>
</glyph>
<glyph name="lefttackbelowcomb" format="2">
  <unicode hex="0318"/>
  <anchor x="142" y="0" name="_bottom"/>
  <anchor x="144" y="-356" name="bottom"/>
  <outline>
    <contour>
      <point x="140" y="-56" type="line"/>
      <point x="140" y="-155" type="line"/>
      <point x="30" y="-155" type="line"/>
      <point x="30" y="-258" type="line"/>
      <point x="140" y="-258" type="line"/>
      <point x="140" y="-356" type="line"/>
      <point x="254" y="-356" type="line"/>
      <point x="254" y="-56" type="line"/>
    </contour>
  </outline>
</glyph>
<glyph name="leftangleabovecomb" format="2">
  <unicode hex="031A"/>
  <anchor x="144" y="534" name="_top"/>
  <anchor x="146" y="815" name="top"/>
  <outline>
    <contour>
      <point x="30" y="815" type="line"/>
      <point x="30" y="715" type="line"/>
      <point x="144" y="715" type="line"/>
      <point x="144" y="596" type="line"/>
      <point x="257" y="596" type="line"/>
      <point x="257" y="815" type="line"/>
    </contour>
  </outline>
</glyph>
<glyph name="horncomb" format="2">
  <unicode hex="031B"/>
  <anchor x="40" y="534" name="_topright"/>
  <anchor x="92" y="534" name="topright"/>
  <outline>
    <contour>
      <point x="30" y="381" type="line"/>
      <point x="130" y="381"/>
      <point x="194" y="424"/>
      <point x="194" y="519" type="curve" smooth="yes"/>
      <point x="194" y="565"/>
      <point x="184" y="592"/>
      <point x="175" y="611" type="curve"/>
      <point x="53" y="596" type="line"/>
      <point x="61" y="576"/>
      <point x="67" y="558"/>
      <point x="67" y="531" type="curve" smooth="yes"/>
      <point x="67" y="492"/>
      <point x="55" y="474"/>
      <point x="20" y="471" type="curve"/>
    </contour>
  </outline>
</glyph>
<glyph name="commaaccentcomb" format="2">
  <unicode hex="0326"/>
  <anchor x="122" y="0" name="_bottom"/>
  <outline>
    <contour>
      <point x="122" y="-62" type="curve" smooth="yes"/>
      <point x="68" y="-62"/>
      <point x="30" y="-104"/>
      <point x="30" y="-153" type="curve" smooth="yes"/>
      <point x="30" y="-187"/>
      <point x="46" y="-211"/>
      <point x="68" y="-228" type="curve"/>
      <point x="43" y="-342" type="line"/>
      <point x="137" y="-342" type="line"/>
      <point x="187" y="-241" type="line" smooth="yes"/>
      <point x="204" y="-206"/>
      <point x="214" y="-184"/>
      <point x="214" y="-153" type="curve" smooth="yes"/>
      <point x="214" y="-101"/>
      <point x="176" y="-62"/>
    </contour>
  </outline>
</glyph>
<glyph name="cedillacomb" format="2">
  <unicode hex="0327"/>
  <anchor x="153" y="0" name="_bottom"/>
  <anchor x="177" y="-275" name="bottom"/>
  <outline>
    <contour>
      <point x="209" y="16" type="line"/>
      <point x="105" y="16" type="line"/>
      <point x="88" y="-120" type="line"/>
      <point x="153" y="-120"/>
      <point x="182" y="-127"/>
      <point x="182" y="-149" type="curve" smooth="yes"/>
      <point x="182" y="-167"/>
      <point x="165" y="-173"/>
      <point x="137" y="-173" type="curve" smooth="yes"/>
      <point x="113" y="-173"/>
      <point x="93" y="-166"/>
      <point x="73" y="-155" type="curve"/>
      <point x="30" y="-241" type="line"/>
      <point x="58" y="-259"/>
      <point x="103" y="-275"/>
      <point x="155" y="-275" type="curve" smooth="yes"/>
      <point x="260" y="-275"/>
      <point x="319" y="-220"/>
      <point x="319" y="-151" type="curve" smooth="yes"/>
      <point x="319" y="-89"/>
      <point x="282" y="-52"/>
      <point x="209" y="-43" type="curve"/>
    </contour>
  </outline>
</glyph>
<glyph name="bridgebelowcomb" format="2">
  <unicode hex="032A"/>
  <anchor x="190" y="0" name="_bottom"/>
  <anchor x="192" y="-259" name="bottom"/>
  <outline>
    <contour>
      <point x="30" y="-259" type="line"/>
      <point x="143" y="-259" type="line"/>
      <point x="143" y="-179" type="line"/>
      <point x="237" y="-179" type="line"/>
      <point x="237" y="-259" type="line"/>
      <point x="350" y="-259" type="line"/>
      <point x="350" y="-85" type="line"/>
      <point x="30" y="-85" type="line"/>
    </contour>
  </outline>
</glyph>
<glyph name="circumflexbelowcomb" format="2">
  <unicode hex="032D"/>
  <anchor x="234" y="0" name="_bottom"/>
  <anchor x="236" y="-288" name="bottom"/>
  <outline>
    <contour>
      <point x="97" y="-288" type="line"/>
      <point x="234" y="-192" type="line"/>
      <point x="371" y="-288" type="line"/>
      <point x="438" y="-211" type="line"/>
      <point x="293" y="-60" type="line"/>
      <point x="175" y="-60" type="line"/>
      <point x="30" y="-211" type="line"/>
    </contour>
  </outline>
</glyph>
<glyph name="squarebelowcomb" format="2">
  <unicode hex="033B"/>
  <anchor x="190" y="0" name="_bottom"/>
  <anchor x="192" y="-258" name="bottom"/>
  <outline>
    <contour>
      <point x="30" y="-258" type="line"/>
      <point x="350" y="-258" type="line"/>
      <point x="350" y="-58" type="line"/>
      <point x="30" y="-58" type="line"/>
    </contour>
    <contour>
      <point x="115" y="-189" type="line"/>
      <point x="115" y="-127" type="line"/>
      <point x="265" y="-127" type="line"/>
      <point x="265" y="-189" type="line"/>
    </contour>
  </outline>
</glyph>
<glyph name="ypogegrammenicomb" format="2">
  <unicode hex="0345"/>
  <anchor x="97" y="0" name="_bottom"/>
  <anchor x="174" y="-212" name="bottom"/>
  <outline>
    <contour>
      <point x="174" y="-212" type="curve" smooth="yes"/>
      <point x="229" y="-212"/>
      <point x="265" y="-196"/>
      <point x="294" y="-173" type="curve"/>
      <point x="249" y="-93" type="line"/>
      <point x="232" y="-102"/>
      <point x="218" y="-107"/>
      <point x="201" y="-107" type="curve" smooth="yes"/>
      <point x="175" y="-107"/>
      <point x="163" y="-92"/>
      <point x="163" y="-67" type="curve" smooth="yes"/>
      <point x="163" y="-44" type="line"/>
      <point x="30" y="-44" type="line"/>
      <point x="30" y="-71" type="line" smooth="yes"/>
      <point x="30" y="-152"/>
      <point x="79" y="-212"/>
    </contour>
  </outline>
</glyph>
<glyph name="tonos" format="2">
  <advance width="302"/>
  <unicode hex="0384"/>
  <anchor x="101" y="534" name="_top"/>
  <outline>
    <contour>
      <point x="78" y="868" type="line"/>
      <point x="40" y="603" type="line"/>
      <point x="166" y="582" type="line"/>
      <point x="267" y="829" type="line"/>
    </contour>
  </outline>
</glyph>
<glyph name="Delta" format="2">
  <advance width="609"/>
  <unicode hex="0394"/>
  <anchor x="304.5" y="0" name="bottom"/>
  <anchor x="304.5" y="696" name="top"/>
  <outline>
    <contour>
      <point x="303" y="549" type="line"/>
      <point x="385" y="146" type="line"/>
      <point x="220" y="146" type="line"/>
    </contour>
    <contour>
      <point x="428" y="696" type="line"/>
      <point x="182" y="696" type="line"/>
      <point x="-25" y="0" type="line"/>
      <point x="634" y="0" type="line"/>
    </contour>
  </outline>
</glyph>
<glyph name="Lambda" format="2">
  <advance width="601"/>
  <unicode hex="039B"/>
  <anchor x="296" y="0" name="bottom"/>
  <anchor x="295" y="696" name="top"/>
  <outline>
    <contour>
      <point x="424" y="696" type="line"/>
      <point x="178" y="696" type="line"/>
      <point x="-25" y="0" type="line"/>
      <point x="190" y="0" type="line"/>
      <point x="299" y="552" type="line"/>
      <point x="408" y="0" type="line"/>
      <point x="626" y="0" type="line"/>
    </contour>
  </outline>
</glyph>
<glyph name="Xi" format="2">
  <advance width="532"/>
  <unicode hex="039E"/>
  <anchor x="266" y="0" name="bottom"/>
  <anchor x="266" y="696" name="top"/>
  <outline>
    <contour>
      <point x="512" y="174" type="line"/>
      <point x="20" y="174" type="line"/>
      <point x="20" y="0" type="line"/>
      <point x="512" y="0" type="line"/>
    </contour>
    <contour>
      <point x="446" y="431" type="line"/>
      <point x="86" y="431" type="line"/>
      <point x="86" y="276" type="line"/>
      <point x="446" y="276" type="line"/>
    </contour>
    <contour>
      <point x="517" y="696" type="line"/>
      <point x="20" y="696" type="line"/>
      <point x="20" y="528" type="line"/>
      <point x="494" y="528" type="line"/>
    </contour>
  </outline>
</glyph>
<glyph name="Psi" format="2">
  <advance width="748"/>
  <unicode hex="03A8"/>
  <anchor x="374" y="0" name="bottom"/>
  <anchor x="374" y="696" name="top"/>
  <outline>
    <contour>
      <point x="292" y="173" type="curve"/>
      <point x="301" y="307" type="line"/>
      <point x="229" y="321"/>
      <point x="206" y="359"/>
      <point x="206" y="422" type="curve" smooth="yes"/>
      <point x="206" y="696" type="line"/>
      <point x="10" y="696" type="line"/>
      <point x="10" y="431" type="line" smooth="yes"/>
      <point x="10" y="287"/>
      <point x="102" y="194"/>
    </contour>
    <contour>
      <point x="447" y="308" type="curve"/>
      <point x="456" y="174" type="line"/>
      <point x="646" y="195"/>
      <point x="738" y="295"/>
      <point x="738" y="431" type="curve" smooth="yes"/>
      <point x="738" y="696" type="line"/>
      <point x="542" y="696" type="line"/>
      <point x="542" y="422" type="line" smooth="yes"/>
      <point x="542" y="361"/>
      <point x="517" y="322"/>
    </contour>
    <contour>
      <point x="477" y="193" type="line"/>
      <point x="467" y="297" type="line"/>
      <point x="467" y="696" type="line"/>
      <point x="281" y="696" type="line"/>
      <point x="281" y="296" type="line"/>
      <point x="271" y="192" type="line"/>
      <point x="271" y="0" type="line"/>
      <point x="477" y="0" type="line"/>
    </contour>
  </outline>
</glyph>
<glyph name="iota" format="2">
  <advance width="281"/>
  <unicode hex="03B9"/>
  <anchor x="140.5" y="0" name="bottom"/>
  <anchor x="136" y="534" name="top"/>
  <outline>
    <contour>
      <point x="235" y="534" type="line"/>
      <point x="37" y="534" type="line"/>
      <point x="37" y="176" type="line" smooth="yes"/>
      <point x="37" y="52"/>
      <point x="106" y="-4"/>
      <point x="220" y="-20" type="curve"/>
      <point x="276" y="121" type="line"/>
      <point x="245" y="137"/>
      <point x="235" y="157"/>
      <point x="235" y="202" type="curve" smooth="yes"/>
    </contour>
  </outline>
</glyph>
<glyph name="KaiSymbol" format="2">
  <advance width="689"/>
  <unicode hex="03CF"/>
  <anchor x="344.5" y="-215" name="bottom"/>
  <anchor x="330" y="696" name="top"/>
  <outline>
    <contour>
      <point x="483" y="154" type="line"/>
      <point x="483" y="0" type="line"/>
      <point x="689" y="0" type="line"/>
      <point x="689" y="154" type="line"/>
    </contour>
    <component base="Kappa"/>
    <component base="hookHELPER.case" xOffset="271"/>
  </outline>
</glyph>
<glyph name="Sampi" format="2">
  <advance width="613"/>
  <unicode hex="03E0"/>
  <anchor x="306.5" y="0" name="bottom"/>
  <anchor x="306.5" y="696" name="top"/>
  <outline>
    <contour>
      <point x="453" y="0" type="line"/>
      <point x="638" y="0" type="line"/>
      <point x="373" y="696" type="line"/>
      <point x="196" y="696" type="line"/>
      <point x="281" y="536" type="line"/>
    </contour>
    <contour>
      <point x="-25" y="0" type="line"/>
      <point x="152" y="0" type="line"/>
      <point x="363" y="666" type="line"/>
      <point x="226" y="646" type="line"/>
    </contour>
    <contour>
      <point x="219" y="0" type="line"/>
      <point x="345" y="0" type="line"/>
      <point x="443" y="389" type="line"/>
      <point x="342" y="395" type="line"/>
    </contour>
  </outline>
</glyph>
<glyph name="sampi" format="2">
  <advance width="672"/>
  <unicode hex="03E1"/>
  <anchor x="336" y="-215" name="bottom"/>
  <anchor x="336" y="744" name="top"/>
  <outline>
    <contour>
      <point x="-20" y="0" type="line"/>
      <point x="157" y="0" type="line"/>
      <point x="427" y="506" type="line"/>
      <point x="290" y="592" type="line"/>
    </contour>
    <contour>
      <point x="215" y="0" type="line"/>
      <point x="388" y="0" type="line"/>
      <point x="541" y="347" type="line"/>
      <point x="430" y="411" type="line"/>
    </contour>
    <contour>
      <point x="459" y="-204" type="curve"/>
      <point x="613" y="-226" type="line"/>
      <point x="637" y="-136"/>
      <point x="655" y="-7"/>
      <point x="655" y="87" type="curve" smooth="yes"/>
      <point x="655" y="469"/>
      <point x="480" y="645"/>
      <point x="119" y="764" type="curve"/>
      <point x="65" y="644" type="line"/>
      <point x="377" y="517"/>
      <point x="490" y="402"/>
      <point x="490" y="82" type="curve" smooth="yes"/>
      <point x="490" y="-18"/>
      <point x="479" y="-110"/>
    </contour>
  </outline>
</glyph>
<glyph name="rhoStrokeSymbol" format="2">
  <advance width="594"/>
  <unicode hex="03FC"/>
  <anchor x="301" y="534" name="top"/>
  <anchor x="297" y="-215" name="bottom"/>
  <outline>
    <contour>
      <point x="-15" y="-46" type="line"/>
      <point x="-15" y="-152" type="line"/>
      <point x="37" y="-152" type="line"/>
      <point x="359" y="-152" type="line"/>
      <point x="359" y="-46" type="line"/>
    </contour>
    <component base="rho"/>
  </outline>
</glyph>
<glyph name="Tshe-cy" format="2">
  <advance width="770"/>
  <unicode hex="040B"/>
  <anchor x="450.5" y="696.0" name="top"/>
  <anchor x="760" y="0" name="bottomright"/>
  <anchor x="450.5" y="0.0" name="bottom"/>
  <outline>
    <contour>
      <point x="559" y="696" type="line"/>
      <point x="5" y="696" type="line"/>
      <point x="5" y="546" type="line"/>
      <point x="538" y="546" type="line"/>
    </contour>
    <component base="Shha-cy" xOffset="131"/>
  </outline>
</glyph>
<glyph name="Ge-cy" format="2">
  <advance width="511"/>
  <unicode hex="0413"/>
  <anchor x="146" y="0" name="bottom"/>
  <anchor x="259" y="0" name="bottomright"/>
  <anchor x="286" y="696" name="top"/>
  <outline>
    <contour>
      <point x="43" y="696" type="line"/>
      <point x="43" y="0" type="line"/>
      <point x="249" y="0" type="line"/>
      <point x="249" y="584" type="line"/>
    </contour>
    <contour>
      <point x="516" y="696" type="line"/>
      <point x="43" y="696" type="line"/>
      <point x="233" y="538" type="line"/>
      <point x="496" y="538" type="line"/>
    </contour>
  </outline>
</glyph>
<glyph name="Ii-cy" format="2">
  <advance width="651"/>
  <unicode hex="0418"/>
  <anchor x="325.5" y="0" name="bottom"/>
  <anchor x="618" y="0" name="bottomright"/>
  <anchor x="326" y="696" name="top"/>
  <outline>
    <contour>
      <point x="608" y="696" type="line"/>
      <point x="369" y="696" type="line"/>
      <point x="214" y="200" type="line"/>
      <point x="228" y="272"/>
      <point x="244" y="348"/>
      <point x="244" y="475" type="curve" smooth="yes"/>
      <point x="244" y="696" type="line"/>
      <point x="43" y="696" type="line"/>
      <point x="43" y="0" type="line"/>
      <point x="287" y="0" type="line"/>
      <point x="437" y="501" type="line"/>
      <point x="422" y="432"/>
      <point x="407" y="342"/>
      <point x="407" y="213" type="curve" smooth="yes"/>
      <point x="407" y="0" type="line"/>
      <point x="608" y="0" type="line"/>
    </contour>
  </outline>
</glyph>
<glyph name="Ka-cy" format="2">
  <advance width="644"/>
  <unicode hex="041A"/>
  <anchor x="322" y="0" name="bottom"/>
  <anchor x="589" y="0" name="bottomright"/>
  <anchor x="322" y="696" name="top"/>
  <outline>
    <contour>
      <point x="641" y="696" type="line"/>
      <point x="443" y="696" type="line"/>
      <point x="314" y="433" type="line"/>
      <point x="249" y="433" type="line"/>
      <point x="249" y="696" type="line"/>
      <point x="43" y="696" type="line"/>
      <point x="43" y="0" type="line"/>
      <point x="249" y="0" type="line"/>
      <point x="249" y="288" type="line"/>
      <point x="309" y="288" type="line"/>
      <point x="438" y="0" type="line"/>
      <point x="659" y="0" type="line"/>
      <point x="482" y="387" type="line"/>
    </contour>
  </outline>
</glyph>
<glyph name="Pe-cy" format="2">
  <advance width="657"/>
  <unicode hex="041F"/>
  <anchor x="328.5" y="0" name="bottom"/>
  <anchor x="624" y="0" name="bottomright"/>
  <anchor x="328.5" y="696" name="top"/>
  <outline>
    <contour>
      <point x="614" y="696" type="line"/>
      <point x="43" y="696" type="line"/>
      <point x="43" y="0" type="line"/>
      <point x="249" y="0" type="line"/>
      <point x="249" y="542" type="line"/>
      <point x="408" y="542" type="line"/>
      <point x="408" y="0" type="line"/>
      <point x="614" y="0" type="line"/>
    </contour>
  </outline>
</glyph>
<glyph name="U-cy" format="2">
  <advance width="599"/>
  <unicode hex="0423"/>
  <anchor x="299.5" y="0" name="bottom"/>
  <anchor x="300" y="696" name="top"/>
  <outline>
    <contour>
      <point x="624" y="696" type="line"/>
      <point x="416" y="696" type="line"/>
      <point x="312" y="293" type="line"/>
      <point x="192" y="696" type="line"/>
      <point x="-20" y="696" type="line"/>
      <point x="188" y="180" type="line"/>
      <point x="250" y="180" type="line"/>
      <point x="217" y="137"/>
      <point x="174" y="121"/>
      <point x="90" y="115" type="curve"/>
      <point x="116" y="-20" type="line"/>
      <point x="291" y="-9"/>
      <point x="382" y="39"/>
      <point x="448" y="219" type="curve" smooth="yes"/>
    </contour>
  </outline>
</glyph>
<glyph name="Hardsign-cy" format="2">
  <advance width="732"/>
  <unicode hex="042A"/>
  <anchor x="429" y="696" name="top"/>
  <anchor x="429" y="0" name="bottom"/>
  <outline>
    <contour>
      <point x="169" y="546" type="line"/>
      <point x="375" y="696" type="line"/>
      <point x="0" y="696" type="line"/>
      <point x="0" y="546" type="line"/>
    </contour>
    <component base="Softsign-cy" xOffset="126"/>
  </outline>
</glyph>
<glyph name="ge-cy" format="2">
  <advance width="436"/>
  <unicode hex="0433"/>
  <anchor x="141" y="0" name="bottom"/>
  <anchor x="250" y="0" name="bottomright"/>
  <anchor x="244" y="534" name="top"/>
  <outline>
    <contour>
      <point x="240" y="0" type="line"/>
      <point x="240" y="387" type="line"/>
      <point x="423" y="387" type="line"/>
      <point x="446" y="534" type="line"/>
      <point x="42" y="534" type="line"/>
      <point x="42" y="0" type="line"/>
    </contour>
  </outline>
</glyph>
<glyph name="de-cy" format="2">
  <advance width="553"/>
  <unicode hex="0434"/>
  <anchor x="276.5" y="-215" name="bottom"/>
  <anchor x="276.5" y="534" name="top"/>
  <outline>
    <contour>
      <point x="31" y="142" type="curve"/>
      <point x="155" y="135" type="line"/>
      <point x="223" y="158"/>
      <point x="253" y="221"/>
      <point x="268" y="379" type="curve"/>
      <point x="271" y="410" type="line"/>
      <point x="324" y="410" type="line"/>
      <point x="324" y="142" type="line"/>
      <point x="31" y="142" type="line"/>
      <point x="31" y="0" type="line"/>
      <point x="506" y="0" type="line"/>
      <point x="506" y="534" type="line"/>
      <point x="104" y="534" type="line"/>
      <point x="89" y="363" type="line" smooth="yes"/>
      <point x="74" y="196"/>
      <point x="57" y="162"/>
    </contour>
    <component base="descStraight-cy" xOffset="321"/>
    <component base="descStraight-cy" xScale="-1" xOffset="242"/>
  </outline>
</glyph>
<glyph name="zhe-cy" format="2">
  <advance width="781"/>
  <unicode hex="0436"/>
  <anchor x="390.5" y="0" name="bottom"/>
  <anchor x="716" y="0" name="bottomright"/>
  <anchor x="391" y="534" name="top"/>
  <outline>
    <contour>
      <point x="778" y="534" type="line"/>
      <point x="597" y="534" type="line"/>
      <point x="512" y="329" type="line"/>
      <point x="475" y="329" type="line"/>
      <point x="475" y="534" type="line"/>
      <point x="306" y="534" type="line"/>
      <point x="306" y="329" type="line"/>
      <point x="269" y="329" type="line"/>
      <point x="185" y="534" type="line"/>
      <point x="3" y="534" type="line"/>
      <point x="119" y="286" type="line"/>
      <point x="-5" y="0" type="line"/>
      <point x="191" y="0" type="line"/>
      <point x="272" y="219" type="line"/>
      <point x="306" y="219" type="line"/>
      <point x="306" y="0" type="line"/>
      <point x="475" y="0" type="line"/>
      <point x="475" y="219" type="line"/>
      <point x="509" y="219" type="line"/>
      <point x="589" y="0" type="line"/>
      <point x="786" y="0" type="line"/>
      <point x="662" y="286" type="line"/>
    </contour>
  </outline>
</glyph>
<glyph name="ka-cy" format="2">
  <advance width="566"/>
  <unicode hex="043A"/>
  <anchor x="283" y="0" name="bottom"/>
  <anchor x="506" y="0" name="bottomright"/>
  <anchor x="283" y="534" name="top"/>
  <outline>
    <contour>
      <point x="568" y="534" type="line"/>
      <point x="385" y="534" type="line"/>
      <point x="282" y="329" type="line"/>
      <point x="240" y="329" type="line"/>
      <point x="240" y="534" type="line"/>
      <point x="42" y="534" type="line"/>
      <point x="42" y="0" type="line"/>
      <point x="240" y="0" type="line"/>
      <point x="240" y="219" type="line"/>
      <point x="277" y="219" type="line"/>
      <point x="374" y="0" type="line"/>
      <point x="576" y="0" type="line"/>
      <point x="439" y="286" type="line"/>
    </contour>
  </outline>
</glyph>
<glyph name="en-cy" format="2">
  <advance width="582"/>
  <unicode hex="043D"/>
  <anchor x="291" y="0" name="bottom"/>
  <anchor x="550" y="0" name="bottomright"/>
  <anchor x="291" y="534" name="top"/>
  <outline>
    <contour>
      <point x="342" y="0" type="line"/>
      <point x="540" y="0" type="line"/>
      <point x="540" y="534" type="line"/>
      <point x="342" y="534" type="line"/>
      <point x="342" y="341" type="line"/>
      <point x="240" y="341" type="line"/>
      <point x="240" y="534" type="line"/>
      <point x="42" y="534" type="line"/>
      <point x="42" y="0" type="line"/>
      <point x="240" y="0" type="line"/>
      <point x="240" y="199" type="line"/>
      <point x="342" y="199" type="line"/>
    </contour>
  </outline>
</glyph>
<glyph name="pe-cy" format="2">
  <advance width="578"/>
  <unicode hex="043F"/>
  <anchor x="289" y="0" name="bottom"/>
  <anchor x="546" y="0" name="bottomright"/>
  <anchor x="289" y="534" name="top"/>
  <outline>
    <contour>
      <point x="338" y="0" type="line"/>
      <point x="536" y="0" type="line"/>
      <point x="536" y="534" type="line"/>
      <point x="42" y="534" type="line"/>
      <point x="42" y="0" type="line"/>
      <point x="240" y="0" type="line"/>
      <point x="240" y="391" type="line"/>
      <point x="338" y="391" type="line"/>
    </contour>
  </outline>
</glyph>
<glyph name="te-cy" format="2">
  <advance width="485"/>
  <unicode hex="0442"/>
  <anchor x="242.5" y="0" name="bottom"/>
  <anchor x="352" y="0" name="bottomright"/>
  <anchor x="242.5" y="534" name="top"/>
  <outline>
    <contour>
      <point x="495" y="534" type="line"/>
      <point x="0" y="534" type="line"/>
      <point x="0" y="391" type="line"/>
      <point x="144" y="391" type="line"/>
      <point x="144" y="0" type="line"/>
      <point x="342" y="0" type="line"/>
      <point x="342" y="391" type="line"/>
      <point x="470" y="391" type="line"/>
    </contour>
  </outline>
</glyph>
<glyph name="che-cy" format="2">
  <advance width="550"/>
  <unicode hex="0447"/>
  <anchor x="275" y="0" name="bottom"/>
  <anchor x="300" y="0" name="bottomleft"/>
  <anchor x="518" y="0" name="bottomright"/>
  <anchor x="262" y="534" name="top"/>
  <outline>
    <contour>
      <point x="321" y="194" type="curve"/>
      <point x="321" y="314" type="line"/>
      <point x="305" y="298"/>
      <point x="278" y="284"/>
      <point x="249" y="284" type="curve" smooth="yes"/>
      <point x="228" y="284"/>
      <point x="213" y="294"/>
      <point x="213" y="336" type="curve" smooth="yes"/>
      <point x="213" y="534" type="line"/>
      <point x="15" y="534" type="line"/>
      <point x="15" y="310" type="line" smooth="yes"/>
      <point x="15" y="208"/>
      <point x="61" y="140"/>
      <point x="167" y="140" type="curve" smooth="yes"/>
      <point x="229" y="140"/>
      <point x="283" y="162"/>
    </contour>
    <contour>
      <point x="310" y="534" type="line"/>
      <point x="310" y="0" type="line"/>
      <point x="508" y="0" type="line"/>
      <point x="508" y="534" type="line"/>
    </contour>
  </outline>
</glyph>
<glyph name="sha-cy" format="2">
  <advance width="773"/>
  <unicode hex="0448"/>
  <anchor x="386.5" y="0" name="bottom"/>
  <anchor x="741" y="0" name="bottomright"/>
  <anchor x="386.5" y="534" name="top"/>
  <outline>
    <contour>
      <point x="731" y="534" type="line"/>
      <point x="543" y="534" type="line"/>
      <point x="543" y="142" type="line"/>
      <point x="468" y="142" type="line"/>
      <point x="468" y="534" type="line"/>
      <point x="305" y="534" type="line"/>
      <point x="305" y="142" type="line"/>
      <point x="230" y="142" type="line"/>
      <point x="230" y="534" type="line"/>
      <point x="42" y="534" type="line"/>
      <point x="42" y="0" type="line"/>
      <point x="731" y="0" type="line"/>
    </contour>
  </outline>
</glyph>
<glyph name="yeru-cy" format="2">
  <advance width="778"/>
  <unicode hex="044B"/>
  <anchor x="389" y="0" name="bottom"/>
  <anchor x="389" y="534" name="top"/>
  <outline>
    <contour>
      <point x="736" y="534" type="line"/>
      <point x="538" y="534" type="line"/>
      <point x="538" y="0" type="line"/>
      <point x="736" y="0" type="line"/>
    </contour>
    <contour>
      <point x="224" y="371" type="line"/>
      <point x="224" y="251" type="line"/>
      <point x="245" y="251" type="line" smooth="yes"/>
      <point x="294" y="251"/>
      <point x="312" y="229"/>
      <point x="312" y="188" type="curve" smooth="yes"/>
      <point x="312" y="149"/>
      <point x="294" y="123"/>
      <point x="253" y="123" type="curve" smooth="yes"/>
      <point x="240" y="123" type="line"/>
      <point x="240" y="534" type="line"/>
      <point x="42" y="534" type="line"/>
      <point x="42" y="0" type="line"/>
      <point x="275" y="0" type="line" smooth="yes"/>
      <point x="418" y="0"/>
      <point x="511" y="64"/>
      <point x="511" y="184" type="curve" smooth="yes"/>
      <point x="511" y="309"/>
      <point x="430" y="371"/>
      <point x="248" y="371" type="curve" smooth="yes"/>
    </contour>
  </outline>
</glyph>
<glyph name="iu-cy" format="2">
  <advance width="820"/>
  <unicode hex="044E"/>
  <anchor x="410" y="0" name="bottom"/>
  <anchor x="410" y="534" name="top"/>
  <outline>
    <contour>
      <point x="546" y="554" type="curve"/>
      <point x="384" y="554"/>
      <point x="297" y="442"/>
      <point x="289" y="268" type="curve"/>
      <point x="289" y="249" type="line"/>
      <point x="303" y="75"/>
      <point x="392" y="-20"/>
      <point x="546" y="-20" type="curve"/>
      <point x="698" y="-20"/>
      <point x="803" y="92"/>
      <point x="803" y="266" type="curve" smooth="yes"/>
      <point x="803" y="454"/>
      <point x="696" y="554"/>
    </contour>
    <contour>
      <point x="240" y="534" type="line"/>
      <point x="42" y="534" type="line"/>
      <point x="42" y="0" type="line"/>
      <point x="240" y="0" type="line"/>
      <point x="240" y="205" type="line"/>
      <point x="307" y="205" type="line"/>
      <point x="308" y="335" type="line"/>
      <point x="240" y="335" type="line"/>
    </contour>
    <contour>
      <point x="546" y="412" type="curve"/>
      <point x="589" y="412"/>
      <point x="605" y="372"/>
      <point x="605" y="266" type="curve" smooth="yes"/>
      <point x="605" y="165"/>
      <point x="589" y="122"/>
      <point x="546" y="122" type="curve"/>
      <point x="503" y="122"/>
      <point x="487" y="162"/>
      <point x="487" y="268" type="curve" smooth="yes"/>
      <point x="487" y="369"/>
      <point x="503" y="412"/>
    </contour>
  </outline>
</glyph>
<glyph name="yat-cy" format="2">
  <advance width="536"/>
  <unicode hex="0463"/>
  <anchor x="268" y="0" name="bottom"/>
  <anchor x="161" y="664" name="top"/>
  <outline>
    <contour>
      <point x="0" y="454" type="line"/>
      <point x="367" y="454" type="line"/>
      <point x="382" y="560" type="line"/>
      <point x="52" y="560" type="line"/>
      <point x="0" y="560" type="line"/>
    </contour>
    <contour>
      <point x="250" y="123" type="line"/>
      <point x="250" y="684" type="line"/>
      <point x="52" y="664" type="line"/>
      <point x="52" y="0" type="line"/>
      <point x="295" y="0" type="line" smooth="yes"/>
      <point x="438" y="0"/>
      <point x="531" y="64"/>
      <point x="531" y="184" type="curve" smooth="yes"/>
      <point x="531" y="309"/>
      <point x="450" y="371"/>
      <point x="268" y="371" type="curve" smooth="yes"/>
      <point x="234" y="371" type="line"/>
      <point x="234" y="251" type="line"/>
      <point x="265" y="251" type="line" smooth="yes"/>
      <point x="314" y="251"/>
      <point x="332" y="229"/>
      <point x="332" y="188" type="curve" smooth="yes"/>
      <point x="332" y="149"/>
      <point x="314" y="123"/>
      <point x="273" y="123" type="curve" smooth="yes"/>
    </contour>
  </outline>
</glyph>
<glyph name="Yuslittleiotified-cy" format="2">
  <advance width="964"/>
  <unicode hex="0468"/>
  <anchor x="482" y="0" name="bottom"/>
  <anchor x="482" y="696" name="top"/>
  <outline>
    <contour>
      <point x="474" y="239" type="line"/>
      <point x="474" y="382" type="line"/>
      <point x="249" y="382" type="line"/>
      <point x="249" y="694" type="line"/>
      <point x="43" y="694" type="line"/>
      <point x="43" y="-2" type="line"/>
      <point x="249" y="-2" type="line"/>
      <point x="249" y="239" type="line"/>
    </contour>
    <component base="Yuslittle-cy" xOffset="285"/>
  </outline>
</glyph>
<glyph name="Gheupturn-cy" format="2">
  <advance width="511"/>
  <unicode hex="0490"/>
  <anchor x="286" y="696" name="top"/>
  <anchor x="259" y="0" name="bottomright"/>
  <anchor x="146" y="0" name="bottom"/>
  <outline>
    <contour>
      <point x="328" y="686" type="line"/>
      <point x="516" y="696" type="line"/>
      <point x="516" y="854" type="line"/>
      <point x="328" y="854" type="line"/>
    </contour>
    <component base="Ge-cy"/>
  </outline>
</glyph>
<glyph name="gheupturn-cy" format="2">
  <advance width="436"/>
  <unicode hex="0491"/>
  <anchor x="244" y="534" name="top"/>
  <anchor x="250" y="0" name="bottomright"/>
  <anchor x="141" y="0" name="bottom"/>
  <outline>
    <contour>
      <point x="271" y="524" type="line"/>
      <point x="446" y="534" type="line"/>
      <point x="446" y="696" type="line"/>
      <point x="271" y="696" type="line"/>
    </contour>
    <component base="ge-cy"/>
  </outline>
</glyph>
<glyph name="ghestroke-cy" format="2">
  <advance width="446"/>
  <unicode hex="0493"/>
  <anchor x="254" y="534" name="top"/>
  <anchor x="260" y="0" name="bottomright"/>
  <anchor x="151" y="0" name="bottom"/>
  <outline>
    <contour>
      <point x="355" y="309" type="line"/>
      <point x="52" y="309" type="line"/>
      <point x="0" y="309" type="line"/>
      <point x="0" y="209" type="line"/>
      <point x="355" y="209" type="line"/>
    </contour>
    <component base="ge-cy" xOffset="10"/>
  </outline>
</glyph>
<glyph name="kaverticalstroke-cy" format="2">
  <advance width="571"/>
  <unicode hex="049D"/>
  <anchor x="285.5" y="0" name="bottom"/>
  <anchor x="285.5" y="534" name="top"/>
  <outline>
    <contour>
      <point x="568" y="534" type="line"/>
      <point x="382" y="534" type="line"/>
      <point x="303" y="319" type="line"/>
      <point x="227" y="319" type="line"/>
      <point x="227" y="534" type="line"/>
      <point x="42" y="534" type="line"/>
      <point x="42" y="0" type="line"/>
      <point x="227" y="0" type="line"/>
      <point x="227" y="229" type="line"/>
      <point x="304" y="229" type="line"/>
      <point x="371" y="0" type="line"/>
      <point x="576" y="0" type="line"/>
      <point x="457" y="286" type="line"/>
    </contour>
    <contour>
      <point x="296" y="435" type="line"/>
      <point x="249" y="435" type="line"/>
      <point x="249" y="115" type="line"/>
      <point x="296" y="115" type="line"/>
    </contour>
  </outline>
</glyph>
<glyph name="Kabashkir-cy" format="2">
  <advance width="770"/>
  <unicode hex="04A0"/>
  <anchor x="448" y="696" name="top"/>
  <anchor x="715" y="0" name="bottomright"/>
  <anchor x="448" y="0" name="bottom"/>
  <outline>
    <contour>
      <point x="355" y="696" type="line"/>
      <point x="0" y="696" type="line"/>
      <point x="0" y="546" type="line"/>
      <point x="189" y="546" type="line"/>
    </contour>
    <component base="Ka-cy" xOffset="126"/>
  </outline>
</glyph>
<glyph name="kabashkir-cy" format="2">
  <advance width="663"/>
  <unicode hex="04A1"/>
  <anchor x="380" y="534" name="top"/>
  <anchor x="603" y="0" name="bottomright"/>
  <anchor x="380" y="0" name="bottom"/>
  <outline>
    <contour>
      <point x="139" y="395" type="line"/>
      <point x="337" y="534" type="line"/>
      <point x="-5" y="534" type="line"/>
      <point x="-5" y="395" type="line"/>
    </contour>
    <component base="ka-cy" xOffset="97"/>
  </outline>
</glyph>
<glyph name="Enghe-cy" format="2">
  <advance width="793"/>
  <unicode hex="04A4"/>
  <anchor x="43" y="696" name="topleft"/>
  <anchor x="329" y="696" name="top"/>
  <anchor x="329" y="348" name="center"/>
  <anchor x="624" y="0" name="bottomright"/>
  <anchor x="329" y="0" name="bottom"/>
  <outline>
    <contour>
      <point x="428" y="696" type="line"/>
      <point x="594" y="546" type="line"/>
      <point x="773" y="546" type="line"/>
      <point x="793" y="696" type="line"/>
    </contour>
    <component base="H"/>
  </outline>
</glyph>
<glyph name="enghe-cy" format="2">
  <advance width="689"/>
  <unicode hex="04A5"/>
  <anchor x="291" y="534" name="top"/>
  <anchor x="550" y="0" name="bottomright"/>
  <anchor x="291" y="0" name="bottom"/>
  <outline>
    <contour>
      <point x="540" y="395" type="line"/>
      <point x="670" y="395" type="line"/>
      <point x="694" y="534" type="line"/>
      <point x="342" y="534" type="line"/>
    </contour>
    <component base="en-cy"/>
  </outline>
</glyph>
<glyph name="Pemiddlehook-cy" format="2">
  <advance width="1004"/>
  <unicode hex="04A6"/>
  <anchor x="502" y="-215" name="bottom"/>
  <anchor x="502" y="696" name="top"/>
  <anchor x="624" y="0" name="bottomright"/>
  <outline>
    <contour>
      <point x="757" y="481" type="curve" smooth="yes"/>
      <point x="693" y="481"/>
      <point x="645" y="461"/>
      <point x="602" y="424" type="curve"/>
      <point x="603" y="298" type="line"/>
      <point x="626" y="320"/>
      <point x="654" y="335"/>
      <point x="699" y="335" type="curve" smooth="yes"/>
      <point x="755" y="335"/>
      <point x="778" y="302"/>
      <point x="778" y="225" type="curve" smooth="yes"/>
      <point x="778" y="0" type="line"/>
      <point x="984" y="0" type="line"/>
      <point x="984" y="225" type="line" smooth="yes"/>
      <point x="984" y="383"/>
      <point x="905" y="481"/>
    </contour>
    <component base="Pe-cy"/>
    <component base="hookHELPER.case" xOffset="566"/>
  </outline>
</glyph>
<glyph name="Ustraitstroke-cy" format="2">
  <advance width="620"/>
  <unicode hex="04B0"/>
  <anchor x="-10" y="696" name="topleft"/>
  <anchor x="310" y="696" name="top"/>
  <anchor x="310" y="0" name="bottom"/>
  <outline>
    <contour>
      <point x="522" y="320" type="line"/>
      <point x="208" y="320" type="line"/>
      <point x="99" y="320" type="line"/>
      <point x="99" y="214" type="line"/>
      <point x="413" y="214" type="line"/>
      <point x="522" y="214" type="line"/>
    </contour>
    <component base="Y"/>
  </outline>
</glyph>
<glyph name="ustraitstroke-cy" format="2">
  <advance width="526"/>
  <unicode hex="04B1"/>
  <anchor x="263" y="534" name="top"/>
  <anchor x="263" y="-215" name="bottom"/>
  <outline>
    <contour>
      <point x="167" y="-10" type="line"/>
      <point x="359" y="-10" type="line"/>
      <point x="451" y="-10" type="line"/>
      <point x="451" y="90" type="line"/>
      <point x="75" y="90" type="line"/>
      <point x="75" y="-10" type="line"/>
    </contour>
    <component base="ustrait-cy"/>
  </outline>
</glyph>
<glyph name="Tetse-cy" format="2">
  <advance width="830"/>
  <unicode hex="04B4"/>
  <anchor x="415" y="-215" name="bottom"/>
  <anchor x="415" y="696" name="top"/>
  <anchor x="750" y="0" name="bottomright"/>
  <outline>
    <contour>
      <point x="490" y="696" type="line"/>
      <point x="5" y="696" type="line"/>
      <point x="5" y="546" type="line"/>
      <point x="174" y="546" type="line"/>
      <point x="380" y="546" type="line"/>
      <point x="469" y="546" type="line"/>
    </contour>
    <component base="Tse-cy" xOffset="131"/>
  </outline>
</glyph>
<glyph name="tetse-cy" format="2">
  <advance width="717"/>
  <unicode hex="04B5"/>
  <anchor x="358.5" y="-215" name="bottom"/>
  <anchor x="358.5" y="534" name="top"/>
  <anchor x="642" y="0" name="bottomright"/>
  <outline>
    <contour>
      <point x="405" y="534" type="line"/>
      <point x="0" y="534" type="line"/>
      <point x="0" y="395" type="line"/>
      <point x="144" y="395" type="line"/>
      <point x="342" y="395" type="line"/>
      <point x="380" y="395" type="line"/>
    </contour>
    <component base="tse-cy" xOffset="102"/>
  </outline>
</glyph>
<glyph name="Cheverticalstroke-cy" format="2">
  <advance width="623"/>
  <unicode hex="04B8"/>
  <anchor x="293" y="696" name="top"/>
  <anchor x="354" y="0" name="bottomleft"/>
  <anchor x="590" y="0" name="bottomright"/>
  <anchor x="311.5" y="0.0" name="bottom"/>
  <outline>
    <contour>
      <point x="334" y="555" type="line"/>
      <point x="268" y="555" type="line"/>
      <point x="268" y="125" type="line"/>
      <point x="334" y="125" type="line"/>
    </contour>
    <component base="Che-cy"/>
  </outline>
</glyph>
<glyph name="cheverticalstroke-cy" format="2">
  <advance width="550"/>
  <unicode hex="04B9"/>
  <anchor x="262" y="534" name="top"/>
  <anchor x="300" y="0" name="bottomleft"/>
  <anchor x="518" y="0" name="bottomright"/>
  <anchor x="275" y="0" name="bottom"/>
  <outline>
    <contour>
      <point x="284" y="402" type="line"/>
      <point x="237" y="402" type="line"/>
      <point x="237" y="82" type="line"/>
      <point x="284" y="82" type="line"/>
    </contour>
    <component base="che-cy"/>
  </outline>
</glyph>
<glyph name="shha-cy" format="2">
  <advance width="567"/>
  <unicode hex="04BB"/>
  <anchor x="283.5" y="0" name="bottom"/>
  <anchor x="545" y="0" name="bottomright"/>
  <anchor x="283.5" y="744" name="top"/>
  <outline>
    <contour>
      <point x="240" y="0" type="line"/>
      <point x="240" y="764" type="line"/>
      <point x="42" y="744" type="line"/>
      <point x="42" y="0" type="line"/>
    </contour>
    <contour>
      <point x="391" y="494" type="curve" smooth="yes"/>
      <point x="321" y="494"/>
      <point x="267" y="467"/>
      <point x="220" y="399" type="curve"/>
      <point x="240" y="302" type="line"/>
      <point x="263" y="333"/>
      <point x="286" y="350"/>
      <point x="307" y="350" type="curve" smooth="yes"/>
      <point x="325" y="350"/>
      <point x="337" y="340"/>
      <point x="337" y="298" type="curve"/>
      <point x="337" y="0" type="line"/>
      <point x="535" y="0" type="line"/>
      <point x="535" y="334" type="line" smooth="yes"/>
      <point x="535" y="436"/>
      <point x="480" y="494"/>
    </contour>
  </outline>
</glyph>
<glyph name="chekhakassian-cy" format="2">
  <advance width="550"/>
  <unicode hex="04CC"/>
  <anchor x="275" y="-215" name="bottom"/>
  <anchor x="275" y="534" name="top"/>
  <outline>
    <contour>
      <point x="321" y="220" type="curve"/>
      <point x="321" y="340" type="line"/>
      <point x="305" y="324"/>
      <point x="278" y="310"/>
      <point x="249" y="310" type="curve" smooth="yes"/>
      <point x="228" y="310"/>
      <point x="213" y="320"/>
      <point x="213" y="362" type="curve" smooth="yes"/>
      <point x="213" y="534" type="line"/>
      <point x="15" y="534" type="line"/>
      <point x="15" y="336" type="line" smooth="yes"/>
      <point x="15" y="234"/>
      <point x="61" y="166"/>
      <point x="167" y="166" type="curve" smooth="yes"/>
      <point x="229" y="166"/>
      <point x="283" y="188"/>
    </contour>
    <contour>
      <point x="310" y="534" type="line"/>
      <point x="310" y="0" type="line"/>
      <point x="508" y="0" type="line"/>
      <point x="508" y="534" type="line"/>
    </contour>
    <contour>
      <point x="235" y="132" type="line"/>
      <point x="235" y="-175" type="line"/>
      <point x="365" y="-175" type="line"/>
      <point x="385" y="0" type="line"/>
      <point x="425" y="0" type="line"/>
      <point x="447" y="132" type="line"/>
    </contour>
  </outline>
</glyph>
<glyph name="Obarred-cy" format="2">
  <advance width="690"/>
  <unicode hex="04E8"/>
  <anchor x="345" y="0" name="bottom"/>
  <anchor x="345" y="696" name="top"/>
  <outline>
    <contour>
      <point x="345" y="716" type="curve" smooth="yes"/>
      <point x="136" y="716"/>
      <point x="20" y="575"/>
      <point x="20" y="349" type="curve" smooth="yes"/>
      <point x="20" y="118"/>
      <point x="136" y="-20"/>
      <point x="345" y="-20" type="curve" smooth="yes"/>
      <point x="554" y="-20"/>
      <point x="670" y="123"/>
      <point x="670" y="349" type="curve" smooth="yes"/>
      <point x="670" y="580"/>
      <point x="554" y="716"/>
    </contour>
    <contour>
      <point x="345" y="570" type="curve" smooth="yes"/>
      <point x="423" y="570"/>
      <point x="461" y="510"/>
      <point x="461" y="349" type="curve" smooth="yes"/>
      <point x="461" y="188"/>
      <point x="425" y="126"/>
      <point x="345" y="126" type="curve" smooth="yes"/>
      <point x="267" y="126"/>
      <point x="229" y="188"/>
      <point x="229" y="349" type="curve" smooth="yes"/>
      <point x="229" y="510"/>
      <point x="267" y="570"/>
    </contour>
    <contour>
      <point x="559" y="404" type="line"/>
      <point x="131" y="404" type="line"/>
      <point x="130" y="298" type="line"/>
      <point x="559" y="298" type="line"/>
    </contour>
  </outline>
</glyph>
<glyph name="obarred-cy" format="2">
  <advance width="584"/>
  <unicode hex="04E9"/>
  <anchor x="293" y="0" name="bottom"/>
  <anchor x="292" y="534" name="top"/>
  <outline>
    <contour>
      <point x="292" y="554" type="curve" smooth="yes"/>
      <point x="122" y="554"/>
      <point x="17" y="442"/>
      <point x="17" y="268" type="curve" smooth="yes"/>
      <point x="17" y="82"/>
      <point x="124" y="-20"/>
      <point x="292" y="-20" type="curve" smooth="yes"/>
      <point x="462" y="-20"/>
      <point x="567" y="92"/>
      <point x="567" y="266" type="curve" smooth="yes"/>
      <point x="567" y="452"/>
      <point x="460" y="554"/>
    </contour>
    <contour>
      <point x="292" y="412" type="curve" smooth="yes"/>
      <point x="348" y="412"/>
      <point x="370" y="372"/>
      <point x="370" y="266" type="curve" smooth="yes"/>
      <point x="370" y="165"/>
      <point x="348" y="122"/>
      <point x="292" y="122" type="curve" smooth="yes"/>
      <point x="236" y="122"/>
      <point x="214" y="162"/>
      <point x="214" y="268" type="curve" smooth="yes"/>
      <point x="214" y="369"/>
      <point x="236" y="412"/>
    </contour>
    <contour>
      <point x="389" y="321" type="line"/>
      <point x="197" y="321" type="line"/>
      <point x="196" y="221" type="line"/>
      <point x="390" y="221" type="line"/>
    </contour>
  </outline>
</glyph>
<glyph name="Gestrokehook-cy" format="2">
  <advance width="521"/>
  <unicode hex="04FA"/>
  <anchor x="296" y="696" name="top"/>
  <anchor x="269" y="0" name="bottomright"/>
  <anchor x="156" y="0" name="bottom"/>
  <outline>
    <contour>
      <point x="53" y="154" type="line"/>
      <point x="53" y="0" type="line"/>
      <point x="344" y="0" type="line"/>
      <point x="344" y="154" type="line"/>
    </contour>
    <component base="Ghestroke-cy"/>
    <component base="hookHELPER.case" xOffset="-74"/>
  </outline>
</glyph>
<glyph name="gestrokehook-cy" format="2">
  <advance width="446"/>
  <unicode hex="04FB"/>
  <anchor x="223" y="-215" name="bottom"/>
  <anchor x="223" y="534" name="top"/>
  <anchor x="260" y="0" name="bottomright"/>
  <outline>
    <contour>
      <point x="72" y="142" type="line"/>
      <point x="72" y="0" type="line"/>
      <point x="335" y="0" type="line"/>
      <point x="335" y="142" type="line"/>
    </contour>
    <component base="ghestroke-cy"/>
    <component base="hookHELPER" xOffset="-67"/>
  </outline>
</glyph>
<glyph name="Hahook-cy" format="2">
  <advance width="636"/>
  <unicode hex="04FC"/>
  <anchor x="303" y="696" name="top"/>
  <anchor x="546" y="0" name="bottomright"/>
  <anchor x="303" y="0" name="bottom"/>
  <outline>
    <contour>
      <point x="430" y="154" type="line"/>
      <point x="430" y="0" type="line"/>
      <point x="636" y="0" type="line"/>
      <point x="636" y="154" type="line"/>
    </contour>
    <component base="hookHELPER.case" xOffset="218"/>
    <component base="X"/>
  </outline>
</glyph>
<glyph name="Lha-cy" format="2">
  <advance width="899"/>
  <unicode hex="0514"/>
  <anchor x="449.5" y="0" name="bottom"/>
  <anchor x="449.5" y="696" name="top"/>
  <anchor x="839" y="0" name="bottomright"/>
  <outline>
    <contour>
      <point x="43" y="-20" type="line"/>
      <point x="212" y="14"/>
      <point x="266" y="141"/>
      <point x="282" y="348" type="curve" smooth="yes"/>
      <point x="298" y="555" type="line"/>
      <point x="121" y="696" type="line"/>
      <point x="93" y="364" type="line" smooth="yes"/>
      <point x="80" y="207"/>
      <point x="66" y="150"/>
      <point x="-5" y="120" type="curve"/>
    </contour>
    <contour>
      <point x="278" y="548" type="line"/>
      <point x="421" y="548" type="line"/>
      <point x="421" y="696" type="line"/>
      <point x="121" y="696" type="line"/>
    </contour>
    <component base="X" xOffset="293"/>
  </outline>
</glyph>
<glyph name="lha-cy" format="2">
  <advance width="806"/>
  <unicode hex="0515"/>
  <anchor x="403" y="0" name="bottom"/>
  <anchor x="403" y="534" name="top"/>
  <anchor x="756" y="0" name="bottomright"/>
  <outline>
    <contour>
      <point x="87" y="534" type="line"/>
      <point x="242" y="397" type="line"/>
      <point x="446" y="397" type="line"/>
      <point x="446" y="534" type="line"/>
    </contour>
    <contour>
      <point x="260" y="397" type="line"/>
      <point x="87" y="534" type="line"/>
      <point x="77" y="324" type="line" smooth="yes"/>
      <point x="70" y="167"/>
      <point x="59" y="157"/>
      <point x="0" y="127" type="curve"/>
      <point x="48" y="-13" type="line"/>
      <point x="219" y="20"/>
      <point x="245" y="101"/>
      <point x="256" y="317" type="curve" smooth="yes"/>
    </contour>
    <component base="x" xOffset="278"/>
  </outline>
</glyph>
<glyph name="rha-cy" format="2">
  <advance width="868"/>
  <unicode hex="0517"/>
  <anchor x="434" y="-215" name="bottom"/>
  <anchor x="434" y="534" name="top"/>
  <outline>
    <contour>
      <point x="870" y="534" type="line"/>
      <point x="687" y="534" type="line"/>
      <point x="559" y="303" type="line"/>
      <point x="559" y="212" type="line"/>
      <point x="676" y="0" type="line"/>
      <point x="878" y="0" type="line"/>
      <point x="721" y="272" type="line"/>
    </contour>
    <component base="p"/>
  </outline>
</glyph>
<glyph name="Aleutka-cy" format="2">
  <advance width="644"/>
  <unicode hex="051E"/>
  <anchor x="322" y="696" name="top"/>
  <anchor x="589" y="0" name="bottomright"/>
  <anchor x="322" y="0" name="bottom"/>
  <outline>
    <contour>
      <point x="282" y="567" type="line"/>
      <point x="605" y="420" type="line"/>
      <point x="644" y="505" type="line"/>
      <point x="321" y="652" type="line"/>
    </contour>
    <component base="Ka-cy"/>
  </outline>
</glyph>
<glyph name="aleutka-cy" format="2">
  <advance width="566"/>
  <unicode hex="051F"/>
  <anchor x="283" y="0" name="bottom"/>
  <anchor x="283" y="534" name="top"/>
  <anchor x="506" y="0" name="bottomright"/>
  <outline>
    <contour>
      <point x="255" y="417" type="line"/>
      <point x="527" y="293" type="line"/>
      <point x="563" y="370" type="line"/>
      <point x="291" y="494" type="line"/>
    </contour>
    <component base="ka-cy"/>
  </outline>
</glyph>
<glyph name="Elmiddlehook-cy" format="2">
  <advance width="1000"/>
  <unicode hex="0520"/>
  <anchor x="500" y="-215" name="bottom"/>
  <anchor x="500" y="696" name="top"/>
  <anchor x="620" y="0" name="bottomright"/>
  <outline>
    <contour>
      <point x="753" y="481" type="curve" smooth="yes"/>
      <point x="689" y="481"/>
      <point x="641" y="461"/>
      <point x="598" y="424" type="curve"/>
      <point x="599" y="298" type="line"/>
      <point x="622" y="320"/>
      <point x="650" y="335"/>
      <point x="695" y="335" type="curve" smooth="yes"/>
      <point x="751" y="335"/>
      <point x="774" y="302"/>
      <point x="774" y="225" type="curve" smooth="yes"/>
      <point x="774" y="0" type="line"/>
      <point x="980" y="0" type="line"/>
      <point x="980" y="225" type="line" smooth="yes"/>
      <point x="980" y="383"/>
      <point x="901" y="481"/>
    </contour>
    <component base="El-cy"/>
    <component base="hookHELPER.case" xOffset="562"/>
  </outline>
</glyph>
<glyph name="elmiddlehook-cy" format="2">
  <advance width="840"/>
  <unicode hex="0521"/>
  <anchor x="420" y="-215" name="bottom"/>
  <anchor x="420" y="534" name="top"/>
  <anchor x="535" y="0" name="bottomright"/>
  <outline>
    <contour>
      <point x="622" y="0" type="line"/>
      <point x="820" y="0" type="line"/>
      <point x="820" y="194" type="line" smooth="yes"/>
      <point x="820" y="296"/>
      <point x="765" y="354"/>
      <point x="676" y="354" type="curve" smooth="yes"/>
      <point x="606" y="354"/>
      <point x="555" y="327"/>
      <point x="501" y="274" type="curve"/>
      <point x="525" y="172" type="line"/>
      <point x="548" y="196"/>
      <point x="571" y="210"/>
      <point x="592" y="210" type="curve" smooth="yes"/>
      <point x="610" y="210"/>
      <point x="622" y="200"/>
      <point x="622" y="158" type="curve" smooth="yes"/>
    </contour>
    <component base="el-cy"/>
    <component base="hookHELPER" xOffset="418"/>
  </outline>
</glyph>
<glyph name="enmiddlehook-cy" format="2">
  <advance width="855"/>
  <unicode hex="0523"/>
  <anchor x="427.5" y="-215" name="bottom"/>
  <anchor x="427.5" y="534" name="top"/>
  <anchor x="550" y="0" name="bottomright"/>
  <outline>
    <contour>
      <point x="637" y="0" type="line"/>
      <point x="835" y="0" type="line"/>
      <point x="835" y="194" type="line" smooth="yes"/>
      <point x="835" y="296"/>
      <point x="780" y="354"/>
      <point x="691" y="354" type="curve" smooth="yes"/>
      <point x="621" y="354"/>
      <point x="570" y="327"/>
      <point x="516" y="274" type="curve"/>
      <point x="540" y="172" type="line"/>
      <point x="563" y="196"/>
      <point x="586" y="210"/>
      <point x="607" y="210" type="curve" smooth="yes"/>
      <point x="625" y="210"/>
      <point x="637" y="200"/>
      <point x="637" y="158" type="curve" smooth="yes"/>
    </contour>
    <component base="en-cy"/>
    <component base="hookHELPER" xOffset="433"/>
  </outline>
</glyph>
<glyph name="uni1D6C" format="2">
  <advance width="679"/>
  <unicode hex="1D6C"/>
  <anchor x="407" y="744" name="top"/>
  <anchor x="393" y="0" name="bottom"/>
  <outline>
    <contour>
      <point x="323" y="570" type="curve"/>
      <point x="396" y="570"/>
      <point x="435" y="621"/>
      <point x="451" y="685" type="curve"/>
      <point x="372" y="713" type="line"/>
      <point x="366" y="702"/>
      <point x="355" y="685"/>
      <point x="323" y="675" type="curve"/>
      <point x="258" y="688"/>
      <point x="193" y="700"/>
      <point x="128" y="713" type="curve"/>
      <point x="55" y="713"/>
      <point x="16" y="662"/>
      <point x="0" y="598" type="curve"/>
      <point x="79" y="570" type="line"/>
      <point x="85" y="581"/>
      <point x="96" y="598"/>
      <point x="128" y="608" type="curve"/>
      <point x="193" y="595"/>
      <point x="258" y="583"/>
    </contour>
    <component base="b" xOffset="85"/>
  </outline>
</glyph>
<glyph name="uni1D6D" format="2">
  <advance width="681"/>
  <unicode hex="1D6D"/>
  <anchor x="291" y="744" name="top"/>
  <anchor x="296" y="267" name="center"/>
  <anchor x="564" y="744" name="topright"/>
  <anchor x="303" y="0" name="bottom"/>
  <outline>
    <contour>
      <point x="553" y="570" type="curve"/>
      <point x="626" y="570"/>
      <point x="665" y="621"/>
      <point x="681" y="685" type="curve"/>
      <point x="602" y="713" type="line"/>
      <point x="596" y="702"/>
      <point x="585" y="685"/>
      <point x="553" y="675" type="curve"/>
      <point x="488" y="688"/>
      <point x="423" y="700"/>
      <point x="358" y="713" type="curve"/>
      <point x="285" y="713"/>
      <point x="246" y="662"/>
      <point x="230" y="598" type="curve"/>
      <point x="309" y="570" type="line"/>
      <point x="315" y="581"/>
      <point x="326" y="598"/>
      <point x="358" y="608" type="curve"/>
      <point x="423" y="595"/>
      <point x="488" y="583"/>
    </contour>
    <component base="d" xOffset="-5"/>
  </outline>
</glyph>
<glyph name="acutemacron" format="2">
  <advance width="546"/>
  <unicode hex="1DC7"/>
  <anchor x="273" y="534" name="_top"/>
  <anchor x="275" y="792" name="top"/>
  <outline>
    <contour>
      <point x="120" y="564" type="line"/>
      <point x="291" y="658" type="line"/>
      <point x="226" y="792" type="line"/>
      <point x="55" y="652" type="line"/>
    </contour>
    <contour>
      <point x="214" y="658" type="line"/>
      <point x="491" y="658" type="line"/>
      <point x="491" y="792" type="line"/>
      <point x="226" y="792" type="line"/>
    </contour>
  </outline>
</glyph>
<glyph name="acutegraveacute" format="2">
  <advance width="521"/>
  <unicode hex="1DC9"/>
  <anchor x="261" y="534" name="_top"/>
  <anchor x="263" y="808" name="top"/>
  <outline>
    <contour>
      <point x="313" y="623" type="line"/>
      <point x="491" y="721" type="line"/>
      <point x="430" y="808" type="line"/>
      <point x="313" y="727" type="line"/>
      <point x="185" y="808" type="line"/>
      <point x="30" y="698" type="line"/>
      <point x="68" y="633" type="line"/>
      <point x="186" y="688" type="line"/>
    </contour>
  </outline>
</glyph>
<glyph name="psilioxia" format="2">
  <advance width="455"/>
  <unicode hex="1FCE"/>
  <anchor x="196" y="534" name="_top"/>
  <outline>
    <contour>
      <point x="273" y="855" type="line"/>
      <point x="228" y="594" type="line"/>
      <point x="336" y="573" type="line"/>
      <point x="432" y="816" type="line"/>
    </contour>
    <component base="psili" xOffset="10"/>
  </outline>
</glyph>
<glyph name="psiliperispomeni" format="2">
  <advance width="462"/>
  <unicode hex="1FCF"/>
  <anchor x="211" y="534" name="_top"/>
  <anchor x="427" y="981" name="_topleft"/>
  <anchor x="213" y="1000" name="top"/>
  <outline>
    <contour>
      <point x="159" y="583" type="line"/>
      <point x="246" y="583" type="line"/>
      <point x="273" y="631" type="line" smooth="yes"/>
      <point x="293" y="666"/>
      <point x="303" y="688"/>
      <point x="303" y="719" type="curve" smooth="yes"/>
      <point x="303" y="771"/>
      <point x="265" y="810"/>
      <point x="211" y="810" type="curve" smooth="yes"/>
      <point x="157" y="810"/>
      <point x="119" y="768"/>
      <point x="119" y="719" type="curve" smooth="yes"/>
      <point x="119" y="685"/>
      <point x="135" y="661"/>
      <point x="169" y="644" type="curve"/>
    </contour>
    <component base="perispomeni" xOffset="-20" yOffset="197"/>
  </outline>
</glyph>
<glyph name="dasiaperispomeni" format="2">
  <advance width="462"/>
  <unicode hex="1FDF"/>
  <anchor x="211" y="534" name="_top"/>
  <anchor x="427" y="981" name="_topleft"/>
  <anchor x="213" y="1000" name="top"/>
  <outline>
    <contour>
      <point x="263" y="583" type="line"/>
      <point x="255" y="644" type="line"/>
      <point x="287" y="661"/>
      <point x="303" y="685"/>
      <point x="303" y="719" type="curve" smooth="yes"/>
      <point x="303" y="768"/>
      <point x="265" y="810"/>
      <point x="211" y="810" type="curve" smooth="yes"/>
      <point x="157" y="810"/>
      <point x="119" y="771"/>
      <point x="119" y="719" type="curve" smooth="yes"/>
      <point x="119" y="688"/>
      <point x="129" y="666"/>
      <point x="149" y="631" type="curve" smooth="yes"/>
      <point x="176" y="583" type="line"/>
    </contour>
    <component base="perispomeni" xOffset="-20" yOffset="197"/>
  </outline>
</glyph>
<glyph name="emdash" format="2">
  <advance width="800"/>
  <unicode hex="2014"/>
  <outline>
    <contour>
      <point x="15" y="238" type="line"/>
      <point x="785" y="238" type="line"/>
      <point x="785" y="388" type="line"/>
      <point x="15" y="388" type="line"/>
    </contour>
  </outline>
</glyph>
<glyph name="daggerdbl" format="2">
  <advance width="540"/>
  <unicode hex="2021"/>
  <outline>
    <contour>
      <point x="525" y="295" type="line"/>
      <point x="15" y="295" type="line"/>
      <point x="15" y="136" type="line"/>
      <point x="525" y="136" type="line"/>
    </contour>
    <component base="dagger"/>
  </outline>
</glyph>
<glyph name="bullet" format="2">
  <advance width="360"/>
  <unicode hex="2022"/>
  <outline>
    <contour>
      <point x="180" y="495" type="curve" smooth="yes"/>
      <point x="92" y="495"/>
      <point x="26" y="430"/>
      <point x="26" y="342" type="curve" smooth="yes"/>
      <point x="26" y="255"/>
      <point x="92" y="188"/>
      <point x="180" y="188" type="curve" smooth="yes"/>
      <point x="268" y="188"/>
      <point x="334" y="253"/>
      <point x="334" y="341" type="curve" smooth="yes"/>
      <point x="334" y="429"/>
      <point x="268" y="495"/>
    </contour>
  </outline>
</glyph>
<glyph name="fraction" format="2">
  <advance width="191"/>
  <unicode hex="2044"/>
  <outline>
    <contour>
      <point x="247" y="764" type="line"/>
      <point x="-167" y="-35" type="line"/>
      <point x="-56" y="-90" type="line"/>
      <point x="358" y="709" type="line"/>
    </contour>
  </outline>
</glyph>
<glyph name="drachma" format="2">
  <advance width="1343"/>
  <unicode hex="20AF"/>
  <anchor x="1050" y="534" name="top"/>
  <anchor x="1046" y="-215" name="bottom"/>
  <outline>
    <contour>
      <point x="124" y="0" type="line"/>
      <point x="385" y="0" type="line" smooth="yes"/>
      <point x="574" y="0"/>
      <point x="738" y="73"/>
      <point x="738" y="347" type="curve" smooth="yes"/>
      <point x="738" y="627"/>
      <point x="559" y="686"/>
      <point x="373" y="686" type="curve" smooth="yes"/>
      <point x="220" y="686" type="line"/>
      <point x="221" y="543" type="line"/>
      <point x="398" y="543" type="line" smooth="yes"/>
      <point x="481" y="543"/>
      <point x="526" y="499"/>
      <point x="526" y="347" type="curve" smooth="yes"/>
      <point x="526" y="193"/>
      <point x="485" y="145"/>
      <point x="397" y="145" type="curve" smooth="yes"/>
      <point x="325" y="145" type="line"/>
    </contour>
    <contour>
      <point x="124" y="0" type="line"/>
      <point x="325" y="145" type="line"/>
      <point x="391" y="182"/>
      <point x="402" y="219"/>
      <point x="402" y="269" type="curve" smooth="yes"/>
      <point x="402" y="479" type="line"/>
      <point x="208" y="481" type="line"/>
      <point x="208" y="249" type="line" smooth="yes"/>
      <point x="208" y="196"/>
      <point x="206" y="159"/>
      <point x="124" y="138" type="curve"/>
    </contour>
    <component base="rho" xOffset="749"/>
    <component base="hookaboveHELPER2.case" yOffset="-10"/>
  </outline>
</glyph>
<glyph name="rightBlackSmallTriangle" format="2">
  <advance width="500"/>
  <unicode hex="25B8"/>
  <outline>
    <contour>
      <point x="98" y="99" type="line"/>
      <point x="434" y="315" type="line"/>
      <point x="98" y="530" type="line"/>
    </contour>
  </outline>
</glyph>
<glyph name="leftBlackTriangle" format="2">
  <advance width="878"/>
  <unicode hex="25C0"/>
  <outline>
    <contour>
      <point x="760" y="-33" type="line"/>
      <point x="760" y="737" type="line"/>
      <point x="86" y="352" type="line"/>
    </contour>
  </outline>
</glyph>
<glyph name="zNotationSpot" format="2">
  <advance width="627"/>
  <unicode hex="2981"/>
  <outline>
    <contour>
      <point x="314" y="63" type="curve" smooth="yes"/>
      <point x="452" y="63"/>
      <point x="564" y="175"/>
      <point x="564" y="313" type="curve" smooth="yes"/>
      <point x="564" y="451"/>
      <point x="452" y="563"/>
      <point x="314" y="563" type="curve" smooth="yes"/>
      <point x="176" y="563"/>
      <point x="64" y="451"/>
      <point x="64" y="313" type="curve" smooth="yes"/>
      <point x="64" y="175"/>
      <point x="176" y="63"/>
    </contour>
  </outline>
</glyph>
<glyph name="uniA7AD" format="2">
  <advance width="650"/>
  <unicode hex="A7AD"/>
  <anchor x="274" y="696" name="top"/>
  <anchor x="531" y="404" name="center"/>
  <anchor x="387" y="696" name="topright"/>
  <anchor x="395" y="0" name="bottom"/>
  <outline>
    <contour>
      <point x="172" y="248" type="curve"/>
      <point x="369" y="252" type="line"/>
      <point x="420" y="254"/>
      <point x="464" y="260"/>
      <point x="510" y="269" type="curve"/>
      <point x="497" y="370" type="line"/>
      <point x="448" y="362"/>
      <point x="414" y="359"/>
      <point x="369" y="357" type="curve"/>
      <point x="172" y="353" type="line"/>
      <point x="138" y="353"/>
      <point x="118" y="364"/>
      <point x="118" y="390" type="curve" smooth="yes"/>
      <point x="118" y="406"/>
      <point x="128" y="417"/>
      <point x="146" y="417" type="curve" smooth="yes"/>
      <point x="154" y="417"/>
      <point x="163" y="416"/>
      <point x="172" y="414" type="curve"/>
      <point x="177" y="506" type="line"/>
      <point x="165" y="509"/>
      <point x="149" y="512"/>
      <point x="131" y="512" type="curve" smooth="yes"/>
      <point x="51" y="512"/>
      <point x="-5" y="469"/>
      <point x="-5" y="388" type="curve" smooth="yes"/>
      <point x="-5" y="309"/>
      <point x="48" y="251"/>
    </contour>
    <component base="L" xOffset="128"/>
  </outline>
</glyph>
<glyph name="Iotaafrican.sc" format="2">
  <advance width="400"/>
  <anchor x="200" y="0" name="bottom"/>
  <anchor x="132" y="571" name="top"/>
  <outline>
    <contour>
      <point x="231" y="571" type="line"/>
      <point x="33" y="571" type="line"/>
      <point x="33" y="209" type="line"/>
      <point x="231" y="209" type="line"/>
    </contour>
    <component base="hookHELPER" xScale="-1" xOffset="435" yOffset="209"/>
  </outline>
</glyph>
<glyph name="Nhookleft.ss01" format="2">
  <advance width="643"/>
  <anchor x="321.5" y="-215" name="bottom"/>
  <anchor x="321.5" y="696" name="top"/>
  <outline>
    <contour>
      <point x="428" y="716" type="curve" smooth="yes"/>
      <point x="340" y="716"/>
      <point x="289" y="689"/>
      <point x="225" y="626" type="curve"/>
      <point x="249" y="514" type="line"/>
      <point x="282" y="550"/>
      <point x="310" y="567"/>
      <point x="349" y="567" type="curve" smooth="yes"/>
      <point x="385" y="567"/>
      <point x="399" y="547"/>
      <point x="399" y="505" type="curve" smooth="yes"/>
      <point x="399" y="0" type="line"/>
      <point x="605" y="0" type="line"/>
      <point x="605" y="536" type="line" smooth="yes"/>
      <point x="605" y="638"/>
      <point x="547" y="716"/>
    </contour>
    <contour>
      <point x="224" y="696" type="line"/>
      <point x="43" y="696" type="line"/>
      <point x="43" y="0" type="line"/>
      <point x="249" y="0" type="line"/>
      <point x="249" y="597" type="line"/>
    </contour>
    <component base="hookHELPER.case" xOffset="-169"/>
  </outline>
</glyph>
<glyph name="Rtail.sc.ss01" format="2">
  <advance width="425"/>
  <anchor x="212.5" y="-215" name="bottom"/>
  <anchor x="212.5" y="571" name="top"/>
  <outline>
    <contour>
      <point x="214" y="571" type="line"/>
      <point x="43" y="571" type="line"/>
      <point x="43" y="0" type="line"/>
      <point x="241" y="0" type="line"/>
      <point x="241" y="302" type="line"/>
      <point x="232" y="454" type="line"/>
    </contour>
    <contour>
      <point x="367" y="583" type="curve" smooth="yes"/>
      <point x="303" y="583"/>
      <point x="245" y="538"/>
      <point x="218" y="449" type="curve"/>
      <point x="235" y="255" type="line"/>
      <point x="252" y="333"/>
      <point x="271" y="391"/>
      <point x="341" y="391" type="curve" smooth="yes"/>
      <point x="358" y="391"/>
      <point x="373" y="388"/>
      <point x="390" y="383" type="curve"/>
      <point x="421" y="574" type="line"/>
      <point x="402" y="580"/>
      <point x="388" y="583"/>
    </contour>
    <component base="hookHELPER" xScale="-1" xOffset="445"/>
  </outline>
</glyph>
<glyph name="TseHelper-cy" format="2">
  <advance width="652"/>
  <anchor x="327" y="0" name="bottom"/>
  <anchor x="619" y="0" name="bottomright"/>
  <outline>
    <contour>
      <point x="609" y="0" type="line"/>
      <point x="609" y="696" type="line"/>
      <point x="403" y="696" type="line"/>
      <point x="403" y="158" type="line"/>
      <point x="249" y="158" type="line"/>
      <point x="249" y="696" type="line"/>
      <point x="43" y="696" type="line"/>
      <point x="43" y="0" type="line"/>
    </contour>
  </outline>
</glyph>
<glyph name="a.sc" format="2">
  <advance width="528"/>
  <anchor x="263" y="0" name="bottom"/>
  <anchor x="464" y="0" name="ogonek"/>
  <anchor x="264" y="571" name="top"/>
  <outline>
    <contour>
      <point x="381" y="571" type="line"/>
      <point x="148" y="571" type="line"/>
      <point x="-25" y="0" type="line"/>
      <point x="181" y="0" type="line"/>
      <point x="262" y="440" type="line"/>
      <point x="345" y="0" type="line"/>
      <point x="553" y="0" type="line"/>
    </contour>
    <contour>
      <point x="343" y="236" type="line"/>
      <point x="181" y="236" type="line"/>
      <point x="155" y="101" type="line"/>
      <point x="370" y="101" type="line"/>
    </contour>
  </outline>
</glyph>
<glyph name="acute.sc.loclPLK" format="2">
  <advance width="374"/>
  <anchor x="179" y="571" name="_top"/>
  <outline>
    <contour>
      <point x="191" y="876" type="line"/>
      <point x="100" y="679" type="line"/>
      <point x="187" y="631" type="line"/>
      <point x="335" y="798" type="line"/>
    </contour>
  </outline>
</glyph>
<glyph name="acutecomb.case" format="2">
  <anchor x="182" y="696" name="_top"/>
  <anchor x="184" y="984" name="top"/>
  <outline>
    <contour>
      <point x="261" y="984" type="line"/>
      <point x="30" y="848" type="line"/>
      <point x="80" y="749" type="line"/>
      <point x="334" y="840" type="line"/>
    </contour>
  </outline>
</glyph>
<glyph name="acutedbl" format="2">
  <advance width="324"/>
  <anchor x="102" y="534" name="_top"/>
  <anchor x="25" y="534" name="_topright"/>
  <outline>
    <contour>
      <point x="170" y="844" type="line"/>
      <point x="30" y="658" type="line"/>
      <point x="103" y="593" type="line"/>
      <point x="274" y="742" type="line"/>
    </contour>
  </outline>
</glyph>
<glyph name="ae.sc" format="2">
  <advance width="762"/>
  <anchor x="381" y="0" name="bottom"/>
  <anchor x="424" y="571" name="top"/>
  <outline>
    <contour>
      <point x="713" y="571" type="line"/>
      <point x="204" y="571" type="line"/>
      <point x="-30" y="0" type="line"/>
      <point x="185" y="0" type="line"/>
      <point x="320" y="433" type="line"/>
      <point x="373" y="0" type="line"/>
      <point x="742" y="0" type="line"/>
      <point x="742" y="135" type="line"/>
      <point x="540" y="135" type="line"/>
      <point x="490" y="437" type="line"/>
      <point x="693" y="437" type="line"/>
    </contour>
    <contour>
      <point x="356" y="236" type="line"/>
      <point x="244" y="236" type="line"/>
      <point x="202" y="101" type="line"/>
      <point x="375" y="101" type="line"/>
    </contour>
    <contour>
      <point x="705" y="354" type="line"/>
      <point x="489" y="354" type="line"/>
      <point x="511" y="224" type="line"/>
      <point x="705" y="224" type="line"/>
    </contour>
  </outline>
</glyph>
<glyph name="aleutka-cy.sc" format="2">
  <advance width="605"/>
  <anchor x="325" y="571" name="top"/>
  <anchor x="549" y="0" name="bottomright"/>
  <anchor x="302.5" y="0.0" name="bottom"/>
  <outline>
    <contour>
      <point x="259" y="477" type="line"/>
      <point x="540" y="316" type="line"/>
      <point x="579" y="388" type="line"/>
      <point x="299" y="549" type="line"/>
    </contour>
    <component base="ka-cy.sc"/>
  </outline>
</glyph>
<glyph name="archaicsampi.sc" format="2">
  <advance width="593"/>
  <anchor x="296.5" y="0" name="bottom"/>
  <anchor x="296.5" y="571" name="top"/>
  <outline>
    <contour>
      <point x="198" y="0" type="line"/>
      <point x="395" y="0" type="line"/>
      <point x="395" y="439" type="line"/>
      <point x="588" y="439" type="line"/>
      <point x="588" y="571" type="line"/>
      <point x="5" y="571" type="line"/>
      <point x="5" y="439" type="line"/>
      <point x="198" y="439" type="line"/>
    </contour>
    <contour>
      <point x="447" y="294" type="line"/>
      <point x="588" y="294" type="line"/>
      <point x="588" y="473" type="line"/>
      <point x="447" y="473" type="line"/>
    </contour>
    <contour>
      <point x="5" y="294" type="line"/>
      <point x="146" y="294" type="line"/>
      <point x="146" y="473" type="line"/>
      <point x="5" y="473" type="line"/>
    </contour>
  </outline>
</glyph>
<glyph name="be-cy.sc" format="2">
  <advance width="549"/>
  <anchor x="274.5" y="0" name="bottom"/>
  <anchor x="274.5" y="571" name="top"/>
  <outline>
    <contour>
      <point x="240" y="563" type="line"/>
      <point x="43" y="571" type="line"/>
      <point x="43" y="0" type="line"/>
      <point x="300" y="0" type="line" smooth="yes"/>
      <point x="437" y="0"/>
      <point x="539" y="70"/>
      <point x="539" y="196" type="curve" smooth="yes"/>
      <point x="539" y="318"/>
      <point x="450" y="380"/>
      <point x="291" y="380" type="curve" smooth="yes"/>
      <point x="226" y="380" type="line"/>
      <point x="226" y="251" type="line"/>
      <point x="266" y="251" type="line" smooth="yes"/>
      <point x="320" y="251"/>
      <point x="335" y="222"/>
      <point x="335" y="195" type="curve" smooth="yes"/>
      <point x="335" y="168"/>
      <point x="318" y="136"/>
      <point x="270" y="136" type="curve" smooth="yes"/>
      <point x="240" y="136" type="line"/>
    </contour>
    <contour>
      <point x="463" y="571" type="line"/>
      <point x="43" y="571" type="line"/>
      <point x="226" y="431" type="line"/>
      <point x="445" y="431" type="line"/>
    </contour>
  </outline>
</glyph>
<glyph name="breve-cy" format="2">
  <advance width="430"/>
  <anchor x="215" y="534" name="_top"/>
  <outline>
    <contour>
      <point x="215" y="626" type="curve" smooth="yes"/>
      <point x="335" y="626"/>
      <point x="392" y="702"/>
      <point x="400" y="802" type="curve"/>
      <point x="297" y="819" type="line"/>
      <point x="286" y="777"/>
      <point x="260" y="760"/>
      <point x="215" y="760" type="curve" smooth="yes"/>
      <point x="170" y="760"/>
      <point x="144" y="777"/>
      <point x="133" y="819" type="curve"/>
      <point x="30" y="802" type="line"/>
      <point x="38" y="702"/>
      <point x="95" y="626"/>
    </contour>
  </outline>
</glyph>
<glyph name="cedilla.case.ALT" format="2">
  <advance width="349"/>
  <anchor x="160" y="0" name="_bottom"/>
  <outline>
    <contour>
      <point x="209" y="16" type="line"/>
      <point x="105" y="16" type="line"/>
      <point x="88" y="-120" type="line"/>
      <point x="153" y="-120"/>
      <point x="182" y="-127"/>
      <point x="182" y="-149" type="curve" smooth="yes"/>
      <point x="182" y="-167"/>
      <point x="165" y="-173"/>
      <point x="137" y="-173" type="curve" smooth="yes"/>
      <point x="113" y="-173"/>
      <point x="93" y="-166"/>
      <point x="73" y="-155" type="curve"/>
      <point x="30" y="-241" type="line"/>
      <point x="58" y="-259"/>
      <point x="103" y="-275"/>
      <point x="155" y="-275" type="curve" smooth="yes"/>
      <point x="260" y="-275"/>
      <point x="319" y="-220"/>
      <point x="319" y="-151" type="curve" smooth="yes"/>
      <point x="319" y="-89"/>
      <point x="282" y="-52"/>
      <point x="209" y="-43" type="curve"/>
    </contour>
  </outline>
</glyph>
<glyph name="che-cy.sc" format="2">
  <advance width="559"/>
  <anchor x="279.5" y="0" name="bottom"/>
  <anchor x="303" y="0" name="bottomleft"/>
  <anchor x="516" y="0" name="bottomright"/>
  <anchor x="263" y="571" name="top"/>
  <outline>
    <contour>
      <point x="203" y="571" type="line"/>
      <point x="10" y="571" type="line"/>
      <point x="10" y="387" type="line" smooth="yes"/>
      <point x="10" y="249"/>
      <point x="78" y="164"/>
      <point x="206" y="164" type="curve" smooth="yes"/>
      <point x="258" y="164"/>
      <point x="299" y="180"/>
      <point x="332" y="209" type="curve"/>
      <point x="333" y="324" type="line"/>
      <point x="316" y="308"/>
      <point x="298" y="300"/>
      <point x="264" y="300" type="curve" smooth="yes"/>
      <point x="218" y="300"/>
      <point x="203" y="325"/>
      <point x="203" y="385" type="curve" smooth="yes"/>
    </contour>
    <contour>
      <point x="516" y="571" type="line"/>
      <point x="323" y="571" type="line"/>
      <point x="323" y="0" type="line"/>
      <point x="516" y="0" type="line"/>
    </contour>
  </outline>
</glyph>
<glyph name="cheverticalstroke-cy.sc" format="2">
  <advance width="578"/>
  <anchor x="263" y="571" name="top"/>
  <anchor x="303" y="0" name="bottomleft"/>
  <anchor x="516" y="0" name="bottomright"/>
  <anchor x="279.5" y="0.0" name="bottom"/>
  <outline>
    <contour>
      <point x="281" y="443" type="line"/>
      <point x="234" y="443" type="line"/>
      <point x="234" y="85" type="line"/>
      <point x="281" y="85" type="line"/>
    </contour>
    <component base="che-cy.sc"/>
  </outline>
</glyph>
<glyph name="circumflexcomb.case" format="2">
  <advance width="468"/>
  <anchor x="234" y="696" name="_top"/>
  <anchor x="234" y="970" name="top"/>
  <anchor x="131" y="856" name="topleft"/>
  <anchor x="338" y="856" name="topright"/>
  <outline>
    <contour>
      <point x="371" y="752" type="line"/>
      <point x="438" y="829" type="line"/>
      <point x="293" y="970" type="line"/>
      <point x="175" y="970" type="line"/>
      <point x="30" y="829" type="line"/>
      <point x="97" y="752" type="line"/>
      <point x="234" y="838" type="line"/>
    </contour>
  </outline>
</glyph>
<glyph name="d.sc" format="2">
  <advance width="593"/>
  <anchor x="289" y="0" name="bottom"/>
  <anchor x="300" y="286" name="center"/>
  <anchor x="265" y="571" name="top"/>
  <outline>
    <contour>
      <point x="249" y="571" type="curve" smooth="yes"/>
      <point x="43" y="571" type="line"/>
      <point x="43" y="0" type="line"/>
      <point x="258" y="0" type="line" smooth="yes"/>
      <point x="433" y="0"/>
      <point x="573" y="61"/>
      <point x="573" y="289" type="curve" smooth="yes"/>
      <point x="573" y="522"/>
      <point x="417" y="571"/>
    </contour>
    <contour>
      <point x="271" y="435" type="line" smooth="yes"/>
      <point x="344" y="435"/>
      <point x="372" y="398"/>
      <point x="372" y="289" type="curve" smooth="yes"/>
      <point x="372" y="176"/>
      <point x="348" y="137"/>
      <point x="270" y="137" type="curve" smooth="yes"/>
      <point x="240" y="137" type="line"/>
      <point x="240" y="435" type="line"/>
    </contour>
  </outline>
</glyph>
<glyph name="dasiaperispomeni.case" format="2">
  <advance width="458"/>
  <anchor x="493" y="696" name="_topleft"/>
  <anchor x="279" y="715" name="top"/>
  <outline>
    <contour>
      <point x="329" y="298" type="line"/>
      <point x="321" y="359" type="line"/>
      <point x="353" y="376"/>
      <point x="369" y="400"/>
      <point x="369" y="434" type="curve" smooth="yes"/>
      <point x="369" y="483"/>
      <point x="331" y="525"/>
      <point x="277" y="525" type="curve" smooth="yes"/>
      <point x="223" y="525"/>
      <point x="185" y="486"/>
      <point x="185" y="434" type="curve" smooth="yes"/>
      <point x="185" y="403"/>
      <point x="195" y="381"/>
      <point x="215" y="346" type="curve" smooth="yes"/>
      <point x="242" y="298" type="line"/>
    </contour>
    <component base="perispomeni" xOffset="46" yOffset="-88"/>
  </outline>
</glyph>
<glyph name="dche-cy.sc" format="2">
  <advance width="661"/>
  <anchor x="330.5" y="-215" name="bottom"/>
  <anchor x="330.5" y="571" name="top"/>
  <outline>
    <contour>
      <point x="102" y="0" type="line"/>
      <point x="596" y="0" type="line"/>
      <point x="596" y="571" type="line"/>
      <point x="233" y="571" type="line"/>
      <point x="217" y="427" type="line" smooth="yes"/>
      <point x="195" y="232"/>
      <point x="174" y="191"/>
      <point x="107" y="139" type="curve"/>
      <point x="235" y="138" type="line"/>
      <point x="329" y="163"/>
      <point x="360" y="252"/>
      <point x="376" y="405" type="curve" smooth="yes"/>
      <point x="379" y="434" type="line"/>
      <point x="423" y="434" type="line"/>
      <point x="423" y="142" type="line"/>
      <point x="112" y="142" type="line"/>
    </contour>
    <contour>
      <point x="260" y="245" type="curve" smooth="yes"/>
      <point x="553" y="245" type="line"/>
      <point x="553" y="357" type="line"/>
      <point x="283" y="357" type="line" smooth="yes"/>
      <point x="209" y="357"/>
      <point x="170" y="374"/>
      <point x="170" y="459" type="curve" smooth="yes"/>
      <point x="170" y="571" type="line"/>
      <point x="10" y="571" type="line"/>
      <point x="10" y="452" type="line" smooth="yes"/>
      <point x="10" y="335"/>
      <point x="78" y="245"/>
    </contour>
    <component base="descStraight-cy" xOffset="424"/>
    <component base="descStraight-cy" xScale="-1" xOffset="302"/>
  </outline>
</glyph>
<glyph name="de-cy.sc" format="2">
  <advance width="566"/>
  <anchor x="283" y="-215" name="bottom"/>
  <anchor x="283" y="571" name="top"/>
  <outline>
    <contour>
      <point x="22" y="139" type="curve"/>
      <point x="150" y="138" type="line"/>
      <point x="224" y="163"/>
      <point x="261" y="252"/>
      <point x="273" y="405" type="curve" smooth="yes"/>
      <point x="276" y="434" type="line"/>
      <point x="318" y="434" type="line"/>
      <point x="318" y="142" type="line"/>
      <point x="27" y="142" type="line"/>
      <point x="27" y="0" type="line"/>
      <point x="501" y="0" type="line"/>
      <point x="501" y="571" type="line"/>
      <point x="118" y="571" type="line"/>
      <point x="93" y="377" type="line" smooth="yes"/>
      <point x="74" y="231"/>
      <point x="49" y="171"/>
    </contour>
    <component base="descStraight-cy" xOffset="329"/>
    <component base="descStraight-cy" xScale="-1" xOffset="227"/>
  </outline>
</glyph>
<glyph name="delta.sc" format="2">
  <advance width="535"/>
  <anchor x="267.5" y="0" name="bottom"/>
  <anchor x="267.5" y="571" name="top"/>
  <outline>
    <contour>
      <point x="266" y="434" type="line"/>
      <point x="323" y="137" type="line"/>
      <point x="208" y="137" type="line"/>
    </contour>
    <contour>
      <point x="385" y="571" type="line"/>
      <point x="151" y="571" type="line"/>
      <point x="-25" y="0" type="line"/>
      <point x="560" y="0" type="line"/>
    </contour>
  </outline>
</glyph>
<glyph name="descStraight-cy" format="2">
  <advance width="242"/>
  <anchor x="164" y="0" name="_bottom"/>
  <anchor x="177" y="0" name="_bottomleft"/>
  <anchor x="172" y="0" name="_bottomright"/>
  <outline>
    <contour>
      <point x="242" y="142" type="line"/>
      <point x="30" y="142" type="line"/>
      <point x="52" y="0" type="line"/>
      <point x="92" y="0" type="line"/>
      <point x="112" y="-175" type="line"/>
      <point x="242" y="-175" type="line"/>
    </contour>
  </outline>
</glyph>
<glyph name="dieresisacutecomb.case" format="2">
  <anchor x="258" y="696" name="_top"/>
  <outline>
    <contour>
      <point x="125" y="934" type="curve" smooth="yes"/>
      <point x="71" y="934"/>
      <point x="30" y="893"/>
      <point x="30" y="842" type="curve" smooth="yes"/>
      <point x="30" y="790"/>
      <point x="71" y="749"/>
      <point x="125" y="749" type="curve" smooth="yes"/>
      <point x="177" y="749"/>
      <point x="220" y="790"/>
      <point x="220" y="842" type="curve" smooth="yes"/>
      <point x="220" y="893"/>
      <point x="177" y="934"/>
    </contour>
    <contour>
      <point x="390" y="934" type="curve" smooth="yes"/>
      <point x="336" y="934"/>
      <point x="295" y="893"/>
      <point x="295" y="842" type="curve" smooth="yes"/>
      <point x="295" y="790"/>
      <point x="336" y="749"/>
      <point x="390" y="749" type="curve" smooth="yes"/>
      <point x="442" y="749"/>
      <point x="485" y="790"/>
      <point x="485" y="842" type="curve" smooth="yes"/>
      <point x="485" y="893"/>
      <point x="442" y="934"/>
    </contour>
    <component base="acutedbl" xOffset="152" yOffset="302"/>
  </outline>
</glyph>
<glyph name="dieresisacutecomb" format="2">
  <anchor x="258" y="534" name="_top"/>
  <outline>
    <contour>
      <point x="125" y="772" type="curve" smooth="yes"/>
      <point x="71" y="772"/>
      <point x="30" y="731"/>
      <point x="30" y="680" type="curve" smooth="yes"/>
      <point x="30" y="628"/>
      <point x="71" y="587"/>
      <point x="125" y="587" type="curve" smooth="yes"/>
      <point x="177" y="587"/>
      <point x="220" y="628"/>
      <point x="220" y="680" type="curve" smooth="yes"/>
      <point x="220" y="731"/>
      <point x="177" y="772"/>
    </contour>
    <contour>
      <point x="390" y="772" type="curve" smooth="yes"/>
      <point x="336" y="772"/>
      <point x="295" y="731"/>
      <point x="295" y="680" type="curve" smooth="yes"/>
      <point x="295" y="628"/>
      <point x="336" y="587"/>
      <point x="390" y="587" type="curve" smooth="yes"/>
      <point x="442" y="587"/>
      <point x="485" y="628"/>
      <point x="485" y="680" type="curve" smooth="yes"/>
      <point x="485" y="731"/>
      <point x="442" y="772"/>
    </contour>
    <component base="acutedbl" xOffset="152" yOffset="140"/>
  </outline>
</glyph>
<glyph name="dieresiscaroncomb.case" format="2">
  <advance width="515"/>
  <anchor x="258" y="696" name="_top"/>
  <outline>
    <contour>
      <point x="390" y="934" type="curve" smooth="yes"/>
      <point x="338" y="934"/>
      <point x="295" y="893"/>
      <point x="295" y="842" type="curve" smooth="yes"/>
      <point x="295" y="790"/>
      <point x="338" y="749"/>
      <point x="390" y="749" type="curve" smooth="yes"/>
      <point x="444" y="749"/>
      <point x="485" y="790"/>
      <point x="485" y="842" type="curve" smooth="yes"/>
      <point x="485" y="893"/>
      <point x="444" y="934"/>
    </contour>
    <contour>
      <point x="125" y="934" type="curve" smooth="yes"/>
      <point x="73" y="934"/>
      <point x="30" y="893"/>
      <point x="30" y="842" type="curve" smooth="yes"/>
      <point x="30" y="790"/>
      <point x="73" y="749"/>
      <point x="125" y="749" type="curve" smooth="yes"/>
      <point x="179" y="749"/>
      <point x="220" y="790"/>
      <point x="220" y="842" type="curve" smooth="yes"/>
      <point x="220" y="893"/>
      <point x="179" y="934"/>
    </contour>
    <component base="caroncomb.case" xOffset="22" yOffset="182"/>
  </outline>
</glyph>
<glyph name="dieresisgravecomb" format="2">
  <anchor x="258" y="534" name="_top"/>
  <outline>
    <contour>
      <point x="390" y="772" type="curve" smooth="yes"/>
      <point x="338" y="772"/>
      <point x="295" y="731"/>
      <point x="295" y="680" type="curve" smooth="yes"/>
      <point x="295" y="628"/>
      <point x="338" y="587"/>
      <point x="390" y="587" type="curve" smooth="yes"/>
      <point x="444" y="587"/>
      <point x="485" y="628"/>
      <point x="485" y="680" type="curve" smooth="yes"/>
      <point x="485" y="731"/>
      <point x="444" y="772"/>
    </contour>
    <contour>
      <point x="125" y="772" type="curve" smooth="yes"/>
      <point x="73" y="772"/>
      <point x="30" y="731"/>
      <point x="30" y="680" type="curve" smooth="yes"/>
      <point x="30" y="628"/>
      <point x="73" y="587"/>
      <point x="125" y="587" type="curve" smooth="yes"/>
      <point x="179" y="587"/>
      <point x="220" y="628"/>
      <point x="220" y="680" type="curve" smooth="yes"/>
      <point x="220" y="731"/>
      <point x="179" y="772"/>
    </contour>
    <component base="gravedbl" xOffset="41" yOffset="140"/>
  </outline>
</glyph>
<glyph name="digamma.sc" format="2">
  <advance width="463"/>
  <anchor x="253" y="571" name="top"/>
  <anchor x="248" y="0" name="bottomright"/>
  <anchor x="142" y="0" name="bottom"/>
  <outline>
    <contour>
      <point x="374" y="177" type="curve"/>
      <point x="419" y="302" type="line"/>
      <point x="386" y="324"/>
      <point x="346" y="334"/>
      <point x="290" y="334" type="curve" smooth="yes"/>
      <point x="117" y="334" type="line"/>
      <point x="117" y="193" type="line"/>
      <point x="280" y="193" type="line" smooth="yes"/>
      <point x="321" y="193"/>
      <point x="346" y="187"/>
    </contour>
    <component base="gamma.sc"/>
  </outline>
</glyph>
<glyph name="dollar.tosf" format="2">
  <advance width="560"/>
  <anchor x="279.95" y="10" name="bottom"/>
  <anchor x="286.6" y="671.2" name="top"/>
  <outline>
    <contour>
      <point x="348" y="5" type="line"/>
      <point x="213" y="-1" type="line"/>
      <point x="213" y="-165" type="line"/>
      <point x="348" y="-165" type="line"/>
    </contour>
    <contour>
      <point x="348" y="834" type="line"/>
      <point x="213" y="834" type="line"/>
      <point x="213" y="673" type="line"/>
      <point x="348" y="678" type="line"/>
    </contour>
    <contour>
      <point x="287" y="690" type="curve" smooth="yes"/>
      <point x="157" y="690"/>
      <point x="34" y="621"/>
      <point x="34" y="488" type="curve" smooth="yes"/>
      <point x="34" y="392"/>
      <point x="76" y="330"/>
      <point x="231" y="275" type="curve" smooth="yes"/>
      <point x="307" y="248"/>
      <point x="328" y="230"/>
      <point x="328" y="191" type="curve" smooth="yes"/>
      <point x="328" y="158"/>
      <point x="302" y="132"/>
      <point x="250" y="132" type="curve" smooth="yes"/>
      <point x="199" y="132"/>
      <point x="140" y="155"/>
      <point x="90" y="198" type="curve"/>
      <point x="-5" y="93" type="line"/>
      <point x="49" y="38"/>
      <point x="142" y="-9"/>
      <point x="258" y="-9" type="curve" smooth="yes"/>
      <point x="422" y="-9"/>
      <point x="526" y="80"/>
      <point x="526" y="209" type="curve" smooth="yes"/>
      <point x="526" y="326"/>
      <point x="466" y="379"/>
      <point x="340" y="425" type="curve" smooth="yes"/>
      <point x="253" y="457"/>
      <point x="233" y="470"/>
      <point x="233" y="504" type="curve" smooth="yes"/>
      <point x="233" y="533"/>
      <point x="258" y="551"/>
      <point x="305" y="551" type="curve" smooth="yes"/>
      <point x="343" y="551"/>
      <point x="390" y="533"/>
      <point x="443" y="498" type="curve"/>
      <point x="520" y="600" type="line"/>
      <point x="460" y="658"/>
      <point x="380" y="690"/>
    </contour>
  </outline>
</glyph>
<glyph name="e.sc" format="2">
  <advance width="473"/>
  <anchor x="245" y="0" name="bottom"/>
  <anchor x="426" y="0" name="ogonek"/>
  <anchor x="248" y="571" name="top"/>
  <outline>
    <contour>
      <point x="453" y="571" type="line"/>
      <point x="43" y="571" type="line"/>
      <point x="43" y="0" type="line"/>
      <point x="446" y="0" type="line"/>
      <point x="446" y="135" type="line"/>
      <point x="240" y="135" type="line"/>
      <point x="240" y="226" type="line"/>
      <point x="410" y="226" type="line"/>
      <point x="410" y="356" type="line"/>
      <point x="240" y="356" type="line"/>
      <point x="240" y="437" type="line"/>
      <point x="433" y="437" type="line"/>
    </contour>
  </outline>
</glyph>
<glyph name="ef-cy.sc" format="2">
  <advance width="777"/>
  <anchor x="388.5" y="0" name="bottom"/>
  <anchor x="388.5" y="571" name="top"/>
  <outline>
    <contour>
      <point x="468" y="539" type="curve"/>
      <point x="457" y="429" type="line"/>
      <point x="539" y="425"/>
      <point x="568" y="380"/>
      <point x="568" y="288" type="curve" smooth="yes"/>
      <point x="568" y="197"/>
      <point x="544" y="144"/>
      <point x="456" y="143" type="curve"/>
      <point x="468" y="32" type="line"/>
      <point x="641" y="38"/>
      <point x="767" y="109"/>
      <point x="767" y="288" type="curve" smooth="yes"/>
      <point x="767" y="471"/>
      <point x="635" y="533"/>
    </contour>
    <contour>
      <point x="309" y="539" type="line"/>
      <point x="135" y="532"/>
      <point x="10" y="461"/>
      <point x="10" y="282" type="curve" smooth="yes"/>
      <point x="10" y="99"/>
      <point x="142" y="37"/>
      <point x="309" y="32" type="curve"/>
      <point x="320" y="141" type="line"/>
      <point x="238" y="145"/>
      <point x="208" y="191"/>
      <point x="208" y="282" type="curve" smooth="yes"/>
      <point x="208" y="374"/>
      <point x="233" y="426"/>
      <point x="320" y="427" type="curve"/>
    </contour>
    <contour>
      <point x="484" y="607" type="line"/>
      <point x="292" y="607" type="line"/>
      <point x="292" y="525" type="line"/>
      <point x="302" y="442" type="line"/>
      <point x="302" y="131" type="line"/>
      <point x="292" y="46" type="line"/>
      <point x="292" y="-39" type="line"/>
      <point x="484" y="-39" type="line"/>
      <point x="484" y="46" type="line"/>
      <point x="473" y="131" type="line"/>
      <point x="473" y="442" type="line"/>
      <point x="484" y="525" type="line"/>
    </contour>
  </outline>
</glyph>
<glyph name="elmiddlehook-cy.sc" format="2">
  <advance width="878"/>
  <anchor x="439" y="-215" name="bottom"/>
  <anchor x="439" y="571" name="top"/>
  <anchor x="548" y="0" name="bottomright"/>
  <outline>
    <contour>
      <point x="657" y="387" type="curve" smooth="yes"/>
      <point x="605" y="387"/>
      <point x="565" y="373"/>
      <point x="528" y="346" type="curve"/>
      <point x="529" y="233" type="line"/>
      <point x="546" y="243"/>
      <point x="566" y="251"/>
      <point x="600" y="251" type="curve" smooth="yes"/>
      <point x="642" y="251"/>
      <point x="660" y="227"/>
      <point x="660" y="167" type="curve" smooth="yes"/>
      <point x="660" y="0" type="line"/>
      <point x="858" y="0" type="line"/>
      <point x="858" y="167" type="line" smooth="yes"/>
      <point x="858" y="302"/>
      <point x="788" y="387"/>
    </contour>
    <component base="el-cy.sc"/>
    <component base="hookHELPER" xOffset="456"/>
  </outline>
</glyph>
<glyph name="eth.sc" format="2">
  <advance width="611"/>
  <anchor x="283" y="571" name="top"/>
  <anchor x="318" y="286" name="center"/>
  <anchor x="307" y="0" name="bottom"/>
  <outline>
    <contour>
      <point x="10" y="242" type="line"/>
      <point x="328" y="242" type="line"/>
      <point x="328" y="344" type="line"/>
      <point x="61" y="344" type="line"/>
      <point x="10" y="344" type="line"/>
    </contour>
    <component base="d.sc" xOffset="18"/>
  </outline>
</glyph>
<glyph name="f.sc" format="2">
  <advance width="439"/>
  <anchor x="219.5" y="0" name="bottom"/>
  <anchor x="219.5" y="571" name="top"/>
  <outline>
    <contour>
      <point x="439" y="571" type="line" smooth="yes"/>
      <point x="43" y="571" type="line" smooth="yes"/>
      <point x="43" y="0" type="line" smooth="yes"/>
      <point x="241" y="0" type="line" smooth="yes"/>
      <point x="241" y="200" type="line" smooth="yes"/>
      <point x="397" y="200" type="line" smooth="yes"/>
      <point x="397" y="335" type="line" smooth="yes"/>
      <point x="241" y="335" type="line" smooth="yes"/>
      <point x="241" y="437" type="line" smooth="yes"/>
      <point x="419" y="437" type="line" smooth="yes"/>
    </contour>
  </outline>
</glyph>
<glyph name="four.tf" format="2">
  <advance width="560"/>
  <outline>
    <contour>
      <point x="197" y="717" type="line"/>
      <point x="10" y="263" type="line"/>
      <point x="10" y="134" type="line"/>
      <point x="550" y="134" type="line"/>
      <point x="550" y="280" type="line"/>
      <point x="213" y="280" type="line"/>
      <point x="366" y="657" type="line"/>
    </contour>
    <contour>
      <point x="490" y="438" type="line"/>
      <point x="320" y="438" type="line"/>
      <point x="296" y="264" type="line"/>
      <point x="296" y="0" type="line"/>
      <point x="490" y="0" type="line"/>
    </contour>
  </outline>
</glyph>
<glyph name="ge-cy.sc" format="2">
  <advance width="458"/>
  <anchor x="142" y="0" name="bottom"/>
  <anchor x="248" y="0" name="bottomright"/>
  <anchor x="253" y="571" name="top"/>
  <outline>
    <contour>
      <point x="43" y="571" type="line"/>
      <point x="43" y="0" type="line"/>
      <point x="240" y="0" type="line"/>
      <point x="240" y="468" type="line"/>
    </contour>
    <contour>
      <point x="463" y="571" type="line"/>
      <point x="43" y="571" type="line"/>
      <point x="226" y="423" type="line"/>
      <point x="444" y="423" type="line"/>
    </contour>
  </outline>
</glyph>
<glyph name="gestrokehook-cy.sc" format="2">
  <advance width="454"/>
  <anchor x="249" y="571" name="top"/>
  <anchor x="244" y="0" name="bottomright"/>
  <anchor x="138" y="0" name="bottom"/>
  <outline>
    <contour>
      <point x="39" y="142" type="line"/>
      <point x="39" y="0" type="line"/>
      <point x="322" y="0" type="line"/>
      <point x="322" y="142" type="line"/>
    </contour>
    <component base="ghestroke-cy.sc"/>
    <component base="hookHELPER" xOffset="-80"/>
  </outline>
</glyph>
<glyph name="gheupturn-cy.sc" format="2">
  <advance width="458"/>
  <anchor x="253" y="571" name="top"/>
  <anchor x="248" y="0" name="bottomright"/>
  <anchor x="142" y="0" name="bottom"/>
  <outline>
    <contour>
      <point x="276" y="551" type="line"/>
      <point x="463" y="571" type="line"/>
      <point x="463" y="733" type="line"/>
      <point x="276" y="733" type="line"/>
    </contour>
    <component base="ge-cy.sc"/>
  </outline>
</glyph>
<glyph name="gravedbl" format="2">
  <advance width="324"/>
  <anchor x="231" y="534" name="_top"/>
  <anchor x="298" y="534" name="_topleft"/>
  <outline>
    <contour>
      <point x="154" y="844" type="line"/>
      <point x="50" y="742" type="line"/>
      <point x="221" y="593" type="line"/>
      <point x="294" y="658" type="line"/>
    </contour>
  </outline>
</glyph>
<glyph name="h.sc" format="2">
  <advance width="596"/>
  <anchor x="298" y="0" name="bottom"/>
  <anchor x="562" y="0" name="bottomright"/>
  <anchor x="298" y="286" name="center"/>
  <anchor x="298" y="571" name="top"/>
  <outline>
    <contour>
      <point x="553" y="571" type="line"/>
      <point x="355" y="571" type="line"/>
      <point x="355" y="370" type="line"/>
      <point x="241" y="370" type="line"/>
      <point x="241" y="571" type="line"/>
      <point x="43" y="571" type="line"/>
      <point x="43" y="0" type="line"/>
      <point x="241" y="0" type="line"/>
      <point x="241" y="220" type="line"/>
      <point x="355" y="220" type="line"/>
      <point x="355" y="0" type="line"/>
      <point x="553" y="0" type="line"/>
    </contour>
  </outline>
</glyph>
<glyph name="hardsign-cy.sc" format="2">
  <advance width="657"/>
  <anchor x="382.5" y="571.0" name="top"/>
  <anchor x="382.5" y="0.0" name="bottom"/>
  <outline>
    <contour>
      <point x="152" y="427" type="line"/>
      <point x="348" y="571" type="line"/>
      <point x="0" y="571" type="line"/>
      <point x="0" y="427" type="line"/>
    </contour>
    <component base="softsign-cy.sc" xOffset="108"/>
  </outline>
</glyph>
<glyph name="hbar.sc" format="2">
  <advance width="604"/>
  <anchor x="302" y="571" name="top"/>
  <anchor x="302" y="286" name="center"/>
  <anchor x="566" y="0" name="bottomright"/>
  <anchor x="302" y="0" name="bottom"/>
  <outline>
    <contour>
      <point x="604" y="506" type="line"/>
      <point x="557" y="506" type="line"/>
      <point x="0" y="506" type="line"/>
      <point x="0" y="415" type="line"/>
      <point x="47" y="415" type="line"/>
      <point x="604" y="415" type="line"/>
    </contour>
    <component base="h.sc" xOffset="4"/>
  </outline>
</glyph>
<glyph name="i.sc" format="2">
  <advance width="284"/>
  <anchor x="142" y="0" name="bottom"/>
  <anchor x="210" y="0" name="ogonek"/>
  <anchor x="142" y="571" name="top"/>
  <outline>
    <contour>
      <point x="241" y="571" type="line"/>
      <point x="43" y="571" type="line"/>
      <point x="43" y="0" type="line"/>
      <point x="241" y="0" type="line"/>
    </contour>
  </outline>
</glyph>
<glyph name="ii-cy.sc" format="2">
  <advance width="588"/>
  <anchor x="294" y="0" name="bottom"/>
  <anchor x="555" y="0" name="bottomright"/>
  <anchor x="294" y="571" name="top"/>
  <outline>
    <contour>
      <point x="545" y="571" type="line"/>
      <point x="320" y="571" type="line"/>
      <point x="202" y="189" type="line"/>
      <point x="215" y="251"/>
      <point x="232" y="315"/>
      <point x="232" y="420" type="curve" smooth="yes"/>
      <point x="232" y="571" type="line"/>
      <point x="43" y="571" type="line"/>
      <point x="43" y="0" type="line"/>
      <point x="275" y="0" type="line"/>
      <point x="387" y="384" type="line"/>
      <point x="373" y="313"/>
      <point x="358" y="255"/>
      <point x="358" y="144" type="curve" smooth="yes"/>
      <point x="358" y="0" type="line"/>
      <point x="545" y="0" type="line"/>
    </contour>
  </outline>
</glyph>
<glyph name="j.sc" format="2">
  <advance width="301"/>
  <anchor x="150.5" y="-215" name="bottom"/>
  <anchor x="162" y="571" name="top"/>
  <outline>
    <contour>
      <point x="260" y="571" type="line"/>
      <point x="63" y="571" type="line"/>
      <point x="63" y="101" type="line" smooth="yes"/>
      <point x="63" y="42"/>
      <point x="56" y="-3"/>
      <point x="-20" y="-30" type="curve"/>
      <point x="33" y="-168" type="line"/>
      <point x="139" y="-134"/>
      <point x="260" y="-77"/>
      <point x="260" y="95" type="curve" smooth="yes"/>
    </contour>
  </outline>
</glyph>
<glyph name="k.sc" format="2">
  <advance width="598"/>
  <anchor x="304" y="0" name="bottom"/>
  <anchor x="301" y="571" name="top"/>
  <outline>
    <contour>
      <point x="603" y="571" type="line"/>
      <point x="402" y="571" type="line"/>
      <point x="245" y="305" type="line"/>
      <point x="396" y="0" type="line"/>
      <point x="618" y="0" type="line"/>
      <point x="443" y="321" type="line"/>
    </contour>
    <contour>
      <point x="240" y="571" type="line"/>
      <point x="43" y="571" type="line"/>
      <point x="43" y="0" type="line"/>
      <point x="240" y="0" type="line"/>
    </contour>
  </outline>
</glyph>
<glyph name="ka-cy.sc" format="2">
  <advance width="605"/>
  <anchor x="302.5" y="0" name="bottom"/>
  <anchor x="549" y="0" name="bottomright"/>
  <anchor x="325" y="571" name="top"/>
  <outline>
    <contour>
      <point x="604" y="571" type="line"/>
      <point x="407" y="571" type="line"/>
      <point x="275" y="359" type="line"/>
      <point x="241" y="359" type="line"/>
      <point x="241" y="571" type="line"/>
      <point x="43" y="571" type="line"/>
      <point x="43" y="0" type="line"/>
      <point x="241" y="0" type="line"/>
      <point x="241" y="230" type="line"/>
      <point x="279" y="230" type="line"/>
      <point x="403" y="0" type="line"/>
      <point x="620" y="0" type="line"/>
      <point x="440" y="315" type="line"/>
    </contour>
  </outline>
</glyph>
<glyph name="kabashkir-cy.sc" format="2">
  <advance width="712"/>
  <anchor x="432" y="571" name="top"/>
  <anchor x="656" y="0" name="bottomright"/>
  <anchor x="409.5" y="0.0" name="bottom"/>
  <outline>
    <contour>
      <point x="150" y="427" type="line"/>
      <point x="348" y="571" type="line"/>
      <point x="0" y="571" type="line"/>
      <point x="0" y="427" type="line"/>
    </contour>
    <component base="ka-cy.sc" xOffset="107"/>
  </outline>
</glyph>
<glyph name="kaiSymbol.sc" format="2">
  <advance width="568"/>
  <anchor x="284" y="-215" name="bottom"/>
  <anchor x="301" y="571" name="top"/>
  <outline>
    <contour>
      <point x="417" y="142" type="line"/>
      <point x="416" y="0" type="line"/>
      <point x="629" y="0" type="line"/>
      <point x="629" y="142" type="line"/>
    </contour>
    <component base="k.sc"/>
    <component base="hookHELPER" xOffset="227"/>
  </outline>
</glyph>
<glyph name="kastroke-cy.sc" format="2">
  <advance width="623"/>
  <anchor x="343" y="571" name="top"/>
  <anchor x="567" y="0" name="bottomright"/>
  <anchor x="320.5" y="0.0" name="bottom"/>
  <outline>
    <contour>
      <point x="10" y="422" type="line"/>
      <point x="312" y="422" type="line"/>
      <point x="312" y="524" type="line"/>
      <point x="61" y="524" type="line"/>
      <point x="10" y="524" type="line"/>
    </contour>
    <component base="ka-cy.sc" xOffset="18"/>
  </outline>
</glyph>
<glyph name="koppaArchaic.sc" format="2">
  <advance width="614"/>
  <anchor x="307" y="-215" name="bottom"/>
  <anchor x="96" y="571" name="topleft"/>
  <anchor x="307" y="571" name="top"/>
  <anchor x="429" y="0" name="ogonek"/>
  <anchor x="537" y="571" name="topright"/>
  <outline>
    <contour>
      <point x="208" y="-215" type="line"/>
      <point x="406" y="-215" type="line"/>
      <point x="406" y="15" type="line"/>
      <point x="208" y="15" type="line"/>
    </contour>
    <component base="o.sc"/>
  </outline>
</glyph>
<glyph name="l.sc" format="2">
  <advance width="475"/>
  <anchor x="244" y="0" name="bottom"/>
  <anchor x="384" y="336" name="center"/>
  <anchor x="141" y="571" name="top"/>
  <anchor x="261" y="571" name="topright"/>
  <outline>
    <contour>
      <point x="240" y="571" type="line"/>
      <point x="43" y="571" type="line"/>
      <point x="43" y="0" type="line"/>
      <point x="445" y="0" type="line"/>
      <point x="465" y="148" type="line"/>
      <point x="240" y="148" type="line"/>
    </contour>
  </outline>
</glyph>
<glyph name="lha-cy.sc" format="2">
  <advance width="793"/>
  <anchor x="396.5" y="0" name="bottom"/>
  <anchor x="396.5" y="571" name="top"/>
  <anchor x="740" y="0" name="bottomright"/>
  <outline>
    <contour>
      <point x="102" y="571" type="line"/>
      <point x="262" y="432" type="line"/>
      <point x="340" y="432" type="line"/>
      <point x="340" y="571" type="line"/>
    </contour>
    <contour>
      <point x="263" y="433" type="line"/>
      <point x="102" y="571" type="line"/>
      <point x="76" y="324" type="line" smooth="yes"/>
      <point x="60" y="169"/>
      <point x="54" y="157"/>
      <point x="-5" y="127" type="curve"/>
      <point x="43" y="-13" type="line"/>
      <point x="214" y="20"/>
      <point x="229" y="102"/>
      <point x="251" y="317" type="curve" smooth="yes"/>
    </contour>
    <component base="x.sc" xOffset="256"/>
  </outline>
</glyph>
<glyph name="lozenge.tf" format="2">
  <advance width="560"/>
  <outline>
    <contour>
      <point x="385" y="696" type="line"/>
      <point x="173" y="696" type="line"/>
      <point x="5" y="347" type="line"/>
      <point x="173" y="0" type="line"/>
      <point x="385" y="0" type="line"/>
      <point x="555" y="347" type="line"/>
    </contour>
    <contour>
      <point x="279" y="559" type="line"/>
      <point x="360" y="348" type="line"/>
      <point x="279" y="136" type="line"/>
      <point x="200" y="348" type="line"/>
    </contour>
  </outline>
</glyph>
<glyph name="lslash.sc" format="2">
  <advance width="520"/>
  <anchor x="186" y="571" name="top"/>
  <anchor x="429" y="336" name="center"/>
  <anchor x="306" y="571" name="topright"/>
  <anchor x="289" y="0" name="bottom"/>
  <outline>
    <contour>
      <point x="373" y="474" type="line"/>
      <point x="88" y="297" type="line"/>
      <point x="0" y="243" type="line"/>
      <point x="57" y="149" type="line"/>
      <point x="431" y="381" type="line"/>
    </contour>
    <component base="l.sc" xOffset="45"/>
  </outline>
</glyph>
<glyph name="ordmasculine.001" format="2">
  <advance width="584"/>
  <anchor x="292" y="534" name="top"/>
  <outline>
    <contour>
      <point x="292" y="554" type="curve"/>
      <point x="122" y="554"/>
      <point x="17" y="442"/>
      <point x="17" y="268" type="curve" smooth="yes"/>
      <point x="17" y="82"/>
      <point x="124" y="-20"/>
      <point x="292" y="-20" type="curve"/>
      <point x="462" y="-20"/>
      <point x="567" y="92"/>
      <point x="567" y="266" type="curve" smooth="yes"/>
      <point x="567" y="452"/>
      <point x="460" y="554"/>
    </contour>
    <contour>
      <point x="292" y="412" type="curve"/>
      <point x="342" y="412"/>
      <point x="364" y="372"/>
      <point x="364" y="266" type="curve" smooth="yes"/>
      <point x="364" y="165"/>
      <point x="342" y="122"/>
      <point x="292" y="122" type="curve"/>
      <point x="242" y="122"/>
      <point x="220" y="162"/>
      <point x="220" y="268" type="curve" smooth="yes"/>
      <point x="220" y="369"/>
      <point x="242" y="412"/>
    </contour>
  </outline>
</glyph>
<glyph name="ou.sc" format="2">
  <advance width="599"/>
  <anchor x="299.5" y="0" name="bottom"/>
  <anchor x="299.5" y="571" name="top"/>
  <outline>
    <contour>
      <point x="301" y="346" type="curve"/>
      <point x="107" y="346"/>
      <point x="20" y="303"/>
      <point x="20" y="185" type="curve" smooth="yes"/>
      <point x="20" y="67"/>
      <point x="113" y="-15"/>
      <point x="301" y="-15" type="curve" smooth="yes"/>
      <point x="492" y="-15"/>
      <point x="579" y="76"/>
      <point x="579" y="180" type="curve" smooth="yes"/>
      <point x="579" y="308"/>
      <point x="486" y="346"/>
    </contour>
    <contour>
      <point x="300" y="248" type="curve" smooth="yes"/>
      <point x="350" y="248"/>
      <point x="372" y="221"/>
      <point x="372" y="187" type="curve" smooth="yes"/>
      <point x="372" y="151"/>
      <point x="349" y="125"/>
      <point x="300" y="125" type="curve" smooth="yes"/>
      <point x="249" y="125"/>
      <point x="227" y="149"/>
      <point x="227" y="187" type="curve" smooth="yes"/>
      <point x="227" y="221"/>
      <point x="249" y="248"/>
    </contour>
    <contour>
      <point x="553" y="571" type="line"/>
      <point x="355" y="571" type="line"/>
      <point x="355" y="430" type="line" smooth="yes"/>
      <point x="355" y="395"/>
      <point x="340" y="376"/>
      <point x="300" y="376" type="curve" smooth="yes"/>
      <point x="264" y="376"/>
      <point x="250" y="395"/>
      <point x="250" y="430" type="curve" smooth="yes"/>
      <point x="250" y="571" type="line"/>
      <point x="53" y="571" type="line"/>
      <point x="53" y="437" type="line" smooth="yes"/>
      <point x="53" y="318"/>
      <point x="145" y="295"/>
      <point x="300" y="283" type="curve"/>
      <point x="440" y="295"/>
      <point x="553" y="319"/>
      <point x="553" y="437" type="curve" smooth="yes"/>
    </contour>
  </outline>
</glyph>
<glyph name="pe-cy.sc" format="2">
  <advance width="596"/>
  <anchor x="298" y="0" name="bottom"/>
  <anchor x="563" y="0" name="bottomright"/>
  <anchor x="298" y="571" name="top"/>
  <outline>
    <contour>
      <point x="553" y="571" type="line"/>
      <point x="43" y="571" type="line"/>
      <point x="43" y="0" type="line"/>
      <point x="240" y="0" type="line"/>
      <point x="240" y="427" type="line"/>
      <point x="356" y="427" type="line"/>
      <point x="356" y="0" type="line"/>
      <point x="553" y="0" type="line"/>
    </contour>
  </outline>
</glyph>
<glyph name="qhooktail.sc" format="2">
  <advance width="610"/>
  <anchor x="305" y="-215" name="bottom"/>
  <anchor x="305" y="571" name="top"/>
  <outline>
    <contour>
      <point x="233" y="-20" type="curve" smooth="yes"/>
      <point x="317" y="-20"/>
      <point x="364" y="25"/>
      <point x="391" y="66" type="curve"/>
      <point x="379" y="188" type="line"/>
      <point x="358" y="142"/>
      <point x="331" y="122"/>
      <point x="302" y="122" type="curve" smooth="yes"/>
      <point x="254" y="122"/>
      <point x="223" y="140"/>
      <point x="223" y="271" type="curve" smooth="yes"/>
      <point x="223" y="406"/>
      <point x="256" y="446"/>
      <point x="308" y="446" type="curve" smooth="yes"/>
      <point x="344" y="446"/>
      <point x="358" y="429"/>
      <point x="382" y="401" type="curve"/>
      <point x="390" y="524" type="line"/>
      <point x="356" y="568"/>
      <point x="312" y="587"/>
      <point x="251" y="587" type="curve" smooth="yes"/>
      <point x="114" y="587"/>
      <point x="20" y="463"/>
      <point x="20" y="273" type="curve" smooth="yes"/>
      <point x="20" y="94"/>
      <point x="94" y="-20"/>
    </contour>
    <contour>
      <point x="369" y="0" type="line"/>
      <point x="567" y="0" type="line"/>
      <point x="567" y="571" type="line"/>
      <point x="394" y="571" type="line"/>
      <point x="369" y="468" type="line"/>
      <point x="369" y="156" type="line"/>
      <point x="369" y="68" type="line"/>
    </contour>
    <component base="hookHELPER" xScale="-1" xOffset="771"/>
  </outline>
</glyph>
<glyph name="rstroke.sc" format="2">
  <advance width="595"/>
  <anchor x="319" y="571" name="top"/>
  <anchor x="317" y="0" name="bottom"/>
  <outline>
    <contour>
      <point x="321" y="192" type="line"/>
      <point x="293" y="322" type="line"/>
      <point x="74" y="322" type="line"/>
      <point x="10" y="322" type="line"/>
      <point x="10" y="192" type="line"/>
    </contour>
    <component base="r.sc" xOffset="31"/>
  </outline>
</glyph>
<glyph name="schwa-cy.sc" format="2">
  <advance width="562"/>
  <anchor x="281" y="0" name="bottom"/>
  <anchor x="270" y="571" name="top"/>
  <outline>
    <contour>
      <point x="344" y="330" type="curve"/>
      <point x="345" y="247" type="line"/>
      <point x="348" y="148"/>
      <point x="325" y="119"/>
      <point x="274" y="119" type="curve" smooth="yes"/>
      <point x="228" y="119"/>
      <point x="197" y="144"/>
      <point x="198" y="223" type="curve"/>
      <point x="359" y="223" type="line"/>
      <point x="359" y="349" type="line"/>
      <point x="17" y="349" type="line"/>
      <point x="13" y="331"/>
      <point x="10" y="307"/>
      <point x="10" y="280" type="curve" smooth="yes"/>
      <point x="10" y="108"/>
      <point x="83" y="-18"/>
      <point x="273" y="-18" type="curve" smooth="yes"/>
      <point x="444" y="-18"/>
      <point x="542" y="91"/>
      <point x="542" y="285" type="curve" smooth="yes"/>
      <point x="542" y="480"/>
      <point x="444" y="587"/>
      <point x="269" y="587" type="curve" smooth="yes"/>
      <point x="174" y="587"/>
      <point x="105" y="561"/>
      <point x="44" y="511" type="curve"/>
      <point x="132" y="406" type="line"/>
      <point x="158" y="427"/>
      <point x="192" y="450"/>
      <point x="248" y="450" type="curve" smooth="yes"/>
      <point x="312" y="450"/>
      <point x="346" y="408"/>
    </contour>
  </outline>
</glyph>
<glyph name="seven.dnom" format="2">
  <advance width="400"/>
  <outline>
    <contour>
      <point x="357" y="424" type="line"/>
      <point x="42" y="424" type="line"/>
      <point x="42" y="322" type="line"/>
      <point x="213" y="322" type="line"/>
      <point x="71" y="34" type="line"/>
      <point x="197" y="-14" type="line"/>
      <point x="357" y="331" type="line"/>
    </contour>
  </outline>
</glyph>
<glyph name="seven.osf" format="2">
  <advance width="492"/>
  <outline>
    <contour>
      <point x="472" y="571" type="line"/>
      <point x="5" y="571" type="line"/>
      <point x="5" y="425" type="line"/>
      <point x="264" y="425" type="line"/>
      <point x="46" y="-69" type="line"/>
      <point x="225" y="-129" type="line"/>
      <point x="472" y="441" type="line"/>
    </contour>
  </outline>
</glyph>
<glyph name="sha-cy.sc" format="2">
  <advance width="805"/>
  <anchor x="403" y="0" name="bottom"/>
  <anchor x="772" y="0" name="bottomright"/>
  <anchor x="402.5" y="571" name="top"/>
  <outline>
    <contour>
      <point x="762" y="571" type="line"/>
      <point x="569" y="571" type="line"/>
      <point x="569" y="150" type="line"/>
      <point x="494" y="150" type="line"/>
      <point x="494" y="571" type="line"/>
      <point x="311" y="571" type="line"/>
      <point x="311" y="150" type="line"/>
      <point x="236" y="150" type="line"/>
      <point x="236" y="571" type="line"/>
      <point x="43" y="571" type="line"/>
      <point x="43" y="0" type="line"/>
      <point x="762" y="0" type="line"/>
    </contour>
  </outline>
</glyph>
<glyph name="t.sc" format="2">
  <advance width="490"/>
  <anchor x="246" y="0" name="bottom"/>
  <anchor x="354" y="0" name="bottomright"/>
  <anchor x="246" y="286" name="center"/>
  <anchor x="246" y="571" name="top"/>
  <outline>
    <contour>
      <point x="495" y="571" type="line"/>
      <point x="5" y="571" type="line"/>
      <point x="5" y="427" type="line"/>
      <point x="146" y="427" type="line"/>
      <point x="146" y="0" type="line"/>
      <point x="344" y="0" type="line"/>
      <point x="344" y="427" type="line"/>
      <point x="475" y="427" type="line"/>
    </contour>
  </outline>
</glyph>
<glyph name="theta.sc" format="2">
  <advance width="614"/>
  <anchor x="307" y="0" name="bottom"/>
  <anchor x="307" y="571" name="top"/>
  <outline>
    <contour>
      <point x="379" y="336" type="line"/>
      <point x="234" y="336" type="line"/>
      <point x="234" y="241" type="line"/>
      <point x="379" y="241" type="line"/>
    </contour>
    <contour>
      <point x="307" y="587" type="curve" smooth="yes"/>
      <point x="120" y="587"/>
      <point x="20" y="469"/>
      <point x="20" y="286" type="curve" smooth="yes"/>
      <point x="20" y="98"/>
      <point x="120" y="-18"/>
      <point x="307" y="-18" type="curve" smooth="yes"/>
      <point x="494" y="-18"/>
      <point x="594" y="103"/>
      <point x="594" y="287" type="curve" smooth="yes"/>
      <point x="594" y="473"/>
      <point x="494" y="587"/>
    </contour>
    <contour>
      <point x="307" y="450" type="curve" smooth="yes"/>
      <point x="378" y="450"/>
      <point x="404" y="406"/>
      <point x="404" y="285" type="curve" smooth="yes"/>
      <point x="404" y="165"/>
      <point x="380" y="118"/>
      <point x="307" y="118" type="curve" smooth="yes"/>
      <point x="235" y="118"/>
      <point x="209" y="165"/>
      <point x="209" y="286" type="curve" smooth="yes"/>
      <point x="209" y="406"/>
      <point x="235" y="450"/>
    </contour>
  </outline>
</glyph>
<glyph name="thook.sc" format="2">
  <advance width="570"/>
  <anchor x="285" y="0" name="bottom"/>
  <anchor x="285" y="571" name="top"/>
  <outline>
    <contour>
      <point x="575" y="571" type="line"/>
      <point x="197" y="571" type="line"/>
      <point x="197" y="427" type="line"/>
      <point x="226" y="427" type="line"/>
      <point x="226" y="0" type="line"/>
      <point x="424" y="0" type="line"/>
      <point x="424" y="427" type="line"/>
      <point x="555" y="427" type="line"/>
    </contour>
    <contour>
      <point x="0" y="409" type="curve" smooth="yes"/>
      <point x="0" y="359"/>
      <point x="18" y="324"/>
      <point x="45" y="288" type="curve"/>
      <point x="160" y="340" type="line"/>
      <point x="152" y="358"/>
      <point x="145" y="374"/>
      <point x="145" y="393" type="curve" smooth="yes"/>
      <point x="145" y="415"/>
      <point x="159" y="427"/>
      <point x="183" y="427" type="curve" smooth="yes"/>
      <point x="199" y="427" type="line"/>
      <point x="199" y="571" type="line"/>
      <point x="178" y="571" type="line" smooth="yes"/>
      <point x="75" y="571"/>
      <point x="0" y="510"/>
    </contour>
  </outline>
</glyph>
<glyph name="tsehelper-cy" format="2">
  <advance width="572"/>
  <anchor x="286" y="0" name="bottom"/>
  <anchor x="540" y="0" name="bottomright"/>
  <outline>
    <contour>
      <point x="332" y="534" type="line"/>
      <point x="332" y="142" type="line"/>
      <point x="240" y="142" type="line"/>
      <point x="240" y="534" type="line"/>
      <point x="42" y="534" type="line"/>
      <point x="42" y="0" type="line"/>
      <point x="530" y="0" type="line"/>
      <point x="530" y="534" type="line"/>
    </contour>
  </outline>
</glyph>
<glyph name="tsehelper-cy.sc" format="2">
  <advance width="604"/>
  <anchor x="303" y="0" name="bottom"/>
  <anchor x="571" y="0" name="bottomright"/>
  <outline>
    <contour>
      <point x="363" y="571" type="line"/>
      <point x="363" y="142" type="line"/>
      <point x="241" y="142" type="line"/>
      <point x="241" y="571" type="line"/>
      <point x="43" y="571" type="line"/>
      <point x="43" y="0" type="line"/>
      <point x="561" y="0" type="line"/>
      <point x="561" y="571" type="line"/>
    </contour>
  </outline>
</glyph>
<glyph name="u.sc" format="2">
  <advance width="582"/>
  <anchor x="292" y="0" name="bottom"/>
  <anchor x="418" y="0" name="ogonek"/>
  <anchor x="291" y="571" name="top"/>
  <anchor x="559" y="571" name="topright"/>
  <outline>
    <contour>
      <point x="549" y="571" type="line"/>
      <point x="352" y="571" type="line"/>
      <point x="352" y="202" type="line" smooth="yes"/>
      <point x="352" y="146"/>
      <point x="336" y="120"/>
      <point x="291" y="120" type="curve" smooth="yes"/>
      <point x="246" y="120"/>
      <point x="230" y="146"/>
      <point x="230" y="202" type="curve" smooth="yes"/>
      <point x="230" y="571" type="line"/>
      <point x="33" y="571" type="line"/>
      <point x="33" y="197" type="line" smooth="yes"/>
      <point x="33" y="69"/>
      <point x="115" y="-18"/>
      <point x="291" y="-18" type="curve" smooth="yes"/>
      <point x="468" y="-18"/>
      <point x="549" y="80"/>
      <point x="549" y="197" type="curve" smooth="yes"/>
    </contour>
  </outline>
</glyph>
<glyph name="ubar.sc" format="2">
  <advance width="605"/>
  <anchor x="302" y="571" name="top"/>
  <anchor x="429" y="0" name="ogonek"/>
  <anchor x="570" y="571" name="topright"/>
  <anchor x="303" y="0" name="bottom"/>
  <outline>
    <contour>
      <point x="605" y="456" type="line"/>
      <point x="561" y="456" type="line"/>
      <point x="0" y="456" type="line"/>
      <point x="0" y="347" type="line"/>
      <point x="44" y="347" type="line"/>
      <point x="605" y="347" type="line"/>
    </contour>
    <component base="u.sc" xOffset="11"/>
  </outline>
</glyph>
<glyph name="uniA7AD.sc" format="2">
  <advance width="603"/>
  <anchor x="269" y="571" name="top"/>
  <anchor x="512" y="336" name="center"/>
  <anchor x="389" y="571" name="topright"/>
  <anchor x="372" y="0" name="bottom"/>
  <outline>
    <contour>
      <point x="172" y="208" type="curve"/>
      <point x="369" y="212" type="line"/>
      <point x="420" y="214"/>
      <point x="464" y="220"/>
      <point x="510" y="229" type="curve"/>
      <point x="497" y="330" type="line"/>
      <point x="448" y="322"/>
      <point x="414" y="319"/>
      <point x="369" y="317" type="curve"/>
      <point x="172" y="313" type="line"/>
      <point x="138" y="313"/>
      <point x="118" y="324"/>
      <point x="118" y="350" type="curve" smooth="yes"/>
      <point x="118" y="366"/>
      <point x="128" y="377"/>
      <point x="146" y="377" type="curve" smooth="yes"/>
      <point x="154" y="377"/>
      <point x="163" y="376"/>
      <point x="172" y="374" type="curve"/>
      <point x="177" y="466" type="line"/>
      <point x="165" y="469"/>
      <point x="149" y="472"/>
      <point x="131" y="472" type="curve" smooth="yes"/>
      <point x="51" y="472"/>
      <point x="-5" y="429"/>
      <point x="-5" y="348" type="curve" smooth="yes"/>
      <point x="-5" y="269"/>
      <point x="48" y="211"/>
    </contour>
    <component base="l.sc" xOffset="128"/>
  </outline>
</glyph>
<glyph name="ustraitstroke-cy.sc" format="2">
  <advance width="552"/>
  <anchor x="279" y="571" name="top"/>
  <anchor x="276" y="0" name="bottom"/>
  <outline>
    <contour>
      <point x="468" y="261" type="line"/>
      <point x="82" y="261" type="line"/>
      <point x="82" y="159" type="line"/>
      <point x="468" y="159" type="line"/>
    </contour>
    <component base="y.sc"/>
  </outline>
</glyph>
<glyph name="varia.case" format="2">
  <advance width="257"/>
  <anchor x="282" y="696" name="_topleft"/>
  <outline>
    <contour>
      <point x="214" y="735" type="line"/>
      <point x="35" y="696" type="line"/>
      <point x="131" y="453" type="line"/>
      <point x="252" y="474" type="line"/>
    </contour>
  </outline>
</glyph>
<glyph name="vturned.sc" format="2">
  <advance width="509"/>
  <anchor x="254.5" y="0" name="bottom"/>
  <anchor x="250" y="571" name="top"/>
  <outline>
    <contour>
      <point x="-25" y="0" type="line"/>
      <point x="177" y="0" type="line"/>
      <point x="247" y="443" type="line"/>
      <point x="327" y="0" type="line"/>
      <point x="534" y="0" type="line"/>
      <point x="378" y="571" type="line"/>
      <point x="121" y="571" type="line"/>
    </contour>
  </outline>
</glyph>
<glyph name="w.sc" format="2">
  <advance width="757"/>
  <anchor x="378.5" y="0" name="bottom"/>
  <anchor x="381" y="571" name="top"/>
  <outline>
    <contour>
      <point x="757" y="571" type="line"/>
      <point x="567" y="571" type="line"/>
      <point x="525" y="140" type="line"/>
      <point x="483" y="571" type="line"/>
      <point x="278" y="571" type="line"/>
      <point x="224" y="139" type="line"/>
      <point x="197" y="571" type="line"/>
      <point x="0" y="571" type="line"/>
      <point x="76" y="0" type="line"/>
      <point x="327" y="0" type="line"/>
      <point x="377" y="393" type="line"/>
      <point x="419" y="0" type="line"/>
      <point x="676" y="0" type="line"/>
    </contour>
  </outline>
</glyph>
<glyph name="x.sc" format="2">
  <advance width="537"/>
  <anchor x="268.5" y="0" name="bottom"/>
  <anchor x="484" y="0" name="bottomright"/>
  <anchor x="268.5" y="571" name="top"/>
  <outline>
    <contour>
      <point x="211" y="571" type="line"/>
      <point x="1" y="571" type="line"/>
      <point x="150" y="303" type="line"/>
      <point x="264" y="181" type="line"/>
      <point x="336" y="0" type="line"/>
      <point x="547" y="0" type="line"/>
      <point x="381" y="308" type="line"/>
      <point x="266" y="422" type="line"/>
    </contour>
    <contour>
      <point x="538" y="571" type="line"/>
      <point x="330" y="571" type="line"/>
      <point x="266" y="422" type="line"/>
      <point x="150" y="303" type="line"/>
      <point x="-10" y="0" type="line"/>
      <point x="198" y="0" type="line"/>
      <point x="265" y="181" type="line"/>
      <point x="381" y="308" type="line"/>
    </contour>
  </outline>
</glyph>
<glyph name="xi.sc" format="2">
  <advance width="480"/>
  <anchor x="240" y="0" name="bottom"/>
  <anchor x="240" y="571" name="top"/>
  <outline>
    <contour>
      <point x="458" y="154" type="line"/>
      <point x="20" y="154" type="line"/>
      <point x="20" y="0" type="line"/>
      <point x="458" y="0" type="line"/>
    </contour>
    <contour>
      <point x="401" y="358" type="line"/>
      <point x="78" y="358" type="line"/>
      <point x="78" y="224" type="line"/>
      <point x="401" y="224" type="line"/>
    </contour>
    <contour>
      <point x="465" y="571" type="line"/>
      <point x="20" y="571" type="line"/>
      <point x="20" y="424" type="line"/>
      <point x="442" y="424" type="line"/>
    </contour>
  </outline>
</glyph>
<glyph name="y.sc" format="2">
  <advance width="552"/>
  <anchor x="276" y="0" name="bottom"/>
  <anchor x="279" y="571" name="top"/>
  <outline>
    <contour>
      <point x="567" y="571" type="line"/>
      <point x="358" y="571" type="line"/>
      <point x="279" y="351" type="line"/>
      <point x="200" y="571" type="line"/>
      <point x="-15" y="571" type="line"/>
      <point x="177" y="208" type="line"/>
      <point x="177" y="0" type="line"/>
      <point x="374" y="0" type="line"/>
      <point x="374" y="209" type="line"/>
    </contour>
  </outline>
</glyph>
<glyph name="yhook.sc" format="2">
  <advance width="539"/>
  <anchor x="269.5" y="0" name="bottom"/>
  <anchor x="282" y="571" name="top"/>
  <outline>
    <contour>
      <point x="177" y="0" type="line"/>
      <point x="374" y="0" type="line"/>
      <point x="374" y="209" type="line"/>
      <point x="472" y="418" type="line" smooth="yes"/>
      <point x="483" y="442"/>
      <point x="494" y="450"/>
      <point x="513" y="450" type="curve" smooth="yes"/>
      <point x="525" y="450"/>
      <point x="533" y="448"/>
      <point x="541" y="446" type="curve"/>
      <point x="570" y="574" type="line"/>
      <point x="543" y="582"/>
      <point x="517" y="587"/>
      <point x="482" y="587" type="curve" smooth="yes"/>
      <point x="386" y="587"/>
      <point x="346" y="547"/>
      <point x="312" y="449" type="curve" smooth="yes"/>
      <point x="279" y="351" type="line"/>
      <point x="200" y="571" type="line"/>
      <point x="-15" y="571" type="line"/>
      <point x="177" y="208" type="line"/>
    </contour>
  </outline>
</glyph>
<glyph name="yuslittleiotified-cy.sc" format="2">
  <advance width="841"/>
  <anchor x="420.5" y="0" name="bottom"/>
  <anchor x="420.5" y="571" name="top"/>
  <outline>
    <contour>
      <point x="391" y="182" type="line"/>
      <point x="391" y="297" type="line"/>
      <point x="241" y="297" type="line"/>
      <point x="241" y="571" type="line"/>
      <point x="43" y="571" type="line"/>
      <point x="43" y="0" type="line"/>
      <point x="241" y="0" type="line"/>
      <point x="241" y="182" type="line"/>
    </contour>
    <component base="yuslittle-cy.sc" xOffset="278"/>
  </outline>
</glyph>
<glyph name="z.sc" format="2">
  <advance width="499"/>
  <anchor x="238" y="0" name="bottom"/>
  <anchor x="254" y="571" name="top"/>
  <outline>
    <contour>
      <point x="476" y="571" type="line"/>
      <point x="33" y="571" type="line"/>
      <point x="33" y="424" type="line"/>
      <point x="248" y="424" type="line"/>
      <point x="10" y="143" type="line"/>
      <point x="10" y="0" type="line"/>
      <point x="465" y="0" type="line"/>
      <point x="484" y="152" type="line"/>
      <point x="247" y="152" type="line"/>
      <point x="476" y="427" type="line"/>
    </contour>
  </outline>
</glyph>
